<?xml version="1.0" encoding="UTF-8"?><svg id="Layer_2" xmlns="http://www.w3.org/2000/svg" viewBox="0 0 285.92 177.1"><defs><style>.cls-1{fill:#d3d3d3;}.cls-2{fill:#9e9e9e;}</style></defs><g id="Layer_1-2"><g><path class="cls-2" d="M253.28,148.65v-12.52h13.09c10.8,0,19.56-8.76,19.56-19.56V60.53c0-10.8-8.76-19.56-19.56-19.56h-13.09v-12.52c0-15.71-12.74-28.45-28.45-28.45H28.45C12.74,0,0,12.74,0,28.45v120.2c0,15.71,12.74,28.45,28.45,28.45H224.83c15.71,0,28.45-12.74,28.45-28.45Z"/><path class="cls-1" d="M31.03,6.37c-13.08,0-23.68,10.6-23.68,23.68v117.01c0,13.08,10.6,23.68,23.68,23.68H197.23V6.37H31.03Z"/></g></g></svg>