<?xml version="1.0" encoding="UTF-8"?><svg id="Layer_2" xmlns="http://www.w3.org/2000/svg" viewBox="0 0 284.88 284.88"><defs><style>.cls-1{fill:#d3d3d3;}.cls-2{fill:none;}.cls-3{fill:#9e9e9e;}</style></defs><g id="Layer_1-2"><g><rect class="cls-2" width="284.88" height="284.88" rx="32" ry="32"/><g><path class="cls-3" d="M244.68,198.15v-11.6h12.13c10.01,0,18.13-8.12,18.13-18.13v-51.94c0-10.01-8.12-18.13-18.13-18.13h-12.13v-11.6c0-14.56-11.81-26.37-26.37-26.37H36.31c-14.56,0-26.37,11.81-26.37,26.37v111.41c0,14.56,11.81,26.37,26.37,26.37H218.31c14.56,0,26.37-11.81,26.37-26.37Z"/><path class="cls-1" d="M38.7,66.27c-12.12,0-21.95,9.83-21.95,21.95v108.44c0,12.12,9.83,21.95,21.95,21.95H192.74V66.27H38.7Z"/></g></g></g></svg>