<?xml version="1.0" encoding="UTF-8"?><svg id="Layer_2" xmlns="http://www.w3.org/2000/svg" viewBox="0 0 225.06 288.95"><defs><style>.cls-1{fill:#333;}.cls-2{fill:none;}.cls-3{fill:#9e9e9e;}</style></defs><g id="Layer_1-2"><g><path class="cls-1" d="M17.59,257.87c0,17.17,14.33,31.08,32,31.08h125.88c17.67,0,32-13.92,32-31.08V113.61H17.59v144.26Z"/><g><rect class="cls-3" x="49.45" y="121.88" width="15.5" height="133.33" rx="7.75" ry="7.75" transform="translate(114.39 377.1) rotate(-180)"/><rect class="cls-3" x="104.78" y="121.88" width="15.5" height="133.33" rx="7.75" ry="7.75" transform="translate(225.06 377.1) rotate(-180)"/><rect class="cls-3" x="160.11" y="121.88" width="15.5" height="133.33" rx="7.75" ry="7.75" transform="translate(335.72 377.1) rotate(-180)"/></g><path class="cls-2" d="M153.5,25H71.55c-3.64,0-6.61,2.96-6.61,6.61v12.89h95.17v-12.89c0-3.64-2.97-6.61-6.61-6.61Z"/><path class="cls-1" d="M205.95,44.5h-20.83v-12.89c0-17.43-14.18-31.61-31.61-31.61H71.55c-17.43,0-31.61,14.18-31.61,31.61v12.89H19.11C8.56,44.5,0,53.06,0,63.61v25.78c0,10.04,7.75,18.25,17.59,19.03H207.47c9.84-.78,17.59-8.99,17.59-19.03v-25.78c0-10.55-8.56-19.11-19.11-19.11Zm-45.83,0H64.94v-12.89c0-3.64,2.96-6.61,6.61-6.61h81.95c3.64,0,6.61,2.96,6.61,6.61v12.89Z"/></g></g></svg>