<?xml version="1.0" encoding="UTF-8"?><svg id="Layer_2" xmlns="http://www.w3.org/2000/svg" viewBox="0 0 275.28 210.21"><defs><style>.cls-1{fill:#d3d3d3;}.cls-2{fill:#9e9e9e;}</style></defs><g id="Layer_1-2"><g><path class="cls-2" d="M0,55.55V187.07c0,12.78,11.52,23.14,25.73,23.14H203.37c14.21,0,25.73-10.36,25.73-23.14V55.55H0Z"/><path class="cls-1" d="M52.9,75.39L7.91,190.04c-4.37,11.14,3.61,20.17,17.82,20.17H203.37c14.21,0,29.28-9.03,33.65-20.17l37.07-94.49c4.37-11.14-3.61-20.17-17.82-20.17H52.9Z"/><path class="cls-1" d="M136.48,0l-21.94,23.18H0v23.18s229.1,0,229.1,0V25.73c0-14.21-11.52-25.73-25.73-25.73h-66.88Z"/></g></g></svg>