<?xml version="1.0" encoding="UTF-8"?><svg id="Layer_2" xmlns="http://www.w3.org/2000/svg" viewBox="0 0 284.88 284.88"><defs><style>.cls-1{fill:#fff;}</style></defs><g id="Layer_1-2"><g><path class="cls-1" d="M194.2,66.68c13.42,0,21.29-5.55,21.29-21.11s-7.87-21.11-21.29-21.11h-23.43v42.22h23.43Z"/><path class="cls-1" d="M139.61,230.22v54.66h51.71c-33.59-.41-47.97-24.01-51.71-54.66Z"/><path class="cls-1" d="M109.86,233.96h-28.11c-29.93,0-47.16-16.69-47.16-46.25s17.23-46.25,47.16-46.25h-8.86v-58.49H0V230.36c0,30.11,24.41,54.52,54.52,54.52h55.34v-50.93Z"/><path class="cls-1" d="M230.36,0h-30.33c29.61,.24,45.15,16.44,45.15,43.24,0,18.78-8.59,31.12-25.22,35.6,15.38,2.15,21.64,11.57,22.72,30.17v18.3l-29.16-.04v-16.41c-.9-14.31-6.62-19.68-21.64-19.68h-21.11v50.27h-29.34V0H54.52C39.29,0,25.53,6.26,15.64,16.33l124.33,42.12v24.51h-37.57v58.49h37.21v51.74c1.6-13.26,5.23-25.22,12.42-34.72,9.06-12.08,22.56-19,43.16-19,33.39,0,53.28,19.54,55.06,50.44h-29.13c-1.06-16.16-9.95-25.93-25.93-25.93-9.24,0-15.98,3.37-20.25,9.77-4.97,7.28-7.1,17.76-7.1,38.36,0,38.01,9.06,48.31,27.71,48.31s25.4-12.26,26.64-30.73h-26.29v-21.67h54.17v73.13c20.36-7.91,34.81-27.64,34.81-50.79V54.52c0-30.11-24.41-54.52-54.52-54.52Z"/><path class="cls-1" d="M64.52,187.7c0,14.15,7.07,21.4,21.22,21.4h24.12v-42.81h-24.12c-14.15,0-21.22,7.26-21.22,21.41Z"/><path class="cls-1" d="M192.95,284.88h32.78v-18.96c-4.89,11.19-16.18,18.72-32.78,18.96Z"/></g></g></svg>