<?xml version="1.0" encoding="UTF-8"?><svg id="Layer_2" xmlns="http://www.w3.org/2000/svg" viewBox="0 0 284.88 284.88"><defs><style>.cls-1{fill:#333;}.cls-2{fill:#d3d3d3;}.cls-3{fill:#9e9e9e;}</style></defs><g id="Layer_1-2"><g><rect class="cls-1" width="284.88" height="284.88" rx="32" ry="32"/><g><path class="cls-2" d="M197.53,113.09c0-30.38-24.71-55.09-55.09-55.09s-55.09,24.71-55.09,55.09h-13.86v113.79H211.38V113.09h-13.86Zm-55.09-32.95c18.17,0,32.95,14.78,32.95,32.95H109.49c0-18.17,14.78-32.95,32.95-32.95Z"/><path class="cls-3" d="M155.08,165.26c0-6.86-5.56-12.42-12.42-12.42s-12.42,5.56-12.42,12.42c0,4.17,2.05,7.85,5.2,10.1v26.53h14.44v-26.53c3.15-2.25,5.2-5.94,5.2-10.1Z"/></g></g></g></svg>