<?xml version="1.0" encoding="UTF-8"?><svg id="Layer_2" xmlns="http://www.w3.org/2000/svg" viewBox="0 0 265 210.37"><defs><style>.cls-1{fill:#d3d3d3;}</style></defs><g id="Layer_1-2"><g><path class="cls-1" d="M0,83.18v40.3c0,22.26,18.04,40.3,40.3,40.3h0V42.88h0c-22.26,0-40.3,18.04-40.3,40.3Z"/><path class="cls-1" d="M134.11,185.22V21.44c0-1.42-.9-2.47-1.86-2.19L53.2,42.83c-.1,.03-.21,.05-.31,.05h0c-.86,0-1.55,1-1.55,2.23v116.43c0,1.23,.69,2.23,1.55,2.23h.16s79.2,23.62,79.2,23.62c.96,.29,1.86-.77,1.86-2.19Z"/><g><path class="cls-1" d="M208.8,4.01l.06-.06c5.59-5.59,14.81-5.21,19.86,.87,48.24,58.06,48.39,142.79,.37,200.71-5.05,6.09-14.27,6.47-19.87,.88h0c-4.93-4.93-5.25-12.78-.8-18.16,39.65-47.92,39.48-117.99-.41-166.09-4.45-5.37-4.14-13.23,.8-18.16Z"/><path class="cls-1" d="M166.02,46.79l.05-.05c5.86-5.86,15.61-5.1,20.45,1.63,24.16,33.61,24.08,79.42-.2,113.09-4.85,6.72-14.58,7.48-20.44,1.62h0c-4.7-4.7-5.2-12.09-1.32-17.5,17.38-24.23,17.43-57.12,.13-81.31-3.87-5.41-3.37-12.79,1.33-17.49Z"/></g></g></g></svg>