<?xml version="1.0" encoding="UTF-8"?><svg id="Layer_2" xmlns="http://www.w3.org/2000/svg" viewBox="0 0 239.24 164.37"><defs><style>.cls-1{fill:#d3d3d3;}.cls-2{fill:none;}</style></defs><g id="Layer_1-2"><g><rect class="cls-2" width="239.24" height="164.37" rx="23.68" ry="23.68"/><g><path class="cls-1" d="M25.56,66.57v28.61c0,15.8,12.81,28.61,28.61,28.61h0V37.96h0c-15.8,0-28.61,12.81-28.61,28.61Z"/><path class="cls-1" d="M120.76,139V22.74c0-1.01-.64-1.76-1.32-1.55l-56.11,16.74c-.07,.02-.15,.03-.22,.03h0c-.61,0-1.1,.71-1.1,1.59V122.19c0,.88,.49,1.59,1.1,1.59h.11s56.22,16.77,56.22,16.77c.68,.2,1.32-.55,1.32-1.55Z"/><g><path class="cls-1" d="M173.78,10.37l.04-.04c3.97-3.97,10.51-3.7,14.1,.62,34.24,41.22,34.35,101.36,.26,142.47-3.58,4.32-10.13,4.6-14.1,.62h0c-3.5-3.5-3.73-9.07-.57-12.89,28.14-34.02,28.02-83.76-.29-117.9-3.16-3.81-2.94-9.39,.56-12.89Z"/><path class="cls-1" d="M143.41,40.73l.04-.04c4.16-4.16,11.08-3.62,14.52,1.16,17.15,23.86,17.1,56.38-.14,80.28-3.44,4.77-10.35,5.31-14.51,1.15h0c-3.34-3.34-3.69-8.58-.94-12.42,12.34-17.2,12.38-40.55,.09-57.71-2.75-3.84-2.39-9.08,.95-12.41Z"/></g></g></g></g></svg>