<?xml version="1.0" encoding="UTF-8"?><svg id="Layer_2" xmlns="http://www.w3.org/2000/svg" viewBox="0 0 284.88 284.88"><defs><style>.cls-1{fill:#d3d3d3;}.cls-2{fill:none;}</style></defs><g id="Layer_1-2"><g><rect class="cls-2" width="284.88" height="284.88" rx="32" ry="32"/><g><path class="cls-1" d="M59.78,242.77h-.1c-10.13,0-18.1-8.71-17.16-18.79C51.42,127.88,127.87,51.15,223.64,42.19c10.09-.94,18.8,7.03,18.8,17.16h0c0,8.9-6.79,16.31-15.65,17.14-79.22,7.46-142.47,71.01-149.87,150.61-.82,8.87-8.24,15.66-17.15,15.66Z"/><path class="cls-1" d="M137.15,242.77h-.1c-10.64,0-18.73-9.56-17-20.06,8.57-52.17,50.01-93.46,102.34-101.98,10.5-1.71,20.05,6.37,20.05,17h0c0,8.46-6.15,15.64-14.51,17-37.73,6.16-67.6,35.93-73.78,73.54-1.37,8.34-8.54,14.49-17,14.49Z"/><ellipse class="cls-1" cx="214.88" cy="215.29" rx="27.56" ry="27.48"/></g></g></g></svg>