<?xml version="1.0" encoding="UTF-8"?><svg id="Layer_2" xmlns="http://www.w3.org/2000/svg" viewBox="0 0 283.53 178.1"><defs><style>.cls-1{fill:#d3d3d3;}.cls-2{fill:none;}</style></defs><g id="Layer_1-2"><g><rect class="cls-2" width="283.47" height="178.1"/><g><path class="cls-1" d="M122.04,178.1h-.09c-8.96,0-16-7.7-15.17-16.61C114.65,76.53,182.24,8.7,266.9,.77c8.92-.84,16.62,6.21,16.62,15.17h0c0,7.87-6,14.42-13.83,15.16-70.04,6.6-125.95,62.78-132.49,133.15-.73,7.84-7.28,13.85-15.16,13.85Z"/><path class="cls-1" d="M190.45,178.1h-.09c-9.41,0-16.56-8.45-15.03-17.74,7.58-46.12,44.21-82.63,90.48-90.15,9.28-1.51,17.72,5.63,17.72,15.03h0c0,7.48-5.44,13.83-12.82,15.03-33.35,5.44-59.76,31.76-65.23,65.02-1.21,7.38-7.55,12.81-15.03,12.81Z"/><ellipse class="cls-1" cx="259.16" cy="153.8" rx="24.37" ry="24.3"/></g></g></g></svg>