<?xml version="1.0" encoding="UTF-8"?><svg id="Layer_2" xmlns="http://www.w3.org/2000/svg" viewBox="0 0 1401.99 564.78"><defs><style>.cls-1{stroke-width:6px;}.cls-1,.cls-2{fill:none;stroke:#000;stroke-miterlimit:10;}.cls-2{stroke-width:20px;}.cls-3{fill:#1d1d1b;}.cls-4{opacity:.3;}</style></defs><g id="Layer_1-2"><g><path class="cls-4" d="M1309.1,425.68c36.66-36.67,59.34-87.33,59.34-143.29s-22.68-106.61-59.34-143.29v-59.16h-58.67V27.89H123.33v52.05h-58.67v94.53c-19.7,31.25-31.11,68.25-31.11,107.93s11.41,76.68,31.11,107.93v94.53h58.67v52.05H1250.44v-52.05h58.67v-59.16Z"/><g><g><path class="cls-2" d="M1309.1,425.68c36.66-36.67,59.34-87.33,59.34-143.29s-22.68-106.61-59.34-143.29v-59.16h-58.67V27.89H123.33v52.05h-58.67v94.53c-19.7,31.25-31.11,68.25-31.11,107.93s11.41,76.68,31.11,107.93v94.53h58.67v52.05H1250.44v-52.05h58.67v-59.16Z"/><path class="cls-1" d="M1336.94,439.69c38.34-40.26,62.06-95.87,62.06-157.3s-23.71-117.04-62.06-157.3V51h-61.35V3H96.89V51H35.54v112.91C14.93,198.22,3,238.84,3,282.39s11.93,84.17,32.54,118.48v110.57h61.35v50.34H1275.58v-50.34h61.35v-71.75Z"/></g><g><g><path class="cls-3" d="M315.33,348.76h22.83v1.7h-10.48v32.22h-1.88v-32.22h-10.48v-1.7Z"/><path class="cls-3" d="M340.61,382.68l12.71-33.92h1.88l12.7,33.92h-1.96l-3.27-8.86h-16.76l-3.27,8.86h-2.01Zm21.39-10.52l-7.77-20.95-7.77,20.95h15.54Z"/><path class="cls-3" d="M375.8,382.68v-33.92h11.96c6.5,0,9.69,3.19,9.69,8.6,0,4.45-2.14,6.98-5.5,7.95,4.23,.79,6.46,3.58,6.46,8.34,0,6.24-3.62,9.04-10.48,9.04h-12.14Zm11.66-18.2c5.63,0,8.12-2.53,8.12-7.03s-2.49-6.98-8.12-6.98h-9.82v14.01h9.82Zm.13,1.66h-9.95v14.84h9.95c6.64,0,8.95-2.66,8.95-7.38s-2.31-7.47-8.95-7.47Z"/><path class="cls-3" d="M407.89,348.76h1.83v32.22h17.2v1.7h-19.03v-33.92Z"/><path class="cls-3" d="M435.01,348.76h18.81v1.7h-16.98v13.97h15.24v1.7h-15.24v14.84h17.2v1.7h-19.03v-33.92Z"/><path class="cls-3" d="M460.42,348.76h22.83v1.7h-10.48v32.22h-1.88v-32.22h-10.48v-1.7Z"/><path class="cls-3" d="M511.11,379.53c-2.05,2.4-5.02,3.71-8.99,3.71s-6.98-1.31-8.99-3.71c-2.62-3.1-3.54-7.9-3.54-13.84s.92-10.7,3.54-13.79c2.01-2.4,5.02-3.71,8.99-3.71s6.94,1.31,8.99,3.71c2.57,3.1,3.54,7.9,3.54,13.79s-.96,10.74-3.54,13.84Zm-1.44-26.54c-1.7-2.05-4.32-3.14-7.55-3.14s-5.85,1.09-7.55,3.14c-2.36,2.88-3.14,7.16-3.14,12.7s.79,9.87,3.14,12.75c1.7,2.05,4.32,3.14,7.55,3.14s5.85-1.09,7.55-3.14c2.36-2.88,3.14-7.16,3.14-12.75s-.79-9.82-3.14-12.7Z"/><path class="cls-3" d="M526.61,369.23v13.45h-1.83v-33.92h12.14c6.98,0,10.48,4.02,10.48,10.22s-3.49,10.26-10.48,10.26h-10.3Zm10.21-1.7c5.76,0,8.73-3.23,8.73-8.56s-2.97-8.51-8.73-8.51h-10.21v17.07h10.21Z"/><path class="cls-3" d="M593.5,382.68c-.31-.74-.48-1.79-.57-3.06l-.3-4.85c-.31-4.41-2.45-6.33-8.03-6.33h-10.26v14.23h-1.83v-33.92h12.27c7.12,0,10.35,3.84,10.35,9.78,0,4.67-1.96,7.9-6.11,9.08,3.45,.65,5.15,2.66,5.46,7.16l.35,4.8c.09,1.31,.26,2.31,.57,3.1h-1.88Zm-8.78-15.93c5.68,0,8.56-2.92,8.56-8.12s-2.88-8.16-8.56-8.16h-10.39v16.28h10.39Z"/><path class="cls-3" d="M625.46,379.53c-2.05,2.4-5.02,3.71-8.99,3.71s-6.98-1.31-8.99-3.71c-2.62-3.1-3.54-7.9-3.54-13.84s.92-10.7,3.54-13.79c2.01-2.4,5.02-3.71,8.99-3.71s6.94,1.31,8.99,3.71c2.57,3.1,3.54,7.9,3.54,13.79s-.96,10.74-3.54,13.84Zm-1.44-26.54c-1.7-2.05-4.32-3.14-7.55-3.14s-5.85,1.09-7.55,3.14c-2.36,2.88-3.14,7.16-3.14,12.7s.79,9.87,3.14,12.75c1.7,2.05,4.32,3.14,7.55,3.14s5.85-1.09,7.55-3.14c2.36-2.88,3.14-7.16,3.14-12.75s-.79-9.82-3.14-12.7Z"/><path class="cls-3" d="M639.13,348.76h1.83v32.22h17.2v1.7h-19.03v-33.92Z"/><path class="cls-3" d="M666.24,348.76h1.83v32.22h17.2v1.7h-19.03v-33.92Z"/><path class="cls-3" d="M711.3,369.23v13.45h-1.83v-33.92h12.14c6.98,0,10.48,4.02,10.48,10.22s-3.49,10.26-10.48,10.26h-10.3Zm10.21-1.7c5.76,0,8.73-3.23,8.73-8.56s-2.97-8.51-8.73-8.51h-10.21v17.07h10.21Z"/><path class="cls-3" d="M741.07,348.76h1.83v32.22h17.2v1.7h-19.03v-33.92Z"/><path class="cls-3" d="M764.87,382.68l12.71-33.92h1.88l12.7,33.92h-1.96l-3.27-8.86h-16.76l-3.27,8.86h-2.01Zm21.39-10.52l-7.77-20.95-7.77,20.95h15.54Z"/><path class="cls-3" d="M806.87,367.66l11.09-18.9h2.05l-12.22,20.56v13.36h-1.83v-13.36l-12.18-20.56h2.01l11.09,18.9Z"/><path class="cls-3" d="M830.05,382.68h-1.83v-33.92h1.83v33.92Z"/><path class="cls-3" d="M862.19,382.68l-19.08-30.56v30.56h-1.83v-33.92h1.83l19.08,30.56v-30.56h1.83v33.92h-1.83Z"/><path class="cls-3" d="M886.64,348.19c7.38,0,11.61,4.5,12.14,11.57h-1.92c-.44-6.07-3.84-9.87-10.22-9.87-8.21,0-10.7,6.42-10.7,15.8s2.4,15.85,10.7,15.85c6.24,0,10.48-3.93,10.48-12.14v-1.79h-10.26v-1.7h12.01v16.76h-1.48l-.22-6.42c-1,4.19-5.11,6.98-10.52,6.98-9.38,0-12.53-6.98-12.53-17.55s3.1-17.51,12.53-17.51Z"/><path class="cls-3" d="M937.24,348.19c7.38,0,11.61,4.5,12.14,11.57h-1.92c-.44-6.07-3.84-9.87-10.22-9.87-8.21,0-10.7,6.42-10.7,15.8s2.4,15.85,10.7,15.85c6.24,0,10.48-3.93,10.48-12.14v-1.79h-10.26v-1.7h12.01v16.76h-1.48l-.22-6.42c-1,4.19-5.11,6.98-10.52,6.98-9.38,0-12.53-6.98-12.53-17.55s3.1-17.51,12.53-17.51Z"/><path class="cls-3" d="M956.98,382.68l12.71-33.92h1.88l12.7,33.92h-1.96l-3.27-8.86h-16.76l-3.27,8.86h-2.01Zm21.39-10.52l-7.77-20.95-7.77,20.95h15.54Z"/><path class="cls-3" d="M1007.36,382.68l-13.36-29.82v29.82h-1.83v-33.92h1.96l14.28,31.82,14.19-31.82h2.01v33.92h-1.83v-29.82l-13.36,29.82h-2.05Z"/><path class="cls-3" d="M1035.79,348.76h18.81v1.7h-16.98v13.97h15.24v1.7h-15.24v14.84h17.2v1.7h-19.03v-33.92Z"/></g><g><path class="cls-3" d="M592.94,440.25h-10.77v-22.4h11.13v1.06h-9.98v9.51h9.68v1.04h-9.68v9.73h9.29c3.13,0,6.01-.84,7.66-2.43v-19.38h1.17v24.61h-1.17v-4.17c-1.43,1.51-4.31,2.43-7.33,2.43Z"/><path class="cls-3" d="M610.3,422.82c0-1.85,.7-3.27,1.88-4.22,1.12-.92,2.66-1.4,4.39-1.4s3.33,.48,4.45,1.4c1.12,.95,1.88,2.38,1.88,4.22s-.76,3.22-1.88,4.2c-1.12,.92-2.69,1.4-4.45,1.4s-3.27-.48-4.39-1.4c-1.18-.98-1.88-2.38-1.88-4.2Zm1.15,0c0,1.45,.56,2.6,1.45,3.36,.92,.81,2.21,1.23,3.66,1.23s2.8-.42,3.69-1.23c.9-.76,1.43-1.9,1.43-3.36s-.53-2.6-1.43-3.38c-.89-.81-2.21-1.23-3.69-1.23s-2.74,.42-3.66,1.23c-.89,.78-1.45,1.9-1.45,3.38Zm1.87,14.57v3.83h16.95v1.01h-18.15v-5.85h16.67v-3.86h-16.67v-1.01h17.85v5.87h-16.64Zm16.64-20.03v5.12h4v1.06h-4v5.59h-1.18v-11.78h1.18Z"/><path class="cls-3" d="M642.74,439.18v-20.28h-2.71v-1.06h13.68v1.06h-2.82v12.39c0,2.85-.25,6.07-.7,7.89h1.54c2.71,0,5.23-.78,6.71-2.18v-19.63h1.17v24.61h-1.17v-3.94c-1.4,1.45-4.03,2.21-6.83,2.21h-11.91v-1.06h3.05Zm6.96-7.5v-12.78h-5.79v20.28h5.09c.45-1.79,.7-4.84,.7-7.5Z"/><path class="cls-3" d="M669.08,417.84h13.01v1.06h-5.93v9.26c0,5.87,3.22,9.54,6.18,11.02v1.09c-3.33-1.51-5.93-4.67-6.77-8.08-.81,3.44-3.58,6.68-6.8,8.08v-1.09c2.88-1.37,6.21-5.12,6.21-11.02v-9.26h-5.9v-1.06Zm18.43,24.14v-24.61h1.17v24.61h-1.17Z"/><path class="cls-3" d="M708.51,417.7h12.22v1.03h-5.51v2.88c0,4.08,3.11,6.57,5.93,7.3v1.12c-3.02-.78-5.54-2.88-6.52-5.45-.89,2.63-3.36,5.06-6.52,5.76v-1.09c2.96-.7,5.9-3.44,5.9-7.64v-2.88h-5.51v-1.03Zm10.71,24.89c-3.22,0-5.99-.5-7.69-1.68-1.18-.78-1.82-1.85-1.82-3.22s.64-2.46,1.82-3.24c1.71-1.17,4.47-1.71,7.69-1.71s6.01,.53,7.72,1.71c1.15,.78,1.82,1.85,1.82,3.24s-.67,2.43-1.82,3.22c-1.71,1.17-4.45,1.68-7.72,1.68Zm0-8.78c-2.99,0-5.51,.5-6.96,1.48-.87,.64-1.37,1.4-1.37,2.41s.5,1.76,1.37,2.38c1.46,1.01,3.97,1.51,6.96,1.51s5.54-.5,6.96-1.51c.92-.62,1.43-1.4,1.43-2.38s-.5-1.76-1.43-2.41c-1.43-.98-3.94-1.48-6.96-1.48Zm9.01-2.46h-1.17v-7.3h-6.1v-1.03h6.1v-5.65h1.17v13.98Z"/><path class="cls-3" d="M748.66,440.25h-10.77v-11.83h9.56v-9.51h-9.56v-1.06h10.74v11.61h-9.59v9.73h9.76c2.88,0,5.62-.87,7.19-2.43v-19.38h1.17v24.61h-1.17v-4.17c-1.43,1.54-4.31,2.43-7.33,2.43Z"/><path class="cls-3" d="M768.74,421.26h16.31v-3.55h1.18v10.01h-8.78v4.11h10.54v1.03h-22.18v-1.03h10.49v-4.11h-8.73v-10.01h1.17v3.55Zm0,14.6v5.17h17.98v1.06h-19.16v-6.24h1.17Zm16.31-9.15v-4.39h-16.31v4.39h16.31Z"/></g><g><path class="cls-3" d="M299.89,125.42h134.91v31.65h-48.51v151.08h-38.12V157.07h-48.28v-31.65Z"/><path class="cls-3" d="M599.73,268.64c-1.16-18.48-8.55-25.41-27.95-25.41h-27.26v64.91h-37.88V125.42h74.84c38.81,0,59.14,21.02,59.14,55.9,0,24.26-11.09,40.19-32.57,45.97,19.87,2.77,27.95,14.78,29.34,38.81l1.62,25.41c.46,6.93,1.62,12.47,3.46,16.63h-38.35c-1.62-3.93-2.54-10.16-3-16.4l-1.39-23.1Zm-24.95-57.06c17.33,0,27.49-7.16,27.49-27.26s-10.16-27.26-27.49-27.26h-30.26v54.52h30.26Z"/><path class="cls-3" d="M758.19,243.23v64.91h-37.88V125.42h73.69c38.12,0,60.06,21.48,60.06,58.91s-21.95,58.91-60.06,58.91h-35.81Zm30.72-31.65c18.02,0,27.03-9.24,27.03-27.26s-9.01-27.26-27.03-27.26h-30.72v54.52h30.72Z"/><path class="cls-3" d="M942.52,146.91c11.78-15.71,29.34-24.72,56.13-24.72,43.43,0,69.3,25.41,71.61,65.6h-37.88c-1.39-21.02-12.94-33.73-33.73-33.73-12.01,0-20.79,4.39-26.33,12.71-6.47,9.47-9.24,23.1-9.24,49.9,0,49.43,11.78,62.83,36.04,62.83s33.03-15.94,34.65-39.96h-34.19v-28.18h70.46v96.79h-27.26l-4.39-21.48c-6.47,14.78-21.48,24.72-43.66,24.72-52.9,0-69.76-43.66-69.76-94.71,0-27.03,3.93-51.75,17.56-69.76Z"/></g></g></g></g></g></svg>