<?xml version="1.0" encoding="UTF-8"?><svg id="Layer_2" xmlns="http://www.w3.org/2000/svg" viewBox="0 0 757.72 357.46"><defs><style>.cls-1,.cls-2{fill:#fff;}.cls-2{font-family:S-CoreDream-4Regular, 'S-Core Dream';font-size:42.76px;}.cls-3{letter-spacing:-.01em;}.cls-4{letter-spacing:-.09em;}.cls-5{letter-spacing:-.01em;}</style></defs><g id="Layer_1-2"><g><text class="cls-2" transform="translate(106.49 345.1)"><tspan class="cls-4" x="0" y="0">T</tspan><tspan x="21" y="0">abl</tspan><tspan class="cls-3" x="80.57" y="0">e</tspan><tspan class="cls-5" x="104.64" y="0">t</tspan><tspan x="120.81" y="0">op Roll Pl</tspan><tspan class="cls-3" x="305.76" y="0">a</tspan><tspan x="329.79" y="0">ying Game</tspan></text><path class="cls-1" d="M0,0H212.98V49.96h-76.59v238.51h-60.17V49.96H0V0Z"/><path class="cls-1" d="M349.72,175.31c0-39.41-22.97-63.17-66.82-63.17h-6.66l72.89,72.89c.38-3.1,.59-6.33,.59-9.72Z"/><path class="cls-1" d="M315.94,240.97c-1.57-27.15-10.7-40.72-33.15-43.85,17.87-4.8,29.36-15.83,34.19-32.25l-82.86-82.86h-65.92v206.47h42.81v-73.35h30.8c21.93,0,30.28,7.83,31.58,28.71l1.56,26.1c.52,7.05,.85,13.64,.96,18.53h42.67c-.16-6.25-.61-11.22-.82-18.79l-1.83-28.71Zm-70.74-61.6h-34.19v-61.6h34.19c19.58,0,31.06,8.35,31.06,30.8s-11.49,30.8-31.06,30.8Z"/><path class="cls-1" d="M586.02,175.03h-61.89v31.97h39.63c-1.87,27.24-12.85,45.32-40.16,45.32s-41.15-14.53-41.75-67.55c0-1.21-.02-2.45-.02-3.71,0-30.39,3.22-45.85,10.71-56.59,6.43-9.43,16.6-14.41,30.52-14.41s24.46,4.9,31,13.71c3.08,4.11,5.28,9.09,6.64,14.81l32.26-32.26c-8.34-12.51-20.45-21.81-35.96-27.16-9.96-3.44-21.31-5.25-33.94-5.25-10.24,0-19.32,1.11-27.37,3.24-16.38,4.32-28.54,12.85-37.69,24.79-7.57,9.8-12.56,21.34-15.69,34.09-3.42,13.83-4.65,29.08-4.65,45.03,0,1.65,.02,3.3,.05,4.93,1.1,55.75,21.24,102.48,80.8,102.48,25.7,0,43.11-11.26,50.6-28.03l5.09,24.37h31.59v-90.01c0-10.92-8.85-19.77-19.77-19.77Z"/><path class="cls-1" d="M519.12,170.03v2.31c1.23-.74,2.43-1.51,3.61-2.31h-3.61Z"/><g><path class="cls-1" d="M536.8,28.6h-7.8v-3h5.04C517.84,8.94,493.72,0,462.85,0h-116.34V25.6h4.85v3h-4.85V182.4l59.81,59.81v-56.22h26.38c-.03-1.63-.05-3.27-.05-4.93,0-17.28,1.47-32.16,4.5-45.03h-30.83V49.96h48.51c20.48,0,33.59,7.56,39.32,22.42,8.68-2.32,18.3-3.47,28.9-3.47,12.04,0,23.22,1.62,33.26,4.8-2.67-18.23-9.31-33.37-19.51-45.11Zm-161.75,0h-11.84v-3h11.84v3Zm23.68,0h-11.84v-3h11.84v3Zm23.69,0h-11.84v-3h11.84v3Zm23.68,0h-11.84v-3h11.84v3Zm23.68,0h-11.84v-3h11.84v3Zm23.68,0h-11.84v-3h11.84v3Zm23.68,0h-11.84v-3h11.84v3Z"/><polygon class="cls-1" points="346.51 288.47 406.32 288.47 406.32 254.21 346.51 194.4 346.51 288.47"/><path class="cls-1" d="M523.05,73.91c-10.24,0-19.32,1.11-27.37,3.24,1.21,4.69,1.82,9.97,1.82,15.85,0,28.44-14.23,43.03-42.67,43.03h-12.53c-3.42,13.83-4.65,29.08-4.65,45.03,0,1.65,.02,3.3,.05,4.93h25.15c6.65,0,12.98-.41,18.99-1.22,0-1.21-.02-2.45-.02-3.71,0-30.39,3.22-45.85,10.71-56.59,6.43-9.43,16.6-14.41,30.52-14.41s24.46,4.9,31,13.71c2.39-9.3,3.62-19.58,3.62-30.77,0-4.78-.23-9.4-.68-13.84-9.96-3.44-21.31-5.25-33.94-5.25Z"/><path class="cls-1" d="M523.05,115.06c-12.15,0-20.78,4-26.39,12.22v.03s-.03,.02-.03,.02c-7.06,10.12-9.81,25.18-9.81,53.73,0,.99,0,1.97,.02,2.93,12.24-2.16,23.04-6.08,32.28-11.65,1.23-.74,2.43-1.51,3.61-2.31,13.84-9.41,23.8-22.85,29.47-39.96-4.71-8.51-13.44-15.01-29.15-15.01Z"/></g><polygon class="cls-1" points="603.36 21.92 608.54 27.1 603.36 32.29 603.36 21.92"/><g><rect class="cls-1" x="148.84" y="282.47" width="3" height="6"/><path class="cls-1" d="M151.84,269.93h-3v-12.54h3v12.54Zm0-25.08h-3v-12.54h3v12.54Zm0-25.08h-3v-12.54h3v12.54Zm0-25.08h-3v-12.54h3v12.54Zm0-25.08h-3v-12.54h3v12.54Zm0-25.08h-3v-12.54h3v12.54Zm0-25.08h-3v-12.54h3v12.54Zm0-25.08h-3v-12.54h3v12.54Z"/><polygon class="cls-1" points="151.84 69.25 148.84 69.25 148.84 61.75 156.34 61.75 156.34 64.75 151.84 64.75 151.84 69.25"/><path class="cls-1" d="M303.42,64.75h-12.26v-3h12.26v3Zm-24.51,0h-12.26v-3h12.26v3Zm-24.51,0h-12.26v-3h12.26v3Zm-24.51,0h-12.26v-3h12.26v3Zm-24.51,0h-12.26v-3h12.26v3Zm-24.51,0h-12.26v-3h12.26v3Z"/><polygon class="cls-1" points="323.18 64.75 315.68 64.75 315.68 61.75 320.18 61.75 320.18 57.25 323.18 57.25 323.18 64.75"/><rect class="cls-1" x="320.18" y="41.15" width="3" height="8.05"/><polygon class="cls-1" points="323.18 33.1 320.18 33.1 320.18 25.6 327.68 25.6 327.68 28.6 323.18 28.6 323.18 33.1"/><rect class="cls-1" x="339.52" y="25.6" width="6.99" height="3"/><rect class="cls-1" x="552.68" y="25.6" width="11.84" height="3"/><rect class="cls-1" x="576.37" y="25.6" width="11.84" height="3"/><path class="cls-1" d="M540.84,25.6h-6.8c1.09,1.1,1.67,1.79,2.76,3h4.04v-3Z"/><rect class="cls-1" x="600.05" y="25.6" width="6" height="3"/></g><path class="cls-1" d="M239.94,131.96c2.74,0,5.58,.45,8.43,1.34,16.22,5.04,18.67,18.49,19.03,22.66-2.14,2.59-8.75,9.32-19.58,9.32-2.87,0-5.88-.48-8.94-1.43-15.36-4.77-18.38-18.17-18.96-22.62,2.43-2.65,9.54-9.27,20.02-9.27m0-4c-15.34,0-24.15,11.96-24.15,11.96,0,0,.69,21.15,21.91,27.74,3.67,1.14,7.04,1.61,10.13,1.61,15.54,0,23.64-12.06,23.64-12.06,0,0,.23-20.87-21.91-27.74-3.44-1.07-6.65-1.52-9.62-1.52h0Z"/><circle class="cls-1" cx="243.63" cy="148.57" r="10.04" transform="translate(-13.78 271.73) rotate(-56.94)"/><path class="cls-1" d="M750.07,165.58l-84.71-84.71c-10.16-10.2-26.66-10.2-36.86,0l-82.58,82.58h37.95c17.98,0,32.56,14.59,32.56,32.56v79.07l12.07,12.07c10.2,10.16,26.7,10.16,36.86,0l84.71-84.71c10.2-10.2,10.2-26.7,0-36.86Zm-98.25,40.44c-12.17,0-22.03-9.86-22.03-22.03s9.86-22.03,22.03-22.03,22.03,9.86,22.03,22.03-9.86,22.03-22.03,22.03Z"/></g></g></svg>