<?xml version="1.0" encoding="UTF-8"?><svg id="Layer_2" xmlns="http://www.w3.org/2000/svg" xmlns:xlink="http://www.w3.org/1999/xlink" viewBox="0 0 736.8 358.88"><defs><style>.cls-1{fill:#0f639d;}.cls-2{fill:url(#linear-gradient-2);}.cls-3{fill:#f4f4f4;}.cls-4,.cls-5{fill:#fff;}.cls-5{stroke:#fff;stroke-width:.25px;}.cls-5,.cls-6{stroke-miterlimit:10;}.cls-7{fill:url(#linear-gradient-6);}.cls-8{fill:url(#linear-gradient-11);}.cls-9{fill:url(#linear-gradient-10);}.cls-6{fill:none;stroke:#000;stroke-width:2px;}.cls-10{fill:#111224;}.cls-11{fill:url(#linear-gradient-5);}.cls-12{fill:url(#linear-gradient-7);}.cls-13{fill:url(#linear-gradient-9);}.cls-14{fill:#050a26;}.cls-15{fill:url(#linear-gradient-3);}.cls-16{fill:url(#linear-gradient);}.cls-17{fill:url(#linear-gradient-4);}.cls-18{fill:url(#linear-gradient-8);}.cls-19{fill:#0089bf;}</style><linearGradient id="linear-gradient" x1="96.28" y1="61.73" x2="96.28" y2="251.98" gradientUnits="userSpaceOnUse"><stop offset="0" stop-color="#0f639d"/><stop offset="1" stop-color="#111224"/></linearGradient><linearGradient id="linear-gradient-2" x1="223.06" y1="172.11" x2="223.06" y2="223.52" xlink:href="#linear-gradient"/><linearGradient id="linear-gradient-3" x1="191.79" y1="169.08" x2="191.79" y2="179.19" xlink:href="#linear-gradient"/><linearGradient id="linear-gradient-4" x1="145.07" y1="92.91" x2="145.07" y2="142.14" xlink:href="#linear-gradient"/><linearGradient id="linear-gradient-5" x1="177.04" y1="181.27" x2="177.04" y2="152.82" xlink:href="#linear-gradient"/><linearGradient id="linear-gradient-6" x1="591.67" y1="207.05" x2="591.67" y2="173.81" xlink:href="#linear-gradient"/><linearGradient id="linear-gradient-7" x1="685.11" y1="207.05" x2="685.11" y2="173.81" gradientUnits="userSpaceOnUse"><stop offset="0" stop-color="#0f639d"/><stop offset=".29" stop-color="#0f4570"/><stop offset=".6" stop-color="#102947"/><stop offset=".85" stop-color="#10182d"/><stop offset="1" stop-color="#111224"/></linearGradient><linearGradient id="linear-gradient-8" x1="216.42" y1="372.74" x2="212.42" y2="294.07" xlink:href="#linear-gradient"/><linearGradient id="linear-gradient-9" x1="309.3" y1="368.02" x2="305.3" y2="289.35" xlink:href="#linear-gradient"/><linearGradient id="linear-gradient-10" x1="382.69" y1="364.29" x2="378.69" y2="285.62" xlink:href="#linear-gradient"/><linearGradient id="linear-gradient-11" x1="451.15" y1="360.8" x2="447.15" y2="282.14" xlink:href="#linear-gradient"/></defs><g id="Layer_1-2"><g><g><path class="cls-3" d="M606.87,223.22c-1.07,0-1.85-.28-2.47-.87-.32-.29-.59-.68-.83-1.17-.11-.24-.22-.46-.33-.69l-.21-.42c-.79-1.61-1.59-3.21-2.39-4.82l-1.02-2.04c-.41-.79-.81-1.6-1.21-2.41-.56-1.12-.6-2.17-.11-2.97,.49-.79,1.45-1.23,2.71-1.23,20.16,0,40.33,0,60.49-.02,.61,0,1.14-.12,1.48-.34,2.67-1.72,5.67-2.56,9.16-2.56,.46,0,.93,.01,1.41,.04,1.3,.07,2.7,.11,4.41,.11,1.14,0,2.28-.02,3.42-.03,1.14-.02,2.28-.03,3.42-.03h.31c1.61,0,2.59,.61,2.99,1.86,.37,1.18-.09,2.25-1.35,3.17-1.9,1.41-4.13,3.1-6.25,4.92-.78,.66-1.54,1.34-2.26,2.02-1.16,1.08-2.18,2.13-3.14,3.2-.33,.38-.64,.77-.94,1.18-.39,.54-.71,1.02-.98,1.46-.67,1.1-1.59,1.62-2.89,1.62h-6.26c-6.45-.01-12.9-.01-19.35-.01h-22.26c-5.18,0-10.36,0-15.54,.02h0Z"/><path class="cls-14" d="M672.14,204.19c.45,0,.91,.01,1.38,.04,1.48,.08,2.96,.11,4.44,.11,2.28,0,4.56-.06,6.83-.06,.11,0,.21,0,.32,0,1.41,0,2.18,.47,2.51,1.51,.3,.97-.07,1.81-1.17,2.61-2.14,1.59-4.26,3.21-6.28,4.94-.78,.66-1.54,1.34-2.28,2.04-1.1,1.03-2.16,2.1-3.17,3.23-.34,.39-.66,.8-.97,1.22-.35,.49-.69,.99-1,1.5-.58,.96-1.34,1.38-2.46,1.38h-6.26c-6.45-.01-12.9-.01-19.35-.01h-12.07c-3.43,0-6.86,0-10.29,0-5.15,0-10.3,0-15.45,.02-.91,0-1.59-.22-2.12-.73-.28-.26-.52-.6-.73-1.03-.17-.37-.36-.73-.54-1.1-.93-1.9-1.88-3.79-2.83-5.69-.19-.39-.39-.78-.58-1.17-.41-.8-.81-1.6-1.21-2.41-1-1.99-.08-3.48,2.15-3.48,20.16,0,40.33,0,60.49-.02,.59,0,1.27-.11,1.75-.42,2.76-1.78,5.7-2.48,8.89-2.48m0-1c-3.59,0-6.68,.86-9.44,2.64-.25,.16-.71,.26-1.21,.26-20.16,.02-40.33,.02-60.49,.02-1.44,0-2.55,.52-3.14,1.47-.58,.95-.55,2.18,.09,3.46,.4,.81,.8,1.61,1.21,2.42,.09,.18,.19,.38,.29,.58,.09,.19,.19,.38,.28,.57l.48,.96c.79,1.58,1.58,3.15,2.35,4.74,.07,.14,.14,.28,.21,.42,.11,.22,.22,.44,.32,.66,.28,.57,.59,1,.96,1.35,.69,.67,1.61,1,2.8,1,5.15-.02,10.3-.02,15.45-.02h5.15s5.15,0,5.15,0h12.07c6.45,0,12.9,0,19.35,.01h6.26c1.47,0,2.56-.61,3.32-1.86,.26-.43,.57-.89,.96-1.44,.32-.44,.62-.81,.91-1.14,.94-1.05,1.95-2.08,3.1-3.16,.73-.69,1.48-1.36,2.24-2.01,2.11-1.81,4.33-3.49,6.23-4.9,1.8-1.31,1.83-2.74,1.53-3.71-.47-1.47-1.63-2.21-3.47-2.21h-.32c-1.14,0-2.28,.01-3.43,.03-1.14,.02-2.27,.03-3.41,.03-1.7,0-3.09-.03-4.38-.11-.49-.03-.97-.04-1.43-.04h0Z"/></g><g><path class="cls-16" d="M3.44,80.88l9.63,22.83,35.88-15.14,18.39,43.57c23.26,55.11,14.2,76.55-4.84,94.65l13.43,31.82c4.18-2.63,8.23-5.75,12.06-9.23h-10.27v-33.36h34.61c2.53-5.68,4.37-11.44,5.36-17.06,18.44,12.1,46.66,17.55,71.44,11.87l-13.43-31.82c-26.39,.07-47.9-7.97-70.98-62.65l-18.39-43.57,3.94-1.66c-29.47-3.82-59.85-.93-86.84,9.76Z"/><polygon class="cls-2" points="229.89 168.34 229.89 189.71 198.84 189.71 209.9 215.91 247.28 200.13 233.86 168.34 229.89 168.34"/><polygon class="cls-15" points="193.77 177.69 193.77 168.34 189.82 168.34 193.77 177.69"/><path class="cls-17" d="M120.5,103.67l13.16,31.18,32.94-13.91v-4.04l3.03-.41h-2.02v-21.71c-4.35-1.84-8.7-3.68-13.08-5.48l-34.03,14.37Z"/><path class="cls-19" d="M197.86,83.04L162.81,0l-37.38,15.78,30.74,72.83-1.64,.69c4.37,1.8,8.73,3.64,13.08,5.48v-11.74h30.25Z"/><path class="cls-19" d="M109.14,26.68L0,72.74l3.44,8.14c26.99-10.68,57.36-13.58,86.84-9.76l31.94-13.48-13.07-30.97Z"/><path class="cls-4" d="M167.61,95.24c-4.26-1.8-9.15-3.93-13.55-5.74l1.1-.46c4.41,1.81,8.19,3.47,12.45,5.28v.92Z"/><path class="cls-4" d="M3.63,81.35l-.38-.9c26.24-10.39,59.61-13.88,87.39-9.48l-1,.43c-28.53-4.28-59.93-.38-86.01,9.94Z"/></g><g><path class="cls-11" d="M176.6,137.01v2.18c.29-.03,.58-.06,.88-.09l-.88-2.09Z"/><path class="cls-19" d="M220.16,106.49h26.16v-13.45h-68.71v13.45h25.88c-1.75,11.61-12.43,17.22-26.89,19.16v11.36l.88,2.09c13.53-1.42,27.36-6.52,34.39-14.1,1.58,1.69,3.5,3.27,5.69,4.71,7.82,5.13,19.03,8.54,29.68,9.48v-13.54c-14.55-2.03-25.33-7.74-27.08-19.16Z"/><polygon class="cls-19" points="224.01 144.99 179.97 144.99 173.47 144.99 173.47 158.34 185.6 158.34 203.77 158.34 203.77 179.71 219.89 179.71 219.89 158.34 229.64 158.34 250.46 158.34 250.46 144.99 224.01 144.99"/></g><path d="M281.51,121.38v9.99h12.32v-9.99h13.37v40.52h-39.15v-40.52h13.45Zm47.36,56.38h-42.93v7.89h43.82v11.04h-57.75v-30.21h56.87v11.28Zm-47.36-26.82h12.32v-8.62h-12.32v8.62Zm33.27-30.45h14.1v15.79h9.91v11.76h-9.91v15.47h-14.1v-43.01Z"/><path d="M427.84,147.02h-78.1v-12.99h78.1v12.99Zm-74.23-36.56c0-5.34,2.21-9.39,6.08-12.25,6.17-4.51,16.49-6.17,29.2-6.17s22.84,1.66,29.1,6.17c3.96,2.86,6.17,6.91,6.17,12.25s-2.21,9.58-6.17,12.43c-6.26,4.42-16.49,6.17-29.1,6.17s-23.03-1.75-29.2-6.17c-3.87-2.86-6.08-6.91-6.08-12.43Zm1.38,41.63h16.12v13.82h52.87v12.89h-68.98v-26.71Zm53.24-41.63c0-1.47-.74-2.67-1.93-3.41-2.67-1.93-8.57-2.58-17.41-2.58s-14.64,.65-17.41,2.58c-1.38,.74-2.12,1.93-2.12,3.41s.74,2.67,2.12,3.59c2.76,1.84,8.47,2.58,17.41,2.58s14.74-.74,17.41-2.58c1.2-.92,1.93-2.12,1.93-3.59Z"/><path class="cls-7" d="M614.33,119.2v71.23h1.51v-2.85h-.07v-2.93c-.01-.37-.01-.72,.01-1.06,.13-2.54,2.03-4.42,4.52-4.47,1.94-.04,3.91-.04,5.85,0,.76,.01,1.47,.2,2.09,.53v-60.45h-13.91Zm-16.86,.55v31.23h-4.97v13.54h4.97v40.15h5.61l.02-.06,2.73-6.83c.55-1.38,1.1-2.76,1.64-4.15,.66-1.68,1.9-2.75,3.54-3.09V119.75h-13.54Zm-7.64,67.51c.83-5.15,1.1-11.42,1.1-17.49v-36.39h3.23v-12.71h-38.04v12.71h3.87v54.07h-4.88v12.52h28.18c4.88,0,9.21-.36,12.34-1.56v-12.07c-1.75,.37-3.68,.74-5.8,.92Zm-12.25-16.94c0,5.89-.09,12.16-.74,17.13h-3.5v-54.07h4.24v36.94Z"/><path class="cls-12" d="M713.43,152.45v-33.25h-16.12v64.29c-2.86,2.49-7.09,3.31-14.09,3.31h-21.89l.62,.84h-.26c.72,.51,1.28,1.26,1.65,2.22l.22,.57h4.75c1.86,0,3.38,.83,4.29,2.34,1.46,2.43,2.92,4.87,4.38,7.3h4.39c7.83,0,12.99-1.11,15.94-3.87v9.3h16.12v-39.6h11.88v-13.45h-11.88Zm-68.53-31.78v13.36h26.43v19.43h-26.43v27.07c3.2-.01,6.39-.02,9.57,0,2.41,.01,3.57,1.7,4.27,2.71,.1,.14,.2,.28,.3,.43l1.89,2.58v-19.62h26.34v-45.96h-42.37Z"/><path d="M157.72,224.55v86.3h-16.12v-40.44h-13.63c-5.52,19.8-18.69,31.04-40.8,35.92v-14.18c19.25-5.62,27.82-20.17,27.82-45.5v-7.27h-27.27v-13.36h43.29v18.79c0,4.23-.18,8.29-.55,12.06h11.14v-32.32h16.12Z"/><path class="cls-18" d="M175.58,238.64v-13.08h45.96v13.08h-15.1v.46c0,14.46,5.62,19.43,16.58,21.55v13.26c-9.86-1.01-19.25-5.16-24.32-11.33-5.25,6.45-15.2,11.24-24.59,12.34v-13.26c10.78-2.12,16.49-7.92,16.49-22.56v-.46h-15.01Zm36.56,60.79c-6.63,6.72-19.25,11.88-35.46,12.43v-12.99c18.05-2.12,27.35-8.47,27.35-19.99v-1.75h16.12v1.75c0,11.51,9.67,17.87,27.45,19.99v12.99c-16.95-.55-29.1-5.8-35.46-12.43Zm34.08-74.88v54.16h-16.12v-54.16h16.12Z"/><path class="cls-13" d="M307.74,265.07h-44.76v-39.51h44.76v39.51Zm24.78,31.41h-49.18v4.05h50.2v11.14h-66.04v-26.34h49v-4.24h-49v-11.24h65.02v26.62Zm-39.79-43.66v-15.01h-14.46v15.01h14.46Zm23.67-28.28h16.12v14.83h11.33v13.35h-11.33v14.09h-16.12v-42.28Z"/><path class="cls-9" d="M350.31,267.24v-9.94h27.89v9.94h-8.3v1.72c0,9.87,2.5,12.8,8.87,14.3v10.23c-5.79-.57-11.3-3.15-14.3-7.01-3.22,4.01-8.94,7.08-14.73,7.8v-10.3c6.44-1.57,8.94-4.86,8.94-14.95v-1.79h-8.37Zm3.36,43.27c0-4.36,1.86-7.51,5.15-9.87,4.94-3.5,12.88-4.79,21.89-4.79s16.95,1.29,21.89,4.79c3.22,2.36,5.15,5.51,5.15,9.87s-1.93,7.51-5.15,9.8c-4.93,3.43-12.87,4.72-21.89,4.72s-16.95-1.29-21.89-4.72c-3.29-2.29-5.15-5.44-5.15-9.8Zm12.3,0c0,1.07,.64,1.93,1.72,2.58,2.29,1.43,6.87,2,13.02,2s10.73-.57,13.02-2c1.14-.64,1.64-1.5,1.64-2.58,0-1.14-.5-2.07-1.64-2.72-2.29-1.43-6.8-2-13.02-2s-10.73,.57-13.02,2c-1.07,.64-1.72,1.57-1.72,2.72Zm25.68-16.67h-10.59v-36.91h10.59v13.3h3.93v-13.73h11.01v38.34h-11.01v-14.23h-3.93v13.23Z"/><path class="cls-8" d="M417.61,257.76c0-13.19,1.64-22.1,6.27-27.01,2.85-3.14,6.84-4.7,11.83-4.7s9.05,1.57,11.83,4.7c4.56,4.92,6.27,13.83,6.27,27.01s-1.71,22.24-6.27,27.16c-2.78,3.06-6.84,4.56-11.83,4.56s-8.98-1.5-11.83-4.56c-4.63-4.92-6.27-13.83-6.27-27.16Zm23.95,0c0-11.19-.78-17.32-2.64-19.89-.86-1-2-1.5-3.21-1.5-1.28,0-2.42,.5-3.21,1.5-1.85,2.57-2.57,8.7-2.57,19.89s.71,17.53,2.57,20.03c.78,1,1.92,1.43,3.21,1.43,1.21,0,2.35-.43,3.21-1.43,1.85-2.49,2.64-8.7,2.64-20.03Zm18.75-31.79h12.47v66.79h-12.47v-66.79Z"/><path class="cls-10" d="M510.94,224.76v16.8h20.74v-16.8h22.5v68.17h-65.87v-68.17h22.63Zm-17.62,100.97c0-9.62,4.47-16.26,12.33-20.6,8.95-5.15,22.36-7.18,37.81-7.18s28.73,2.03,37.68,7.18c7.73,4.34,12.33,10.98,12.33,20.6s-4.61,15.99-12.33,20.33c-8.94,5.15-22.36,7.05-37.68,7.05s-28.87-1.9-37.81-7.05c-7.86-4.34-12.33-11.11-12.33-20.33Zm17.62-51.23h20.74v-14.5h-20.74v14.5Zm5.83,51.23c0,2.03,1.08,3.79,3.12,5.01,4.07,2.44,12.2,3.52,23.58,3.52s19.25-1.08,23.31-3.52c2.17-1.22,3.25-2.98,3.25-5.01,0-2.3-1.08-3.93-3.25-5.42-4.07-2.44-11.79-3.25-23.31-3.25s-19.52,.81-23.58,3.25c-2.03,1.49-3.12,3.12-3.12,5.42Zm50.15-102.46h23.72v26.43h16.67v19.79h-16.67v26.84h-23.72v-73.05Z"/><polygon class="cls-10" points="605.89 321.8 650.48 321.8 650.48 353.24 674.2 353.24 674.2 321.8 719.2 321.8 719.2 302.15 605.89 302.15 605.89 321.8"/><path class="cls-10" d="M674.61,245.5h38.49v-19.79h-101.11v19.79h38.08c-2.58,17.08-18.3,25.34-39.57,28.19v19.92c16.05-1.5,32.52-6.55,43.94-14.21,3.05-2.04,5.74-4.27,7.96-6.67,3.23,3.48,7.48,6.62,12.39,9.35,11.15,6.2,25.73,10.3,39.65,11.53v-19.92c-21.41-2.98-37.27-11.38-39.85-28.19Z"/><g><g><path class="cls-3" d="M658.22,204.53c-8.74-.04-17.48-.05-26.21-.05h-25.63s2.22-5.54,2.22-5.54c.56-1.4,1.12-2.8,1.67-4.21,.36-.91,.93-1.29,1.9-1.29,9.23,0,18.46,0,27.69,0s18.96,0,28.45,0c.83,0,1.36,.27,1.73,.88,1.47,2.44,2.94,4.89,4.4,7.34-.26,0-.52,0-.78,0-.5,0-1,.01-1.5,.01-.63,0-1.26,0-1.88-.04-.21-.01-.43-.02-.64-.02-1.79,0-3.31,.42-4.64,1.28-1.77,1.14-3.75,1.63-6.64,1.63h-.14Zm6.01-3.29c.22,0,.44,0,.65-.01,1.5-.07,2.62-1.21,2.6-2.65-.02-1.42-1.12-2.53-2.57-2.58-.58-.02-1.16-.03-1.74-.03s-1.16,0-1.74,.03c-1.45,.05-2.55,1.16-2.56,2.59-.01,1.42,1.07,2.55,2.51,2.64,.23,.01,.46,.02,.7,.02h.72s1.42,0,1.42,0Zm-23.9-5.27c-.58,0-1.16,0-1.74,.03-1.45,.05-2.55,1.16-2.57,2.58-.02,1.44,1.1,2.58,2.6,2.65,.21,0,.43,.01,.65,.01h1.38s.77,0,.77,0c.23,0,.46,0,.69-.02,1.44-.09,2.52-1.22,2.51-2.63-.01-1.43-1.11-2.54-2.56-2.59-.58-.02-1.16-.03-1.74-.03Zm-11.59,0c-.53,0-1.05,.01-1.58,.04-1.37,.06-2.46,1.19-2.48,2.56-.02,1.42,1.04,2.56,2.49,2.66,.2,.01,.4,.02,.6,.02h1.23c.07-.01,.54,0,.71,0,.21,0,.42,0,.64-.02,1.39-.11,2.43-1.24,2.42-2.62,0-1.38-1.08-2.52-2.45-2.6-.52-.03-1.04-.04-1.56-.04Zm22.84,0c-.54,0-1.07,.01-1.6,.04-1.37,.07-2.45,1.21-2.44,2.6,0,1.38,1.05,2.5,2.43,2.61,.21,.02,.42,.02,.64,.02,.17,0,1.29-.01,1.29-.01,.06,0,.53,.01,.7,.01,.22,0,.43,0,.65-.03,1.36-.13,2.41-1.29,2.38-2.66-.03-1.35-1.08-2.46-2.4-2.54-.54-.03-1.08-.05-1.63-.05Zm-33,5.27c.19,0,.38,0,.57-.02,1.38-.11,2.43-1.23,2.44-2.6,0-1.38-1.06-2.53-2.43-2.62-.48-.03-.95-.04-1.43-.04s-.97,.01-1.45,.05c-1.31,.08-2.37,1.19-2.41,2.53-.04,1.36,1,2.53,2.37,2.67,.19,.02,.38,.03,.58,.03,.15,0,.52,0,.55-.01h1.21Z"/><path class="cls-14" d="M612.17,193.93c9.22,0,18.43,0,27.65,0s18.99,0,28.48,0c.8,0,1.09,.31,1.3,.64,1.32,2.2,2.64,4.39,3.95,6.59-.47,0-.94,.01-1.4,.01-.72,0-1.31-.01-1.85-.04-.22-.01-.44-.02-.66-.02-1.89,0-3.49,.45-4.91,1.36-1.68,1.09-3.58,1.55-6.37,1.55h-.13c-7.52-.04-15.59-.05-26.19-.05-4.19,0-8.39,0-12.58,0-4.11,0-8.22,0-12.33,0l.08-.21,1.31-3.27,.58-1.45c.55-1.38,1.1-2.76,1.64-4.14,.28-.71,.67-.98,1.44-.98h0m4.65,7.8c.16,0,.31,0,.47,0,.03,0,.06,0,.09,0h.33c.14,0,.28,0,.42,0,.15,0,.31,0,.46,0,.2,0,.41,0,.61-.02,1.64-.13,2.89-1.46,2.9-3.09,0-1.65-1.26-3.02-2.9-3.12-.49-.03-.98-.04-1.46-.04s-1,.02-1.48,.05c-1.57,.1-2.83,1.42-2.87,3.02-.04,1.62,1.19,3.02,2.82,3.18,.21,.02,.42,.03,.63,.03m33.79,0c.17,0,.34,0,.52,0,.16,0,.32,0,.48,0h.26c.07,0,.14,0,.22,0,.17,0,.35,0,.52,0,.23,0,.46,0,.69-.03,1.62-.15,2.87-1.54,2.83-3.17-.04-1.61-1.29-2.94-2.87-3.03-.54-.03-1.1-.05-1.66-.05-.53,0-1.08,.01-1.63,.04-1.64,.09-2.92,1.45-2.92,3.1,0,1.64,1.24,2.97,2.89,3.11,.22,.02,.45,.02,.68,.02m-22.84,0c.16,0,.32,0,.49,0,.15,0,.3,0,.45,0h.24c.08,0,.16,0,.23,0,.17,0,.35,0,.52,0,.23,0,.45,0,.68-.02,1.65-.14,2.89-1.48,2.88-3.12,0-1.65-1.29-3.01-2.92-3.09-.52-.03-1.05-.04-1.59-.04s-1.06,.01-1.6,.04c-1.63,.08-2.93,1.42-2.96,3.05-.03,1.69,1.24,3.05,2.95,3.17,.21,.01,.42,.02,.63,.02m34.31,0c.19,0,.38,0,.57,0,.04,0,.08,0,.12,0h.41c.17,0,.34,0,.51,0,.18,0,.36,0,.54,0,.23,0,.45,0,.68-.01,1.77-.08,3.1-1.44,3.08-3.15-.02-1.7-1.33-3.02-3.05-3.07-.58-.02-1.17-.03-1.76-.03s-1.17,0-1.75,.03c-1.72,.06-3.03,1.38-3.05,3.08-.02,1.69,1.27,3.04,2.98,3.14,.24,.01,.48,.02,.73,.02m-22.81,0c.18,0,.36,0,.54,0,.17,0,.34,0,.51,0h.32c.07,0,.14,0,.21,0,.19,0,.38,0,.57,0,.24,0,.48,0,.73-.02,1.71-.1,3-1.45,2.98-3.14-.01-1.67-1.35-3.03-3.04-3.09-.58-.02-1.17-.03-1.75-.03s-1.17,0-1.76,.03c-1.72,.06-3.03,1.38-3.05,3.07-.02,1.72,1.3,3.08,3.07,3.16,.22,.01,.45,.01,.68,.01m-27.1-8.81c-1.19,0-1.94,.53-2.37,1.61-.73,1.87-1.48,3.72-2.22,5.58-.63,1.58-1.26,3.16-1.94,4.86h1.23c8.39,0,16.78,0,25.17,0s17.46,.01,26.18,.05c.05,0,.09,0,.14,0,2.5,0,4.8-.34,6.91-1.71,1.35-.87,2.81-1.2,4.37-1.2,.2,0,.41,0,.61,.02,.63,.03,1.27,.04,1.91,.04,1.01,0,2.02-.02,3.05-.02-.06-.19-.06-.28-.1-.35-1.54-2.58-3.09-5.16-4.64-7.74-.49-.81-1.21-1.13-2.15-1.13h0c-9.49,0-18.99,0-28.48,0s-18.43,0-27.65,0h0Zm4.65,7.8c-.18,0-.35,0-.53-.02-1.12-.11-1.94-1.07-1.92-2.16,.03-1.06,.85-1.98,1.94-2.05,.47-.03,.95-.04,1.42-.04s.94,.01,1.4,.04c1.13,.07,1.96,1.02,1.96,2.11,0,1.1-.85,2.01-1.98,2.1-.18,.01-.35,.02-.53,.02-.29,0-.59-.01-.88-.01h0c-.29,0-.59,.01-.88,.01h0Zm33.79,0c-.2,0-.4,0-.6-.02-1.13-.09-1.97-1.01-1.97-2.11,0-1.1,.84-2.04,1.97-2.1,.52-.03,1.05-.04,1.57-.04s1.07,.01,1.6,.05c1.08,.06,1.9,.99,1.93,2.05,.02,1.09-.81,2.05-1.93,2.15-.2,.02-.4,.02-.6,.02-.33,0-.66-.02-.99-.02h0c-.33,0-.66,.02-.99,.02h0Zm-22.84,0c-.19,0-.37,0-.56-.02-1.18-.08-2.04-1.02-2.02-2.15,.02-1.1,.87-2.02,2.01-2.07,.52-.02,1.03-.04,1.55-.04s1.03,.01,1.54,.04c1.13,.06,1.97,1,1.98,2.1,0,1.1-.84,2.02-1.96,2.12-.2,.02-.4,.02-.6,.02-.33,0-.66-.01-.99-.01h0c-.31,0-.63,.01-.94,.01h0Zm34.31,0c-.22,0-.44,0-.66-.02-1.18-.07-2.05-1-2.04-2.13,.01-1.13,.89-2.05,2.08-2.09,.57-.02,1.15-.03,1.72-.03s1.15,0,1.72,.03c1.19,.04,2.07,.95,2.08,2.09,.01,1.17-.89,2.09-2.12,2.14-.21,0-.42,.01-.63,.01-.35,0-.7,0-1.05,0h0c-.37,0-.73,0-1.1,0h0Zm-22.81,0c-.21,0-.42,0-.63-.01-1.24-.06-2.14-.98-2.12-2.15,.01-1.13,.9-2.05,2.09-2.08,.57-.02,1.15-.03,1.72-.03s1.15,0,1.72,.03c1.19,.04,2.07,.96,2.07,2.09,0,1.13-.86,2.06-2.04,2.13-.22,.01-.44,.02-.66,.02-.37,0-.73-.01-1.1-.01h0c-.35,0-.7,.01-1.05,.01h0Z"/></g><g><path class="cls-3" d="M638.05,191.25l.94-2.57c.56-1.54,1.14-3.14,1.75-4.69,.36-.92,1.23-1.47,2.31-1.47,2.01,0,4.01,0,6.02,0,1.8,0,3.6,0,5.4,.01,1.36,0,2,.94,2.63,1.84,.11,.16,.22,.32,.34,.48l.58,.8h-4.21c-.42,0-.85,0-1.27,0-1.12,.01-1.85,.64-1.86,1.6,0,.44,.14,.82,.42,1.11,.34,.34,.86,.53,1.48,.54h1.53c.69,.02,1.38,.03,2.07,.03,.88,0,1.76-.01,2.65-.05,.07,0,.15,0,.22,0,1.22,0,2,.54,2.44,1.71l.26,.68h-23.69Z"/><path class="cls-14" d="M649.03,183.02c1.81,0,3.62,0,5.43,.01,1.3,0,1.8,1.07,2.56,2.12-.34,0-.62,0-.87,0-.13,0-.25,0-.37,0h-.02c-.66,0-1.32,0-1.98,0-.43,0-.85,0-1.28,0-1.4,.01-2.34,.87-2.36,2.1-.01,1.27,.95,2.14,2.4,2.15,1.2,0,2.41,.03,3.61,.03,.89,0,1.78-.01,2.67-.06,.07,0,.13,0,.19,0,1,0,1.6,.4,1.98,1.39h-22.24c.82-2.23,1.59-4.42,2.44-6.57,.3-.76,1.01-1.15,1.85-1.15,1.99,0,3.99,0,5.98,0m0-1c-1.99,0-3.99,0-5.98,0-1.3,0-2.33,.67-2.77,1.79-.61,1.56-1.2,3.16-1.76,4.71-.23,.63-.46,1.25-.69,1.89l-.5,1.35h25.13l-.52-1.36c-.52-1.37-1.48-2.03-2.91-2.03-.08,0-.16,0-.24,0-.77,.04-1.61,.05-2.62,.05-.68,0-1.37,0-2.06-.02-.52,0-1.03-.01-1.55-.01-.48,0-.88-.14-1.12-.39-.19-.19-.28-.44-.28-.75,.01-1.02,1.05-1.11,1.37-1.11,.42,0,.84,0,1.27,0h.99s.99,0,.99,0h.38s.37,0,.37,0h.5s1.97,0,1.97,0l-1.16-1.59c-.11-.16-.22-.31-.33-.47-.63-.91-1.42-2.05-3.04-2.06-1.81,0-3.63-.01-5.44-.01h0Z"/></g><g><path class="cls-3" d="M617.78,185.58v-.96c0-.33-.01-.63,0-.94,.07-1.48,1.13-2.54,2.57-2.57,.96-.02,1.92-.03,2.88-.03s1.92,0,2.88,.03c1.44,.03,2.49,1.08,2.57,2.56,.02,.31,.01,.61,0,.94v.96h-10.92Z"/><path class="cls-14" d="M623.23,181.59c.96,0,1.92,0,2.87,.03,1.2,.02,2.02,.89,2.08,2.09,.02,.44,0,.88,0,1.38h-9.91c0-.49-.02-.93,0-1.37,.06-1.2,.88-2.07,2.08-2.1,.96-.02,1.92-.03,2.87-.03m0-1c-.96,0-1.93,0-2.89,.03-1.71,.03-2.97,1.29-3.06,3.05-.02,.32-.01,.64,0,.97,0,.15,0,.29,0,.45v1h11.91v-1c0-.16,0-.31,0-.45,0-.34,0-.66,0-.98-.09-1.75-1.35-3-3.06-3.04-.96-.02-1.93-.03-2.89-.03h0Z"/></g><g><rect class="cls-3" x="617.84" y="187.54" width="10.81" height="3.73"/><path class="cls-14" d="M628.15,188.04v2.73h-9.81v-2.73h9.81m1-1h-11.81v4.73h11.81v-4.73h0Z"/></g></g><path d="M736.8,215.56c0,10.25-5.49,20.86-20.01,20.86h-1.71v-8.66c8.78-.61,9.51-4.51,9.51-10.98h-7.68v-18.18h19.88v16.96Z"/><line class="cls-6" x1="308.08" y1="351.7" x2="75.45" y2="351.7"/><g><path d="M217.88,58.75c-.57,0-1.05,.06-1.45,.18-.4,.12-.74,.32-1.02,.62-.28,.29-.52,.7-.71,1.21s-.36,1.17-.5,1.96h-.62c.22-.81,.39-1.53,.5-2.17,.11-.64,.17-1.29,.19-1.96,0-.25,0-.5-.01-.75,0-.25-.03-.5-.06-.77h.4c.11,.3,.28,.52,.52,.65,.24,.13,.68,.2,1.33,.2h10.28c.63,0,1.07-.07,1.31-.2,.24-.13,.41-.35,.52-.65h.4c-.03,.27-.05,.53-.06,.77,0,.25-.01,.49-.01,.75,.02,.66,.08,1.32,.2,1.96,.12,.64,.29,1.37,.51,2.17h-.64c-.14-.79-.31-1.44-.5-1.96s-.42-.92-.7-1.21c-.28-.29-.61-.5-1.01-.62-.4-.12-.88-.18-1.45-.18h-2.66v14.41c0,.36,.05,.67,.14,.91,.09,.25,.25,.44,.47,.59,.22,.15,.51,.26,.88,.32s.82,.09,1.35,.09v.43c-.68-.06-1.34-.11-1.98-.15-.64-.04-1.29-.06-1.94-.06s-1.31,.02-1.94,.06c-.63,.04-1.29,.09-1.98,.15v-.43c1.04-.02,1.78-.16,2.21-.43,.43-.27,.64-.78,.64-1.52v-14.39h-2.64Z"/><path d="M242.85,73.61c0,.36,.05,.65,.14,.84,.09,.2,.25,.34,.45,.44,.21,.1,.46,.15,.76,.17,.3,.02,.66,.02,1.09,.02v.43c-.6-.06-1.18-.11-1.75-.13-.56-.02-1.12-.04-1.67-.04-.51,0-1.02,.01-1.53,.04-.51,.02-1.05,.07-1.6,.13v-.43c.43,0,.78,0,1.06-.02,.28-.02,.5-.07,.66-.17,.17-.09,.28-.24,.34-.44,.06-.2,.09-.48,.09-.84v-6.03c0-.71-.07-1.29-.21-1.75-.14-.45-.32-.81-.55-1.07-.22-.26-.46-.45-.71-.57-.25-.12-.48-.19-.69-.23l-3.85,1.71v7.93c0,.36,.03,.65,.09,.84,.06,.2,.18,.34,.34,.44,.17,.1,.38,.15,.65,.17,.27,.02,.62,.02,1.04,.02v.43c-.55-.06-1.08-.11-1.59-.13-.51-.02-1.02-.04-1.54-.04-.55,0-1.11,.01-1.67,.04-.56,.02-1.14,.07-1.74,.13v-.43c.43,0,.79,0,1.09-.02,.3-.02,.55-.07,.76-.17,.21-.09,.36-.24,.45-.44,.09-.2,.14-.48,.14-.84v-13.46c0-.29-.04-.52-.13-.7-.09-.18-.31-.27-.68-.27h-1.71v-.29c.47,0,.94-.06,1.39-.17,.45-.11,.87-.26,1.26-.45,.39-.19,.74-.41,1.06-.66,.32-.25,.58-.52,.78-.81v8.26l5.15-2.33c.14,0,.37,.05,.68,.15,.31,.1,.62,.31,.94,.62s.59,.74,.83,1.31c.24,.56,.36,1.3,.36,2.22v6.58Z"/><path d="M257.31,72.54c-.43,.65-.89,1.14-1.4,1.48-.51,.34-.94,.6-1.31,.77l-.81,.36c-.27,.13-.49,.22-.65,.29-.17,.06-.31,.11-.44,.14-.13,.03-.24,.05-.34,.06-.1,0-.23,.01-.37,.01-.74,0-1.44-.14-2.08-.42-.64-.28-1.2-.67-1.67-1.19-.47-.51-.85-1.13-1.14-1.85-.29-.72-.44-1.53-.47-2.43-.03-.89,.05-1.67,.25-2.36,.2-.69,.45-1.28,.77-1.78,.32-.5,.66-.91,1.04-1.23,.38-.32,.75-.57,1.12-.72l.83-.36c.54-.24,.94-.39,1.21-.45,.27-.06,.55-.1,.83-.12,.43-.02,.84,.05,1.23,.19s.76,.35,1.09,.63c.33,.28,.62,.61,.85,1,.24,.39,.41,.8,.52,1.25,.08,.33,.2,.65,.37,.94,.17,.29,.37,.48,.61,.56v.59l-8.74,1.5c.06,.74,.2,1.43,.42,2.07,.21,.63,.5,1.18,.87,1.65,.36,.47,.81,.84,1.33,1.1s1.12,.4,1.8,.38c.22,0,.44-.01,.66-.04,.22-.02,.43-.05,.62-.08,.46-.22,.87-.53,1.22-.91,.36-.39,.69-.87,1.01-1.44l.76,.43Zm-2.33-4.91c-.22-1.22-.63-2.18-1.22-2.88-.59-.7-1.33-1.06-2.2-1.06-.47,0-.97,.1-1.47,.31-.32,.3-.57,.64-.76,1.02-.19,.38-.34,.78-.45,1.19-.11,.41-.19,.84-.23,1.27-.04,.44-.06,.85-.06,1.25l6.39-1.09Z"/><path d="M274.88,74.35c.55,0,1.08-.06,1.59-.17,.51-.11,1-.32,1.47-.63,.47-.31,.93-.73,1.38-1.27,.44-.54,.88-1.23,1.31-2.09l.52,.26c-.47,.66-.84,1.42-1.08,2.28-.25,.85-.41,1.7-.49,2.54-.3-.22-.58-.38-.84-.46-.26-.09-.55-.13-.87-.13-.36,0-.7,.05-1.01,.15s-.62,.21-.94,.33c-.32,.12-.65,.23-1.01,.33s-.76,.15-1.22,.15c-.98,0-1.95-.19-2.91-.57-.96-.38-1.81-.94-2.56-1.67-.75-.74-1.36-1.64-1.82-2.72-.46-1.08-.69-2.3-.69-3.68,0-1.2,.14-2.26,.43-3.16,.29-.9,.66-1.68,1.12-2.34s.97-1.19,1.54-1.61c.57-.42,1.13-.74,1.69-.96l1.33-.55c.49-.22,.99-.41,1.48-.57,.5-.16,1.01-.24,1.53-.24,.84,0,1.56,.09,2.17,.27,.61,.18,1.1,.38,1.46,.58,.21-.03,.39-.16,.56-.39,.17-.23,.27-.47,.32-.72h.52c-.09,.3-.16,.61-.2,.91-.04,.31-.06,.62-.06,.94,0,.6,.06,1.18,.17,1.72,.11,.55,.26,1.17,.45,1.86h-.55c-.38-1.35-1.1-2.36-2.16-3.05-1.06-.69-2.34-1.01-3.85-.96-.41,.02-.85,.08-1.31,.19-.46,.11-.94,.3-1.45,.57-1.04,.87-1.81,1.86-2.29,2.97-.48,1.11-.72,2.43-.72,3.97,0,1.12,.18,2.17,.53,3.13,.36,.97,.85,1.8,1.47,2.5,.62,.7,1.36,1.26,2.21,1.66s1.77,.61,2.77,.61Z"/><path d="M291.96,73.56l-4.89,2.09c-.14,0-.37-.06-.68-.19-.31-.13-.63-.35-.95-.68-.32-.32-.61-.76-.84-1.32-.24-.55-.36-1.26-.36-2.11v-6.03c0-.28-.04-.52-.13-.7-.09-.18-.31-.27-.68-.27h-1.45v-.28c.41,0,.83-.04,1.27-.13,.44-.09,.85-.2,1.23-.34,.39-.14,.74-.3,1.04-.49,.31-.18,.53-.36,.68-.53v8.64c0,.65,.08,1.18,.25,1.6,.17,.42,.36,.76,.57,1.01,.21,.25,.43,.43,.65,.53,.22,.1,.4,.16,.52,.18l3.75-1.57v-7.65c0-.28-.04-.52-.13-.7-.09-.18-.31-.27-.68-.27h-1.19v-.28c.35,0,.72-.04,1.12-.13,.4-.09,.78-.2,1.15-.34s.71-.3,1.02-.49c.31-.18,.53-.36,.68-.53v10.61c0,.28,.04,.51,.13,.69,.09,.17,.31,.26,.68,.26h1.19v.29c-.35,0-.72,.05-1.12,.15s-.78,.23-1.15,.37c-.37,.14-.71,.29-1.02,.43s-.53,.25-.68,.33v-2.14Z"/><path d="M301.14,73.61c0,.36,.06,.65,.18,.84,.12,.2,.29,.34,.52,.44,.23,.1,.51,.15,.83,.17,.32,.02,.7,.02,1.13,.02v.43c-.55-.06-1.17-.11-1.85-.13-.68-.02-1.28-.04-1.8-.04-.55,0-1.11,.01-1.67,.04-.56,.02-1.14,.07-1.75,.13v-.43c.43,0,.79,0,1.09-.02,.3-.02,.55-.07,.76-.17,.21-.09,.36-.24,.45-.44,.1-.2,.14-.48,.14-.84v-8.22c0-.28-.04-.51-.13-.69-.09-.17-.31-.26-.68-.26h-1.71v-.29c.95,0,1.83-.12,2.65-.37,.82-.25,1.43-.64,1.84-1.2v2.87l2.16-2.73c.41,0,.83,.06,1.26,.18,.43,.12,.78,.27,1.04,.44,.13,0,.27-.05,.44-.14,.17-.09,.29-.21,.37-.33h.31c-.43,.55-.74,1.14-.94,1.75-.2,.61-.27,1.4-.2,2.36h-.36c-.02-.51-.09-.95-.24-1.32-.14-.37-.32-.68-.52-.94-.21-.25-.43-.45-.68-.59-.25-.14-.48-.25-.7-.31l-1.95,2.52v7.27Z"/><path d="M308.46,71.21c.17,.62,.43,1.15,.76,1.59,.33,.44,.71,.81,1.13,1.09,.42,.28,.86,.5,1.33,.64,.47,.14,.92,.22,1.37,.24,.66,.03,1.19-.06,1.59-.26,.16-.17,.28-.39,.36-.65,.08-.26,.12-.49,.12-.68,0-.47-.07-.88-.21-1.21-.14-.33-.34-.62-.59-.85-.25-.24-.56-.45-.91-.64-.36-.19-.75-.38-1.18-.57-.47-.22-.94-.46-1.39-.7s-.85-.52-1.2-.82-.63-.64-.84-1.02c-.21-.38-.32-.82-.32-1.31,0-.46,.09-.91,.27-1.34,.18-.44,.47-.79,.87-1.06l.69-.45c.29-.17,.62-.3,1.01-.37,.39-.07,.79-.11,1.2-.11,.54,0,1.02,.06,1.44,.17,.42,.11,.73,.23,.94,.36,.13-.03,.25-.12,.37-.26,.12-.14,.19-.29,.23-.45h.33c-.03,.22-.06,.45-.08,.68-.02,.23-.04,.48-.04,.75,0,.84,.11,1.73,.33,2.66h-.33c-.27-.95-.74-1.7-1.41-2.24-.67-.55-1.5-.82-2.48-.82-.27,0-.57,.03-.9,.08-.33,.06-.63,.15-.88,.3-.03,.14-.06,.3-.09,.47-.03,.17-.05,.39-.05,.64,0,.38,.09,.72,.27,1.01,.18,.29,.42,.56,.72,.8,.3,.24,.64,.45,1.02,.64,.38,.19,.77,.37,1.16,.55,.55,.27,1.05,.52,1.48,.76,.44,.24,.8,.5,1.09,.8,.29,.29,.52,.62,.68,.99,.16,.36,.24,.79,.24,1.28,0,.38-.05,.72-.14,1.03s-.21,.58-.36,.81c-.14,.23-.29,.42-.45,.58s-.29,.28-.4,.36l-.69,.45c-.27,.17-.58,.31-.94,.4-.36,.09-.72,.14-1.08,.14-.51,0-1.03-.06-1.57-.17-.54-.11-1.05-.3-1.54-.57-.36,.14-.59,.44-.69,.9h-.4c.06-.27,.11-.54,.14-.81,.03-.27,.05-.55,.05-.83,0-.85-.13-1.84-.38-2.97h.38Z"/><path d="M329.57,72.54c-.43,.65-.89,1.14-1.4,1.48-.51,.34-.94,.6-1.31,.77l-.81,.36c-.27,.13-.49,.22-.65,.29-.17,.06-.31,.11-.44,.14-.13,.03-.24,.05-.34,.06-.1,0-.23,.01-.37,.01-.74,0-1.44-.14-2.08-.42-.64-.28-1.2-.67-1.67-1.19-.47-.51-.85-1.13-1.14-1.85-.29-.72-.44-1.53-.47-2.43-.03-.89,.05-1.67,.25-2.36,.2-.69,.45-1.28,.77-1.78,.32-.5,.66-.91,1.04-1.23,.38-.32,.75-.57,1.12-.72l.83-.36c.54-.24,.94-.39,1.21-.45,.27-.06,.55-.1,.83-.12,.43-.02,.84,.05,1.23,.19s.76,.35,1.09,.63c.33,.28,.62,.61,.85,1,.24,.39,.41,.8,.52,1.25,.08,.33,.2,.65,.37,.94,.17,.29,.37,.48,.61,.56v.59l-8.74,1.5c.06,.74,.2,1.43,.42,2.07,.21,.63,.5,1.18,.87,1.65,.36,.47,.81,.84,1.33,1.1s1.12,.4,1.8,.38c.22,0,.44-.01,.66-.04,.22-.02,.43-.05,.62-.08,.46-.22,.87-.53,1.22-.91,.36-.39,.69-.87,1.01-1.44l.76,.43Zm-2.33-4.91c-.22-1.22-.63-2.18-1.22-2.88-.59-.7-1.33-1.06-2.2-1.06-.47,0-.97,.1-1.47,.31-.32,.3-.57,.64-.76,1.02-.19,.38-.34,.78-.45,1.19-.11,.41-.19,.84-.23,1.27-.04,.44-.06,.85-.06,1.25l6.39-1.09Z"/><path d="M342.41,73.18c0,.28,.04,.51,.13,.69,.09,.17,.31,.26,.68,.26h1.19v.29c-.35,0-.72,.05-1.12,.15-.4,.1-.78,.23-1.15,.37-.37,.14-.71,.29-1.01,.43-.3,.14-.53,.25-.69,.33v-2.07l-4.11,2.04c-.51-.02-1.03-.16-1.57-.44-.54-.28-1.03-.68-1.47-1.21-.44-.53-.8-1.18-1.08-1.94-.28-.76-.42-1.63-.42-2.61,.02-1.16,.18-2.16,.5-3,.32-.85,.75-1.55,1.29-2.1,.55-.55,1.18-.97,1.9-1.23,.72-.27,1.49-.4,2.32-.4,.4,0,.79,.04,1.19,.13,.4,.09,.87,.24,1.42,.46v-3.18c0-.29-.04-.52-.12-.7-.08-.18-.3-.27-.66-.27h-1.71v-.29c.47,0,.93-.06,1.38-.17,.44-.11,.86-.26,1.26-.45,.4-.19,.75-.41,1.07-.66,.32-.25,.58-.52,.78-.81v16.38Zm-1.99-8.12c-.51-.46-1.06-.86-1.67-1.2-.61-.34-1.17-.51-1.67-.51s-.93,.14-1.32,.43c-.39,.28-.72,.66-.99,1.13s-.47,.99-.62,1.57c-.14,.58-.21,1.16-.21,1.75-.02,1.19,.09,2.18,.32,2.99,.23,.81,.51,1.46,.84,1.96,.33,.5,.69,.86,1.07,1.08,.38,.22,.72,.33,1.02,.33l3.23-1.5v-8.03Z"/><path d="M362.73,75.13c-.46,.17-.93,.31-1.4,.39-.47,.09-.92,.13-1.33,.13-.95,0-1.9-.19-2.85-.57-.95-.38-1.8-.94-2.56-1.67-.76-.74-1.38-1.64-1.86-2.72s-.72-2.3-.72-3.68c0-1.27,.17-2.38,.5-3.34,.33-.96,.75-1.78,1.26-2.46,.51-.68,1.05-1.23,1.64-1.66,.59-.43,1.13-.74,1.64-.95l1.33-.5c.46-.19,.92-.32,1.39-.4,.47-.08,.91-.12,1.32-.12,.95,0,1.9,.19,2.86,.58,.96,.39,1.82,.95,2.58,1.69,.76,.74,1.38,1.64,1.86,2.71,.48,1.07,.72,2.29,.72,3.67,0,1.27-.17,2.37-.5,3.32-.33,.95-.75,1.77-1.26,2.45-.51,.68-1.05,1.23-1.64,1.66-.59,.43-1.14,.74-1.66,.95l-1.31,.52Zm.9-.95c.46-.36,.89-.78,1.28-1.23,.4-.46,.74-.98,1.04-1.57,.3-.59,.53-1.24,.7-1.97,.17-.73,.25-1.56,.25-2.49,0-1.22-.18-2.33-.53-3.34-.36-1.01-.85-1.87-1.47-2.59-.63-.72-1.37-1.28-2.24-1.67-.87-.4-1.83-.59-2.87-.59-.38,0-.76,.02-1.14,.07-.38,.05-.77,.13-1.16,.26-.47,.36-.91,.77-1.32,1.22s-.75,.97-1.04,1.56c-.29,.59-.53,1.25-.7,1.98-.17,.74-.26,1.56-.26,2.48,0,1.22,.18,2.34,.55,3.35,.36,1.01,.87,1.88,1.52,2.6,.65,.72,1.42,1.27,2.3,1.66,.89,.39,1.84,.58,2.87,.58,.73,0,1.47-.1,2.23-.31Z"/><path d="M374.65,79.64c0,.44,.04,.79,.13,1.04,.09,.25,.25,.45,.49,.58,.24,.13,.56,.22,.96,.25,.4,.03,.93,.05,1.58,.05v.45c-.87-.08-1.63-.13-2.29-.17-.66-.03-1.28-.05-1.86-.05-.3,0-.58,0-.83,.01s-.5,.02-.74,.04c-.24,.02-.48,.04-.74,.07-.25,.03-.52,.06-.81,.09v-.45c.47,0,.85-.01,1.13-.04,.28-.02,.49-.09,.63-.21,.14-.12,.24-.31,.29-.56,.05-.25,.07-.61,.07-1.07v-14.29c0-.28-.05-.51-.14-.69-.09-.17-.32-.26-.69-.26h-1.66v-.29c.97,0,1.85-.13,2.66-.38s1.42-.66,1.83-1.21v2.26l4.35-2.09c.57,0,1.11,.15,1.63,.45,.51,.3,.97,.7,1.35,1.21,.39,.51,.7,1.09,.94,1.74,.24,.66,.36,1.34,.36,2.05,0,1.06-.16,2.05-.49,2.96-.32,.91-.76,1.7-1.32,2.36-.55,.66-1.2,1.19-1.94,1.57-.74,.38-1.52,.57-2.34,.57-.4,0-.78-.04-1.15-.13-.37-.09-.84-.23-1.39-.44v4.56Zm0-6.17c.51,.46,1.05,.83,1.64,1.12,.59,.29,1.13,.43,1.64,.43s.93-.18,1.32-.53c.39-.36,.72-.81,.99-1.35s.47-1.15,.62-1.8c.14-.66,.21-1.28,.21-1.86,0-.95-.08-1.77-.23-2.46-.15-.69-.36-1.26-.62-1.72-.26-.46-.57-.81-.93-1.06-.36-.25-.75-.39-1.18-.44l-3.47,1.69v8Z"/><path d="M396.38,72.54c-.43,.65-.89,1.14-1.4,1.48-.51,.34-.94,.6-1.31,.77l-.81,.36c-.27,.13-.49,.22-.65,.29-.17,.06-.31,.11-.44,.14-.13,.03-.24,.05-.34,.06-.1,0-.23,.01-.37,.01-.74,0-1.44-.14-2.08-.42-.64-.28-1.2-.67-1.67-1.19-.47-.51-.85-1.13-1.14-1.85-.29-.72-.44-1.53-.47-2.43-.03-.89,.05-1.67,.25-2.36,.2-.69,.45-1.28,.77-1.78,.32-.5,.66-.91,1.04-1.23,.38-.32,.75-.57,1.12-.72l.83-.36c.54-.24,.94-.39,1.21-.45,.27-.06,.55-.1,.83-.12,.43-.02,.84,.05,1.23,.19s.76,.35,1.09,.63c.33,.28,.62,.61,.85,1,.24,.39,.41,.8,.52,1.25,.08,.33,.2,.65,.37,.94,.17,.29,.37,.48,.61,.56v.59l-8.74,1.5c.06,.74,.2,1.43,.42,2.07,.21,.63,.5,1.18,.87,1.65,.36,.47,.81,.84,1.33,1.1s1.12,.4,1.8,.38c.22,0,.44-.01,.66-.04,.22-.02,.43-.05,.62-.08,.46-.22,.87-.53,1.22-.91,.36-.39,.69-.87,1.01-1.44l.76,.43Zm-2.33-4.91c-.22-1.22-.63-2.18-1.22-2.88-.59-.7-1.33-1.06-2.2-1.06-.47,0-.97,.1-1.47,.31-.32,.3-.57,.64-.76,1.02-.19,.38-.34,.78-.45,1.19-.11,.41-.19,.84-.23,1.27-.04,.44-.06,.85-.06,1.25l6.39-1.09Z"/><path d="M402.41,73.61c0,.36,.06,.65,.18,.84,.12,.2,.29,.34,.52,.44,.23,.1,.51,.15,.83,.17,.32,.02,.7,.02,1.13,.02v.43c-.55-.06-1.17-.11-1.85-.13-.68-.02-1.28-.04-1.8-.04-.55,0-1.11,.01-1.67,.04-.56,.02-1.14,.07-1.75,.13v-.43c.43,0,.79,0,1.09-.02,.3-.02,.55-.07,.76-.17,.21-.09,.36-.24,.45-.44,.1-.2,.14-.48,.14-.84v-8.22c0-.28-.04-.51-.13-.69-.09-.17-.31-.26-.68-.26h-1.71v-.29c.95,0,1.83-.12,2.65-.37,.82-.25,1.43-.64,1.84-1.2v2.87l2.16-2.73c.41,0,.83,.06,1.26,.18,.43,.12,.78,.27,1.04,.44,.13,0,.27-.05,.44-.14,.17-.09,.29-.21,.37-.33h.31c-.43,.55-.74,1.14-.94,1.75-.2,.61-.27,1.4-.2,2.36h-.36c-.02-.51-.09-.95-.24-1.32-.14-.37-.32-.68-.52-.94-.21-.25-.43-.45-.68-.59-.25-.14-.48-.25-.7-.31l-1.95,2.52v7.27Z"/><path d="M411.98,75.79c-.51-.11-.93-.29-1.28-.53-.35-.25-.63-.53-.85-.87-.22-.33-.38-.69-.49-1.07s-.15-.76-.15-1.14c0-.44,.06-.87,.17-1.28,.11-.41,.23-.7,.36-.88l6.36-2.14v-1.02c0-.63-.07-1.16-.2-1.58-.13-.42-.29-.76-.46-1.01-.17-.25-.36-.43-.56-.52-.2-.09-.35-.14-.46-.14l-.81,.26c-.87,.27-1.55,.64-2.03,1.13-.48,.48-.92,1.12-1.32,1.91h-.4c.17-.44,.29-.88,.34-1.31,.06-.43,.08-.8,.08-1.12,0-.27-.01-.5-.04-.69-.02-.19-.08-.44-.15-.76h.36c.05,.17,.15,.37,.31,.58,.16,.21,.31,.33,.45,.34l4.04-1.23c.14,0,.37,.06,.68,.19,.31,.13,.63,.35,.95,.68,.32,.32,.61,.76,.84,1.31,.24,.55,.36,1.25,.36,2.1v3.78c0,1.17,.04,2.06,.11,2.67,.07,.61,.21,.93,.42,.96,.16-.09,.38-.28,.66-.56,.28-.28,.56-.6,.83-.96l.26,.21c-.19,.25-.41,.52-.66,.81-.25,.29-.51,.55-.77,.81s-.52,.47-.77,.66c-.25,.19-.47,.32-.66,.38-.21,0-.39-.08-.56-.24-.17-.16-.31-.34-.42-.56-.11-.21-.2-.43-.26-.64-.06-.21-.09-.38-.09-.51-.24,.19-.55,.39-.94,.59-.39,.21-.78,.4-1.19,.58-.4,.18-.79,.34-1.16,.49-.37,.14-.66,.25-.87,.31Zm.9-.97c.51-.17,1.06-.39,1.65-.64,.59-.25,1.12-.54,1.58-.85v-4.89l-4.32,1.54c-.13,.17-.24,.43-.34,.77-.1,.34-.15,.74-.15,1.2,0,.6,.14,1.16,.42,1.69,.28,.52,.67,.92,1.18,1.19Z"/><path d="M423.92,72.19c.16,.46,.44,.89,.83,1.28,.4,.4,.87,.66,1.42,.81-.41,.13-.74,.39-.99,.8-.25,.4-.52,.91-.83,1.51s-.7,1.27-1.18,1.99c-.47,.73-1.14,1.47-1.99,2.23,.52-.7,.93-1.4,1.23-2.1,.3-.7,.48-1.36,.53-1.97s-.02-1.13-.21-1.57c-.2-.44-.53-.73-1.01-.89,.55-.14,1.02-.41,1.39-.81,.37-.4,.64-.82,.8-1.28Z"/></g><g><path d="M330.99,341.48c-.57,0-1.05,.06-1.45,.18-.4,.12-.74,.32-1.02,.62-.28,.29-.52,.7-.71,1.21s-.36,1.17-.5,1.96h-.62c.22-.81,.39-1.53,.5-2.17,.11-.64,.17-1.29,.19-1.96,0-.25,0-.5-.01-.75,0-.25-.03-.5-.06-.77h.4c.11,.3,.28,.52,.52,.65,.24,.13,.68,.2,1.33,.2h10.28c.63,0,1.07-.07,1.31-.2,.24-.13,.41-.35,.52-.65h.4c-.03,.27-.05,.53-.06,.77,0,.25-.01,.49-.01,.75,.02,.66,.08,1.32,.2,1.96,.12,.64,.29,1.37,.51,2.17h-.64c-.14-.79-.31-1.44-.5-1.96s-.42-.92-.7-1.21c-.28-.29-.61-.5-1.01-.62-.4-.12-.88-.18-1.45-.18h-2.66v14.41c0,.36,.05,.67,.14,.91,.09,.25,.25,.44,.47,.59,.22,.15,.51,.26,.88,.32s.82,.09,1.35,.09v.43c-.68-.06-1.34-.11-1.98-.15-.64-.04-1.29-.06-1.94-.06s-1.31,.02-1.94,.06c-.63,.04-1.29,.09-1.98,.15v-.43c1.04-.02,1.78-.16,2.21-.43,.43-.27,.64-.78,.64-1.52v-14.39h-2.64Z"/><path d="M355.97,356.34c0,.36,.05,.65,.14,.84,.09,.2,.25,.34,.45,.44,.21,.1,.46,.15,.76,.17,.3,.02,.66,.02,1.09,.02v.43c-.6-.06-1.18-.11-1.75-.13-.56-.02-1.12-.04-1.67-.04-.51,0-1.02,.01-1.53,.04-.51,.02-1.05,.07-1.6,.13v-.43c.43,0,.78,0,1.06-.02,.28-.02,.5-.07,.66-.17,.17-.09,.28-.24,.34-.44,.06-.2,.09-.48,.09-.84v-6.03c0-.71-.07-1.29-.21-1.75-.14-.45-.32-.81-.55-1.07-.22-.26-.46-.45-.71-.57-.25-.12-.48-.19-.69-.23l-3.85,1.71v7.93c0,.36,.03,.65,.09,.84,.06,.2,.18,.34,.34,.44,.17,.1,.38,.15,.65,.17,.27,.02,.62,.02,1.04,.02v.43c-.55-.06-1.08-.11-1.59-.13-.51-.02-1.02-.04-1.54-.04-.55,0-1.11,.01-1.67,.04-.56,.02-1.14,.07-1.74,.13v-.43c.43,0,.79,0,1.09-.02,.3-.02,.55-.07,.76-.17,.21-.09,.36-.24,.45-.44,.09-.2,.14-.48,.14-.84v-13.46c0-.29-.04-.52-.13-.7-.09-.18-.31-.27-.68-.27h-1.71v-.29c.47,0,.94-.06,1.39-.17,.45-.11,.87-.26,1.26-.45,.39-.19,.74-.41,1.06-.66,.32-.25,.58-.52,.78-.81v8.26l5.15-2.33c.14,0,.37,.05,.68,.15,.31,.1,.62,.31,.94,.62s.59,.74,.83,1.31c.24,.56,.36,1.3,.36,2.22v6.58Z"/><path d="M370.43,355.27c-.43,.65-.89,1.14-1.4,1.48-.51,.34-.94,.6-1.31,.77l-.81,.36c-.27,.13-.49,.22-.65,.29-.17,.06-.31,.11-.44,.14-.13,.03-.24,.05-.34,.06-.1,0-.23,.01-.37,.01-.74,0-1.44-.14-2.08-.42-.64-.28-1.2-.67-1.67-1.19-.47-.51-.85-1.13-1.14-1.85-.29-.72-.44-1.53-.47-2.43-.03-.89,.05-1.67,.25-2.36,.2-.69,.45-1.28,.77-1.78,.32-.5,.66-.91,1.04-1.23,.38-.32,.75-.57,1.12-.72l.83-.36c.54-.24,.94-.39,1.21-.45,.27-.06,.55-.1,.83-.12,.43-.02,.84,.05,1.23,.19s.76,.35,1.09,.63c.33,.28,.62,.61,.85,1,.24,.39,.41,.8,.52,1.25,.08,.33,.2,.65,.37,.94,.17,.29,.37,.48,.61,.56v.59l-8.74,1.5c.06,.74,.2,1.43,.42,2.07,.21,.63,.5,1.18,.87,1.65,.36,.47,.81,.84,1.33,1.1s1.12,.4,1.8,.38c.22,0,.44-.01,.66-.04,.22-.02,.43-.05,.62-.08,.46-.22,.87-.53,1.22-.91,.36-.39,.69-.87,1.01-1.44l.76,.43Zm-2.33-4.91c-.22-1.22-.63-2.18-1.22-2.88-.59-.7-1.33-1.06-2.2-1.06-.47,0-.97,.1-1.47,.31-.32,.3-.57,.64-.76,1.02-.19,.38-.34,.78-.45,1.19-.11,.41-.19,.84-.23,1.27-.04,.44-.06,.85-.06,1.25l6.39-1.09Z"/><path d="M381.56,358.03c-.4,0-.87,.02-1.41,.06-.55,.04-1.16,.09-1.84,.15v-.43c.73-.02,1.28-.15,1.65-.42,.37-.26,.56-.77,.56-1.53v-13.04c0-.76-.17-1.27-.52-1.53-.35-.26-.89-.4-1.61-.42v-.45c1.38,.14,2.44,.21,3.18,.21,.66,0,1.3-.02,1.91-.05,.61-.03,1.25-.09,1.94-.17v.45c-.54,0-.99,.03-1.34,.09-.36,.06-.64,.17-.85,.31-.21,.14-.36,.34-.45,.58-.09,.25-.13,.55-.13,.91v14.44h3.59c.76,0,1.37-.07,1.84-.21,.47-.14,.85-.4,1.14-.76,.29-.36,.54-.86,.74-1.5,.2-.63,.42-1.45,.65-2.45h.55c-.14,.52-.26,.99-.34,1.39-.09,.4-.15,.77-.2,1.1-.05,.33-.08,.66-.11,.97-.02,.32-.04,.65-.04,1s.02,.67,.06,1.02c.04,.35,.11,.71,.23,1.09h-.5c-.05-.19-.15-.34-.3-.45-.15-.11-.33-.2-.55-.26-.21-.06-.45-.1-.71-.12-.26-.02-.52-.02-.77-.02h-6.34Z"/><path d="M396.78,356.34c0,.36,.03,.65,.09,.84,.06,.2,.18,.34,.34,.44,.17,.1,.38,.15,.65,.17,.27,.02,.62,.02,1.04,.02v.43c-.54-.06-1.06-.11-1.58-.13-.51-.02-1.03-.04-1.56-.04-.55,0-1.12,.01-1.69,.04-.57,.02-1.16,.07-1.76,.13v-.43c.43,0,.79,0,1.09-.02,.3-.02,.55-.07,.76-.17,.21-.09,.36-.24,.45-.44,.09-.2,.14-.48,.14-.84v-8.22c0-.28-.04-.51-.13-.69-.09-.17-.31-.26-.68-.26h-1.71v-.29c.95,0,1.84-.13,2.66-.38,.82-.25,1.44-.66,1.85-1.21v11.04Zm-1.09-16.24c.17,.36,.43,.72,.76,1.06,.33,.34,.75,.57,1.26,.7-.51,.06-.92,.27-1.25,.63-.32,.36-.58,.73-.77,1.13-.19-.4-.45-.77-.77-1.13-.32-.36-.74-.57-1.25-.63,.51-.13,.93-.36,1.26-.7,.33-.34,.59-.69,.76-1.06Z"/><path d="M403.34,358.53c-.51-.11-.93-.29-1.28-.53-.35-.25-.63-.53-.85-.87-.22-.33-.38-.69-.49-1.07s-.15-.76-.15-1.14c0-.44,.06-.87,.17-1.28,.11-.41,.23-.7,.36-.88l6.36-2.14v-1.02c0-.63-.07-1.16-.2-1.58-.13-.42-.29-.76-.46-1.01-.17-.25-.36-.43-.56-.52-.2-.09-.35-.14-.46-.14l-.81,.26c-.87,.27-1.55,.64-2.03,1.13-.48,.48-.92,1.12-1.32,1.91h-.4c.17-.44,.29-.88,.34-1.31,.06-.43,.08-.8,.08-1.12,0-.27-.01-.5-.04-.69-.02-.19-.08-.44-.15-.76h.36c.05,.17,.15,.37,.31,.58,.16,.21,.31,.33,.45,.34l4.04-1.23c.14,0,.37,.06,.68,.19,.31,.13,.63,.35,.95,.68,.32,.32,.61,.76,.84,1.31,.24,.55,.36,1.25,.36,2.1v3.78c0,1.17,.04,2.06,.11,2.67,.07,.61,.21,.93,.42,.96,.16-.09,.38-.28,.66-.56,.28-.28,.56-.6,.83-.96l.26,.21c-.19,.25-.41,.52-.66,.81-.25,.29-.51,.55-.77,.81s-.52,.47-.77,.66c-.25,.19-.47,.32-.66,.38-.21,0-.39-.08-.56-.24-.17-.16-.31-.34-.42-.56-.11-.21-.2-.43-.26-.64-.06-.21-.09-.38-.09-.51-.24,.19-.55,.39-.94,.59-.39,.21-.78,.4-1.19,.58-.4,.18-.79,.34-1.16,.49-.37,.14-.66,.25-.87,.31Zm.9-.97c.51-.17,1.06-.39,1.65-.64,.59-.25,1.12-.54,1.58-.85v-4.89l-4.32,1.54c-.13,.17-.24,.43-.34,.77-.1,.34-.15,.74-.15,1.2,0,.6,.14,1.16,.42,1.69,.28,.52,.67,.92,1.18,1.19Z"/><path d="M416.82,356.34c0,.36,.06,.65,.18,.84,.12,.2,.29,.34,.52,.44,.23,.1,.51,.15,.83,.17,.32,.02,.7,.02,1.13,.02v.43c-.55-.06-1.17-.11-1.85-.13-.68-.02-1.28-.04-1.8-.04-.55,0-1.11,.01-1.67,.04-.56,.02-1.14,.07-1.75,.13v-.43c.43,0,.79,0,1.09-.02,.3-.02,.55-.07,.76-.17,.21-.09,.36-.24,.45-.44,.1-.2,.14-.48,.14-.84v-8.22c0-.28-.04-.51-.13-.69-.09-.17-.31-.26-.68-.26h-1.71v-.29c.95,0,1.83-.12,2.65-.37,.82-.25,1.43-.64,1.84-1.2v2.87l2.16-2.73c.41,0,.83,.06,1.26,.18,.43,.12,.78,.27,1.04,.44,.13,0,.27-.05,.44-.14,.17-.09,.29-.21,.37-.33h.31c-.43,.55-.74,1.14-.94,1.75-.2,.61-.27,1.4-.2,2.36h-.36c-.02-.51-.09-.95-.24-1.32-.14-.37-.32-.68-.52-.94-.21-.25-.43-.45-.68-.59-.25-.14-.48-.25-.7-.31l-1.95,2.52v7.27Z"/><path d="M440.54,352.07h-6.46l-1.52,4.13c-.08,.27-.12,.46-.12,.57,0,.33,.18,.58,.53,.75,.36,.17,1.01,.27,1.96,.3v.43c-.59-.05-1.16-.09-1.73-.14-.57-.05-1.08-.07-1.54-.07-.41,0-.89,.02-1.44,.07-.55,.05-1.1,.09-1.65,.14v-.43c.76-.03,1.38-.16,1.85-.39,.47-.23,.82-.62,1.04-1.18l6.29-16.19,6.81,16c.11,.25,.23,.49,.37,.7,.13,.21,.31,.4,.53,.56,.22,.16,.51,.28,.85,.37,.35,.09,.78,.13,1.31,.13v.43c-.7-.06-1.34-.11-1.92-.15-.59-.04-1.25-.06-1.99-.06-.55,0-1.18,.02-1.88,.07-.7,.05-1.32,.09-1.88,.14v-.43c1.57,0,2.35-.34,2.35-1.02,0-.22-.07-.49-.21-.81l-1.57-3.92Zm-6.15-.88h5.79l-3.02-7.55-2.78,7.55Z"/><path d="M452.7,356.34c0,.36,.06,.65,.18,.84,.12,.2,.29,.34,.52,.44,.23,.1,.51,.15,.83,.17,.32,.02,.7,.02,1.13,.02v.43c-.55-.06-1.17-.11-1.85-.13-.68-.02-1.28-.04-1.8-.04-.55,0-1.11,.01-1.67,.04-.56,.02-1.14,.07-1.75,.13v-.43c.43,0,.79,0,1.09-.02,.3-.02,.55-.07,.76-.17,.21-.09,.36-.24,.45-.44,.1-.2,.14-.48,.14-.84v-8.22c0-.28-.04-.51-.13-.69-.09-.17-.31-.26-.68-.26h-1.71v-.29c.95,0,1.83-.12,2.65-.37,.82-.25,1.43-.64,1.84-1.2v2.87l2.16-2.73c.41,0,.83,.06,1.26,.18,.43,.12,.78,.27,1.04,.44,.13,0,.27-.05,.44-.14,.17-.09,.29-.21,.37-.33h.31c-.43,.55-.74,1.14-.94,1.75-.2,.61-.27,1.4-.2,2.36h-.36c-.02-.51-.09-.95-.24-1.32-.14-.37-.32-.68-.52-.94-.21-.25-.43-.45-.68-.59-.25-.14-.48-.25-.7-.31l-1.95,2.52v7.27Z"/><path d="M464.95,350.76l4.56,5.39c.25,.3,.47,.55,.66,.75,.19,.2,.4,.36,.62,.5,.22,.13,.47,.23,.76,.3,.28,.06,.66,.1,1.12,.12v.43c-.43-.05-.88-.09-1.37-.12-.48-.03-1-.05-1.55-.05-.62,0-1.22,.01-1.8,.04-.59,.02-1.11,.07-1.57,.13v-.43c.6,0,1.02-.03,1.26-.08,.24-.06,.36-.16,.36-.32,0-.11-.08-.26-.24-.44-.16-.18-.35-.41-.57-.68l-4.04-4.68v4.72c0,.36,.02,.65,.07,.84,.05,.2,.14,.34,.27,.44,.13,.1,.32,.15,.55,.17,.23,.02,.53,.02,.91,.02v.43c-.47-.05-.94-.09-1.4-.12-.46-.03-.93-.05-1.4-.05-.54-.03-1.09-.03-1.65,.01-.56,.04-1.16,.09-1.79,.15v-.43c.43,0,.79,0,1.09-.02,.3-.02,.55-.07,.76-.17,.21-.09,.36-.24,.45-.44,.09-.2,.14-.48,.14-.84v-13.46c0-.29-.04-.52-.13-.7-.09-.18-.31-.27-.68-.27h-1.71v-.29c.47,0,.94-.06,1.39-.17,.45-.11,.87-.26,1.27-.45,.4-.19,.75-.41,1.07-.66,.32-.25,.58-.52,.78-.81v11.9l3.97-3.4c.38-.35,.62-.63,.72-.83,.1-.21,.15-.39,.15-.55s-.11-.28-.32-.37c-.21-.09-.57-.13-1.06-.13v-.43c.47,.08,.94,.13,1.39,.15,.45,.02,.91,.04,1.37,.04,.43,0,.83-.02,1.2-.05,.37-.03,.76-.08,1.15-.14v.43c-.44,0-.84,.06-1.2,.19-.36,.13-.69,.29-1.01,.5-.32,.21-.62,.44-.9,.7-.28,.26-.58,.53-.88,.8l-2.78,2.42Z"/></g><g><path d="M655.31,211.12c-8.77,0-16.96,3.27-25.17,6.26-8.25,3.01-16.52,5.75-25.39,4.61,.53,.51,1.21,.73,2.12,.73,8.58-.03,17.16-.02,25.73-.02,1.85-.85,3.73-1.6,5.62-2.29,7.89-2.89,16.1-4.49,24.35-5.06-1.64-2.54-4.33-4.22-7.27-4.22Z"/><path class="cls-1" d="M600.07,213c.2,.39,.39,.78,.59,1.17,.95,1.89,1.9,3.78,2.83,5.69,.18,.37,.37,.73,.54,1.1,.21,.43,.45,.77,.72,1.03,8.88,1.14,17.14-1.6,25.39-4.61-9.63-3.51-19.31-6.27-30.08-4.38Z"/><path class="cls-3" d="M687.62,205.8c-.33-1.04-1.1-1.52-2.5-1.52-3.87,0-7.74,.17-11.6-.05-3.72-.21-7.12,.41-10.26,2.44-.48,.31-1.16,.42-1.75,.42-20.16,.02-40.33,.02-60.49,.02-2.23,0-3.14,1.49-2.15,3.48,.4,.8,.8,1.61,1.21,2.41,10.77-1.89,20.45,.87,30.08,4.38,8.21-2.99,16.4-6.26,25.17-6.26,2.94,0,5.63,1.69,7.27,4.22,5.11-.35,10.24-.32,15.31,.03,.74-.7,1.5-1.38,2.28-2.04,2.02-1.73,4.14-3.34,6.29-4.93,1.09-.81,1.47-1.64,1.16-2.61Z"/><path class="cls-19" d="M662.58,215.35c-8.25,.57-16.47,2.17-24.35,5.06-1.89,.69-3.77,1.44-5.62,2.29,1.96,0,3.92,0,5.89,0,1.77,0,3.54,0,5.32,0,.29,0,.58,0,.88,0,6.45,0,12.9,0,19.35,0,2.09,0,4.17,0,6.26,0,1.12,0,1.88-.42,2.46-1.38,.31-.51,.65-1.01,1-1.5,.31-.42,.63-.83,.97-1.22,1.01-1.14,2.07-2.21,3.17-3.24-5.07-.36-10.2-.38-15.31-.03Z"/></g><path d="M446.46,109.99c0-12.87,5.18-23.08,14.2-30.18,10.21-8.14,25.45-12.13,43.94-12.13s33.59,4,43.79,12.13c9.02,7.1,14.35,17.31,14.35,30.18s-5.33,23.38-14.35,30.48c-7.69,5.92-18.35,9.77-30.92,11.39v26.63h48.82v21.16h-123.69v-21.16h48.97v-26.63c-12.72-1.63-23.23-5.47-30.92-11.39-9.03-7.1-14.2-17.31-14.2-30.48Zm25.89,0c0,6.36,2.37,11.24,6.95,14.79,5.47,4.29,14.2,6.51,25.3,6.51s19.68-2.22,25.15-6.51c4.59-3.55,6.95-8.43,6.95-14.79s-2.37-10.95-6.95-14.5c-5.47-4.44-14.2-6.51-25.15-6.51s-19.83,2.07-25.3,6.51c-4.59,3.55-6.95,8.43-6.95,14.5Z"/><g><g><rect class="cls-4" x="499.37" y="225.33" width="1" height="2"/><rect class="cls-4" x="499.37" y="231.52" width="1" height="4.19"/><polygon class="cls-4" points="500.37 248.29 499.37 248.29 499.37 252.48 500.37 252.48 500.37 251.83 503.87 251.83 503.87 250.83 500.37 250.83 500.37 248.29"/><rect class="cls-4" x="499.37" y="239.91" width="1" height="4.19"/><rect class="cls-4" x="499.37" y="256.68" width="1" height="4.19"/><rect class="cls-4" x="499.37" y="273.45" width="1" height="4.19"/><rect class="cls-4" x="499.37" y="265.06" width="1" height="4.19"/><polygon class="cls-4" points="500.37 281.83 499.37 281.83 499.37 284.33 501.87 284.33 501.87 283.33 500.37 283.33 500.37 281.83"/><rect class="cls-4" x="532.2" y="283.33" width="4.33" height="1"/><rect class="cls-4" x="506.2" y="283.33" width="4.33" height="1"/><rect class="cls-4" x="514.87" y="283.33" width="4.33" height="1"/><rect class="cls-4" x="523.53" y="283.33" width="4.33" height="1"/><polygon class="cls-4" points="542.37 283.33 540.87 283.33 540.87 284.33 543.37 284.33 543.37 281.83 542.37 281.83 542.37 283.33"/><rect class="cls-4" x="542.37" y="258.59" width="1" height="3.87"/><rect class="cls-4" x="542.37" y="266.34" width="1" height="3.87"/><rect class="cls-4" x="542.37" y="274.09" width="1" height="3.87"/><rect class="cls-4" x="542.37" y="244.97" width="1" height="2"/><rect class="cls-4" x="523.87" y="250.83" width="4" height="1"/><rect class="cls-4" x="531.87" y="250.83" width="4" height="1"/><polygon class="cls-4" points="542.87 250.83 539.87 250.83 539.87 251.83 542.37 251.83 542.37 254.71 543.37 254.71 543.37 250.84 542.87 250.84 542.87 250.83"/><rect class="cls-4" x="507.87" y="250.83" width="4" height="1"/><rect class="cls-4" x="515.87" y="250.83" width="4" height="1"/></g><g><polygon class="cls-4" points="544.32 239.37 544.07 239.12 542.86 240.33 541.66 239.12 541.41 239.37 542.62 240.58 541.41 241.79 541.66 242.04 542.86 240.83 544.07 242.04 544.32 241.79 543.11 240.58 544.32 239.37"/><path class="cls-4" d="M544.07,242.22l-1.21-1.21-1.21,1.21-.43-.43,1.21-1.21-1.21-1.21,.43-.43,1.21,1.21,1.21-1.21,.43,.43-1.21,1.21,1.21,1.21-.43,.43Zm-1.21-1.56l1.21,1.21,.07-.07-1.21-1.21,1.21-1.21-.07-.07-1.21,1.21-1.21-1.21-.07,.07,1.21,1.21-1.21,1.21,.07,.07,1.21-1.21Z"/></g></g><g><polygon class="cls-5" points="600.91 258.59 600.66 258.34 599.45 259.55 598.24 258.34 597.99 258.59 599.2 259.8 597.99 261.01 598.24 261.26 599.45 260.05 600.66 261.26 600.91 261.01 599.7 259.8 600.91 258.59"/><path class="cls-4" d="M595.75,260.3h-4v-1h4v1Zm-8,0h-4v-1h4v1Zm-8.15-.83c-1.33-.99-1.52-2.55-1.52-3.39,0-.27,.02-.44,.02-.44v-.17s1,0,1,0v.23c0,.07-.02,.19-.02,.38,0,.65,.15,1.86,1.12,2.59l-.6,.8Zm-.51-8h-1v-4h1v4Zm0-8h-1v-4h1v4Zm0-8h-1v-4h1v4Zm0-8h-1v-4h1v4Z"/><path class="cls-4" d="M579.1,296.52h-1v-4h1v4Zm0-8h-1v-4h1v4Zm0-8h-1v-4h1v4Zm0-8h-1v-4h1v4Zm0-8h-1v-3.26h1v3.26Z"/></g><g><path class="cls-4" d="M663.04,340.82h-1v-1.99h1v1.99Zm0-5.99h-1v-4h1v4Zm0-8h-1v-4h1v4Zm-1.28-7.86c-.29-1.23-.82-2.39-1.57-3.45l.82-.58c.82,1.16,1.4,2.44,1.73,3.79l-.97,.23Zm-4.29-6.03c-1.07-.61-2.31-.93-3.57-.93v-1s0,0,0,0c1.43,0,2.84,.37,4.06,1.06l-.49,.87Zm-7.58-.93h-4v-1h4v1Zm-8,0h-4v-1h4v1Zm-8,0h-4v-1h4v1Zm-8,0h-4v-1h4v1Zm-8,0h-4v-1h4v1Zm-8,0h-4v-1h4v1Z"/><polygon class="cls-5" points="664 344.02 663.75 343.77 662.55 344.98 661.34 343.77 661.09 344.02 662.3 345.23 661.09 346.44 661.34 346.69 662.55 345.48 663.75 346.69 664 346.44 662.8 345.23 664 344.02"/><path class="cls-4" d="M719.2,312.02h-.3v-1h.3v1Zm-4.3,0h-4v-1h4v1Zm-8,0h-4v-1h4v1Zm-8,0h-4v-1h4v1Zm-8,0h-4v-1h4v1Zm-8,0h-4v-1h4v1Zm-8,0h-4v-1h4v1Z"/></g></g></g></svg>