<?xml version="1.0" encoding="UTF-8"?><svg id="Layer_2" xmlns="http://www.w3.org/2000/svg" viewBox="0 0 736.8 362.28"><defs><style>.cls-1{fill:#fff;}.cls-2{fill:none;stroke:#fff;stroke-miterlimit:10;stroke-width:2px;}</style></defs><g id="_이어_1"><g><path class="cls-1" d="M167.61,83.04h30.25L162.81,0l-37.38,15.78,30.74,72.83-35.67,15.06,13.16,31.18,32.94-13.91v-4.04l3.03-.41h-2.02v-33.45Zm22.21,85.3l3.95,9.35v-9.35h-3.95Zm44.04,0h-3.97v21.37h-31.05l11.06,26.2,37.38-15.78-13.42-31.79Z"/><path class="cls-1" d="M189.13,210.83c-24.78,5.68-53,.23-71.44-11.87-.99,5.62-2.83,11.38-5.36,17.06h-34.61v33.36h10.27c-3.83,3.48-7.88,6.6-12.06,9.23l-13.43-31.82c19.04-18.1,28.1-39.54,4.84-94.65l-18.39-43.57-35.88,15.14L0,72.74,109.14,26.68l13.07,30.97-35.88,15.14,18.39,43.57c23.08,54.68,44.59,62.72,70.98,62.65l13.43,31.82Z"/><g><path class="cls-1" d="M176.6,137.01v2.18c.29-.03,.58-.06,.88-.09l-.88-2.09Z"/><path class="cls-1" d="M220.16,106.49h26.16v-13.45h-68.71v13.45h25.88c-1.75,11.61-12.43,17.22-26.89,19.16v11.36l.88,2.09c13.53-1.42,27.36-6.52,34.39-14.1,1.58,1.69,3.5,3.27,5.69,4.71,7.82,5.13,19.03,8.54,29.68,9.48v-13.54c-14.55-2.03-25.33-7.74-27.08-19.16Z"/><polygon class="cls-1" points="224.01 144.99 179.97 144.99 173.47 144.99 173.47 158.34 185.6 158.34 203.77 158.34 203.77 179.71 219.89 179.71 219.89 158.34 229.64 158.34 250.46 158.34 250.46 144.99 224.01 144.99"/></g><path class="cls-1" d="M281.51,121.38v9.99h12.32v-9.99h13.37v40.52h-39.15v-40.52h13.45Zm47.36,56.38h-42.93v7.89h43.82v11.04h-57.75v-30.21h56.87v11.28Zm-47.36-26.82h12.32v-8.62h-12.32v8.62Zm33.27-30.45h14.1v15.79h9.91v11.76h-9.91v15.47h-14.1v-43.01Z"/><path class="cls-1" d="M427.84,147.02h-78.1v-12.99h78.1v12.99Zm-74.23-36.56c0-5.34,2.21-9.39,6.08-12.25,6.17-4.51,16.49-6.17,29.2-6.17s22.84,1.66,29.1,6.17c3.96,2.86,6.17,6.91,6.17,12.25s-2.21,9.58-6.17,12.43c-6.26,4.42-16.49,6.17-29.1,6.17s-23.03-1.75-29.2-6.17c-3.87-2.86-6.08-6.91-6.08-12.43Zm1.38,41.63h16.12v13.82h52.87v12.89h-68.98v-26.71Zm53.24-41.63c0-1.47-.74-2.67-1.93-3.41-2.67-1.93-8.57-2.58-17.41-2.58s-14.64,.65-17.41,2.58c-1.38,.74-2.12,1.93-2.12,3.41s.74,2.67,2.12,3.59c2.76,1.84,8.47,2.58,17.41,2.58s14.74-.74,17.41-2.58c1.2-.92,1.93-2.12,1.93-3.59Z"/><path class="cls-1" d="M446.46,109.99c0-12.87,5.18-23.08,14.2-30.18,10.21-8.14,25.45-12.13,43.94-12.13s33.59,4,43.79,12.13c9.02,7.1,14.35,17.31,14.35,30.18s-5.33,23.38-14.35,30.48c-7.69,5.92-18.35,9.77-30.92,11.39v26.63h48.82v21.16h-123.69v-21.16h48.97v-26.63c-12.72-1.63-23.23-5.47-30.92-11.39-9.03-7.1-14.2-17.31-14.2-30.48Zm25.89,0c0,6.36,2.37,11.24,6.95,14.79,5.47,4.29,14.2,6.51,25.3,6.51s19.68-2.22,25.15-6.51c4.59-3.55,6.95-8.43,6.95-14.79s-2.37-10.95-6.95-14.5c-5.47-4.44-14.2-6.51-25.15-6.51s-19.83,2.07-25.3,6.51c-4.59,3.55-6.95,8.43-6.95,14.5Z"/><path class="cls-1" d="M614.33,119.2v71.23h1.51v-2.85h-.07v-2.93c-.01-.37-.01-.72,.01-1.06,.13-2.54,2.03-4.42,4.52-4.47,1.94-.04,3.91-.04,5.85,0,.76,.01,1.47,.2,2.09,.53v-60.45h-13.91Zm-16.86,.55v31.23h-4.97v13.54h4.97v40.15h5.61l.02-.06,2.73-6.83c.55-1.38,1.1-2.76,1.64-4.15,.66-1.68,1.9-2.75,3.54-3.09V119.75h-13.54Zm-7.64,67.51c.83-5.15,1.1-11.42,1.1-17.49v-36.39h3.23v-12.71h-38.04v12.71h3.87v54.07h-4.88v12.52h28.18c4.88,0,9.21-.36,12.34-1.56v-12.07c-1.75,.37-3.68,.74-5.8,.92Zm-12.25-16.94c0,5.89-.09,12.16-.74,17.13h-3.5v-54.07h4.24v36.94Z"/><path class="cls-1" d="M713.43,152.45v-33.25h-16.12v64.29c-2.86,2.49-7.09,3.31-14.09,3.31h-21.89l.62,.84h-.26c.72,.51,1.28,1.26,1.65,2.22l.22,.57h4.75c1.86,0,3.38,.83,4.29,2.34,1.46,2.43,2.92,4.87,4.38,7.3h4.39c7.83,0,12.99-1.11,15.94-3.87v9.3h16.12v-39.6h11.88v-13.45h-11.88Zm-68.53-31.78v13.36h26.43v19.43h-26.43v27.07c3.2-.01,6.39-.02,9.57,0,2.41,.01,3.57,1.7,4.27,2.71,.1,.14,.2,.28,.3,.43l1.89,2.58v-19.62h26.34v-45.96h-42.37Z"/><g><path class="cls-1" d="M107.1,226.02c-2.78,4.64-5.99,9.14-9.53,13.36h-9.85v-13.36h19.38Z"/><path class="cls-1" d="M157.72,224.55v86.3h-16.12v-40.44h-13.63c-5.52,19.8-18.69,31.04-40.8,35.92v-14.18c19.25-5.62,27.82-20.17,27.82-45.5v-7.27h-17.42c3.54-4.22,6.75-8.72,9.53-13.36h23.91v18.79c0,4.23-.18,8.29-.55,12.06h11.14v-32.32h16.12Z"/></g><path class="cls-1" d="M175.58,238.64v-13.08h45.96v13.08h-15.1v.46c0,14.46,5.62,19.43,16.58,21.55v13.26c-9.86-1.01-19.25-5.16-24.32-11.33-5.25,6.45-15.2,11.24-24.59,12.34v-13.26c10.78-2.12,16.49-7.92,16.49-22.56v-.46h-15.01Zm36.56,60.79c-6.63,6.72-19.25,11.88-35.46,12.43v-12.99c18.05-2.12,27.35-8.47,27.35-19.99v-1.75h16.12v1.75c0,11.51,9.67,17.87,27.45,19.99v12.99c-16.95-.55-29.1-5.8-35.46-12.43Zm34.08-74.88v54.16h-16.12v-54.16h16.12Z"/><path class="cls-1" d="M307.74,265.07h-44.76v-39.51h44.76v39.51Zm24.78,31.41h-49.18v4.05h50.2v11.14h-66.04v-26.34h49v-4.24h-49v-11.24h65.02v26.62Zm-39.79-43.66v-15.01h-14.46v15.01h14.46Zm23.67-28.28h16.12v14.83h11.33v13.35h-11.33v14.09h-16.12v-42.28Z"/><path class="cls-1" d="M350.31,267.24v-9.94h27.89v9.94h-8.3v1.72c0,9.87,2.5,12.8,8.87,14.3v10.23c-5.79-.57-11.3-3.15-14.3-7.01-3.22,4.01-8.94,7.08-14.73,7.8v-10.3c6.44-1.57,8.94-4.86,8.94-14.95v-1.79h-8.37Zm3.36,43.27c0-4.36,1.86-7.51,5.15-9.87,4.94-3.5,12.88-4.79,21.89-4.79s16.95,1.29,21.89,4.79c3.22,2.36,5.15,5.51,5.15,9.87s-1.93,7.51-5.15,9.8c-4.93,3.43-12.87,4.72-21.89,4.72s-16.95-1.29-21.89-4.72c-3.29-2.29-5.15-5.44-5.15-9.8Zm12.3,0c0,1.07,.64,1.93,1.72,2.58,2.29,1.43,6.87,2,13.02,2s10.73-.57,13.02-2c1.14-.64,1.64-1.5,1.64-2.58,0-1.14-.5-2.07-1.64-2.72-2.29-1.43-6.8-2-13.02-2s-10.73,.57-13.02,2c-1.07,.64-1.72,1.57-1.72,2.72Zm25.68-16.67h-10.59v-36.91h10.59v13.3h3.93v-13.73h11.01v38.34h-11.01v-14.23h-3.93v13.23Z"/><path class="cls-1" d="M417.61,257.76c0-13.19,1.64-22.1,6.27-27.01,2.85-3.14,6.84-4.7,11.83-4.7s9.05,1.57,11.83,4.7c4.56,4.92,6.27,13.83,6.27,27.01s-1.71,22.24-6.27,27.16c-2.78,3.06-6.84,4.56-11.83,4.56s-8.98-1.5-11.83-4.56c-4.63-4.92-6.27-13.83-6.27-27.16Zm23.95,0c0-11.19-.78-17.32-2.64-19.89-.86-1-2-1.5-3.21-1.5-1.28,0-2.42,.5-3.21,1.5-1.85,2.57-2.57,8.7-2.57,19.89s.71,17.53,2.57,20.03c.78,1,1.92,1.43,3.21,1.43,1.21,0,2.35-.43,3.21-1.43,1.85-2.49,2.64-8.7,2.64-20.03Zm18.75-31.79h12.47v66.79h-12.47v-66.79Z"/><path class="cls-1" d="M510.94,224.76v16.8h20.74v-16.8h22.5v68.17h-65.87v-68.17h22.63Zm-17.62,100.97c0-9.62,4.47-16.26,12.33-20.6,8.95-5.15,22.36-7.18,37.81-7.18s28.73,2.03,37.68,7.18c7.73,4.34,12.33,10.98,12.33,20.6s-4.61,15.99-12.33,20.33c-8.94,5.15-22.36,7.05-37.68,7.05s-28.87-1.9-37.81-7.05c-7.86-4.34-12.33-11.11-12.33-20.33Zm17.62-51.23h20.74v-14.5h-20.74v14.5Zm5.83,51.23c0,2.03,1.08,3.79,3.12,5.01,4.07,2.44,12.2,3.52,23.58,3.52s19.25-1.08,23.31-3.52c2.17-1.22,3.25-2.98,3.25-5.01,0-2.3-1.08-3.93-3.25-5.42-4.07-2.44-11.79-3.25-23.31-3.25s-19.52,.81-23.58,3.25c-2.03,1.49-3.12,3.12-3.12,5.42Zm50.15-102.46h23.72v26.43h16.67v19.79h-16.67v26.84h-23.72v-73.05Z"/><path class="cls-1" d="M647.16,321.8h-44.59v-19.65h113.3v19.65h-45v31.44h-23.72v-31.44Zm62.62-76.3h-38.49c2.58,16.81,18.43,25.21,39.85,28.19v19.92c-20.06-1.76-41.47-9.49-52.04-20.87-10.57,11.38-31.58,18.97-51.91,20.87v-19.92c21.28-2.85,37-11.11,39.57-28.19h-38.08v-19.79h101.11v19.79Z"/><g><path class="cls-1" d="M214.96,76.79c.64,0,1.24-.06,1.83-.19,.58-.13,1.14-.37,1.69-.72,.55-.35,1.07-.84,1.58-1.46,.51-.62,1.01-1.42,1.5-2.4l.6,.3c-.54,.76-.96,1.63-1.24,2.62-.28,.98-.47,1.95-.56,2.92-.35-.25-.67-.43-.97-.53-.3-.1-.63-.15-.99-.15-.42,0-.8,.06-1.16,.18s-.71,.25-1.08,.38c-.36,.14-.75,.26-1.16,.38s-.88,.18-1.4,.18c-1.13,0-2.24-.22-3.34-.65s-2.08-1.08-2.94-1.92c-.86-.84-1.56-1.88-2.08-3.12-.53-1.23-.79-2.64-.79-4.22,0-1.38,.16-2.59,.49-3.62s.75-1.93,1.28-2.68c.53-.75,1.12-1.37,1.77-1.85,.65-.48,1.3-.85,1.93-1.1l1.53-.63c.56-.25,1.13-.47,1.7-.65,.57-.18,1.16-.27,1.76-.27,.96,0,1.79,.1,2.49,.31,.7,.21,1.26,.43,1.68,.67,.24-.04,.45-.19,.64-.45,.19-.26,.31-.54,.37-.83h.6c-.11,.35-.19,.69-.23,1.05-.05,.35-.07,.71-.07,1.08,0,.69,.06,1.35,.19,1.98s.3,1.34,.52,2.14h-.63c-.44-1.54-1.26-2.71-2.48-3.5-1.22-.79-2.69-1.16-4.41-1.1-.47,.02-.97,.09-1.5,.22-.53,.13-1.08,.35-1.66,.65-1.2,1-2.07,2.13-2.63,3.4-.55,1.27-.83,2.79-.83,4.55,0,1.29,.2,2.49,.61,3.6,.41,1.11,.97,2.07,1.69,2.87,.72,.81,1.56,1.44,2.53,1.91s2.03,.69,3.17,.69Z"/><path class="cls-1" d="M242.58,70.2c0,2.52-.62,4.5-1.85,5.94-1.23,1.43-3.07,2.15-5.5,2.15-2.72,0-4.83-.65-6.32-1.95s-2.23-3.35-2.23-6.17v-9.72c0-.44-.05-.79-.16-1.08-.11-.28-.29-.51-.53-.68-.24-.17-.57-.29-.97-.37-.4-.07-.9-.11-1.5-.11v-.52c.78,.09,1.52,.16,2.21,.19,.69,.04,1.42,.05,2.18,.05s1.47-.02,2.18-.05c.71-.04,1.45-.1,2.23-.19v.52c-.62,0-1.13,.04-1.54,.11-.41,.07-.73,.19-.97,.35-.24,.16-.4,.39-.5,.67s-.15,.63-.15,1.05v9.21c0,2.58,.56,4.45,1.69,5.62,1.13,1.17,2.67,1.76,4.63,1.76s3.32-.58,4.3-1.74,1.47-2.84,1.47-5.04v-9.72c0-.84-.3-1.41-.9-1.72-.6-.31-1.37-.47-2.32-.49v-.52c.64,.09,1.3,.15,1.99,.19,.69,.04,1.33,.05,1.93,.05s1.21-.02,1.89-.05c.68-.04,1.34-.1,1.98-.19v.52c-.45,0-.88,.04-1.27,.11-.39,.07-.73,.2-1.02,.37s-.52,.4-.69,.68c-.17,.28-.26,.64-.26,1.08v9.7Z"/><path class="cls-1" d="M254.68,68.7c-.27,.04-.55,.06-.82,.08-.27,.02-.55,.03-.82,.03l-.82,.03v6.59c0,.42,.05,.77,.16,1.05,.11,.28,.29,.51,.54,.68s.59,.3,1.01,.37c.42,.07,.94,.11,1.58,.11v.49c-.8-.07-1.56-.13-2.29-.18-.73-.05-1.47-.07-2.23-.07-.45,0-.99,.02-1.62,.07-.63,.05-1.33,.1-2.11,.18v-.49c.83-.02,1.47-.18,1.89-.48,.43-.3,.64-.89,.64-1.76v-14.95c0-.87-.2-1.46-.6-1.76-.4-.3-1.02-.46-1.85-.48v-.52c.33,.04,.71,.07,1.14,.11,.44,.04,.88,.07,1.32,.1s.87,.05,1.27,.05c.4,0,.71,0,.93-.01l3.62-.25c.83,.05,1.61,.19,2.33,.41,.72,.22,1.34,.52,1.87,.91,.53,.39,.94,.88,1.25,1.47,.31,.59,.46,1.28,.46,2.08s-.12,1.54-.37,2.17c-.25,.63-.58,1.17-.99,1.63-.42,.46-.91,.85-1.47,1.16-.56,.31-1.16,.55-1.8,.74l4.52,6.92c.45,.73,.98,1.31,1.58,1.76s1.36,.68,2.29,.69v.49c-.64-.07-1.23-.13-1.8-.18s-1.13-.07-1.72-.07-1.19,.02-1.77,.07c-.58,.05-1.27,.1-2.07,.18v-.49c.62-.02,1.04-.1,1.28-.25,.24-.14,.35-.34,.35-.57,0-.22-.07-.45-.2-.71-.14-.25-.29-.51-.45-.76l-4.25-6.65Zm-2.45-.63l.65-.03c1.91-.07,3.4-.54,4.49-1.4,1.09-.86,1.63-2.19,1.63-3.99,0-1.07-.26-1.97-.78-2.7-.52-.73-1.39-1.23-2.63-1.5l-3.38,.35v9.26Z"/><path class="cls-1" d="M267.23,70.2c.33,1.31,.75,2.4,1.27,3.27,.52,.87,1.09,1.57,1.73,2.1,.64,.53,1.32,.9,2.04,1.12s1.45,.33,2.18,.33c.53,0,1.02-.05,1.47-.15,.45-.1,.85-.22,1.2-.37,.29-.35,.49-.78,.6-1.29,.11-.52,.16-1.01,.16-1.49,0-.73-.11-1.33-.34-1.82-.23-.49-.55-.92-.97-1.29-.42-.37-.91-.7-1.48-.99-.57-.29-1.21-.6-1.92-.93-.76-.36-1.49-.74-2.19-1.12s-1.31-.81-1.84-1.28c-.53-.47-.95-1.01-1.27-1.62-.32-.61-.48-1.31-.48-2.11,0-.87,.18-1.62,.53-2.26,.35-.64,.78-1.11,1.27-1.42l1.12-.71c.36-.25,.83-.42,1.39-.49s1.16-.11,1.8-.11c.73,0,1.43,.08,2.1,.23,.67,.16,1.18,.33,1.53,.53,.2-.02,.39-.18,.56-.48,.17-.3,.3-.58,.39-.83h.52c-.07,.35-.12,.71-.15,1.09-.03,.38-.04,.77-.04,1.17,0,1.49,.18,2.99,.54,4.49h-.54c-.13-.71-.35-1.37-.68-1.98-.33-.61-.74-1.13-1.25-1.58-.51-.44-1.1-.79-1.78-1.05-.68-.25-1.44-.38-2.27-.38-.47,0-.93,.03-1.38,.1-.45,.06-.88,.21-1.29,.45-.15,.35-.25,.69-.31,1.02-.06,.34-.1,.72-.1,1.16,0,.71,.12,1.3,.37,1.77,.24,.47,.59,.89,1.05,1.24,.45,.35,.99,.68,1.62,.98,.63,.3,1.31,.62,2.06,.97,.89,.42,1.68,.83,2.36,1.24,.68,.41,1.25,.84,1.72,1.29,.46,.45,.82,.95,1.06,1.5,.25,.54,.37,1.15,.37,1.82,0,.64-.06,1.19-.19,1.68s-.29,.9-.49,1.25c-.2,.35-.41,.65-.64,.89-.23,.24-.45,.42-.67,.55l-1.12,.74c-.44,.29-.94,.51-1.53,.65-.58,.15-1.17,.22-1.77,.22-.56,0-1.09-.05-1.59-.16-.5-.11-.95-.24-1.36-.38-.41-.14-.76-.29-1.06-.44-.3-.15-.53-.26-.69-.35-.27,0-.5,.17-.68,.52-.18,.35-.33,.74-.44,1.17h-.68c.13-.45,.22-.89,.27-1.29s.08-.9,.08-1.48c0-.87-.07-1.79-.22-2.75-.15-.96-.35-1.93-.6-2.91h.68Z"/><path class="cls-1" d="M286.93,67.06h3.05c.87,0,1.5-.23,1.89-.68,.39-.45,.61-1.21,.67-2.26h.54c-.04,.33-.07,.61-.1,.86-.03,.24-.05,.49-.07,.74-.02,.25-.03,.5-.04,.78,0,.27-.01,.6-.01,.98s0,.7,.01,1.01c0,.31,.02,.61,.04,.9,.02,.29,.04,.58,.07,.86,.03,.28,.06,.59,.1,.91h-.54c-.05-1.11-.28-1.92-.67-2.45-.39-.53-1.01-.79-1.87-.79h-3.08v9.1h4.39c.71,0,1.3-.07,1.77-.2,.47-.14,.88-.39,1.21-.76,.34-.37,.63-.89,.87-1.57s.49-1.55,.75-2.64h.63c-.29,1.11-.49,2.03-.59,2.77-.1,.74-.15,1.38-.15,1.95,0,.42,0,.78,.03,1.09s.09,.72,.22,1.23h-.54c-.05-.22-.17-.39-.35-.52-.18-.13-.4-.23-.64-.3-.24-.07-.52-.12-.82-.14-.3-.02-.59-.03-.89-.03h-7.11c-.45,0-.99,.02-1.62,.07-.63,.05-1.33,.1-2.11,.18v-.49c.83-.02,1.47-.18,1.89-.48,.43-.3,.64-.89,.64-1.76v-14.95c0-.87-.2-1.46-.6-1.76-.4-.3-1.02-.46-1.85-.48v-.52c.64,.09,1.29,.16,1.96,.19,.67,.04,1.23,.05,1.69,.05h6.4c.29,0,.59,0,.89-.03,.3-.02,.57-.06,.82-.12,.25-.06,.45-.16,.61-.3,.16-.14,.27-.31,.33-.53h.57c-.09,.42-.15,.78-.16,1.09-.02,.31-.03,.64-.03,.98,0,.53,.02,1.08,.07,1.66,.05,.58,.2,1.29,.45,2.13h-.63c-.2-.78-.4-1.43-.6-1.95-.2-.52-.45-.93-.75-1.23-.3-.3-.67-.51-1.12-.63-.44-.12-1.02-.18-1.73-.18h-3.89v8.23Z"/><path class="cls-1" d="M302.86,77.88c-.45,0-1.09,.02-1.91,.07-.82,.05-1.62,.1-2.4,.18v-.49c.83-.02,1.47-.18,1.89-.48,.43-.3,.64-.89,.64-1.76v-14.95c0-.87-.2-1.46-.6-1.76-.4-.3-1.02-.46-1.85-.48v-.52c.33,.04,.71,.07,1.14,.11,.44,.04,.88,.06,1.32,.08,.44,.02,.87,.03,1.27,.04,.4,0,.71,.01,.93,.01l4.6-.11c1.29-.04,2.51,.15,3.66,.54,1.15,.4,2.16,.99,3.02,1.77,.86,.78,1.55,1.73,2.06,2.85,.51,1.12,.76,2.37,.76,3.77,0,1.47-.17,2.77-.52,3.9s-.79,2.09-1.32,2.9-1.13,1.47-1.8,1.99c-.66,.52-1.31,.9-1.95,1.16l-1.53,.63c-.27,.11-.67,.2-1.19,.27-.52,.07-1.1,.13-1.76,.16-.65,.04-1.37,.06-2.14,.08-.77,.02-1.56,.03-2.36,.03Zm.65-1.2c1.54,.16,2.99,.21,4.33,.14s2.51-.32,3.49-.74c.45-.35,.9-.8,1.33-1.38s.82-1.23,1.14-1.98c.33-.74,.59-1.55,.79-2.42,.2-.87,.3-1.77,.3-2.7,0-1.42-.21-2.69-.63-3.81-.42-1.13-.98-2.07-1.69-2.85-.71-.77-1.53-1.35-2.48-1.74-.94-.39-1.94-.57-3-.53l-3.6,.14v17.87Z"/><path class="cls-1" d="M339.5,77.69c-.53,.2-1.06,.35-1.61,.45s-1.05,.15-1.53,.15c-1.09,0-2.18-.22-3.27-.65s-2.07-1.08-2.94-1.92c-.87-.84-1.58-1.88-2.14-3.12-.55-1.23-.83-2.64-.83-4.22,0-1.45,.19-2.73,.57-3.83s.86-2.04,1.44-2.82c.58-.78,1.21-1.42,1.88-1.91,.67-.49,1.3-.85,1.88-1.09l1.53-.57c.53-.22,1.06-.37,1.59-.46,.53-.09,1.04-.14,1.51-.14,1.09,0,2.18,.22,3.28,.67,1.1,.45,2.08,1.09,2.95,1.93,.87,.84,1.58,1.88,2.14,3.1s.83,2.63,.83,4.21c0,1.45-.19,2.72-.57,3.81-.38,1.09-.86,2.02-1.44,2.81-.58,.78-1.21,1.42-1.88,1.91-.67,.49-1.31,.85-1.91,1.09l-1.5,.6Zm1.04-1.09c.53-.42,1.02-.89,1.47-1.42,.45-.53,.85-1.13,1.2-1.8,.34-.67,.61-1.43,.8-2.26,.19-.83,.29-1.79,.29-2.86,0-1.4-.2-2.67-.61-3.83-.41-1.15-.97-2.14-1.69-2.97-.72-.83-1.58-1.47-2.57-1.92-1-.45-2.1-.68-3.3-.68-.44,0-.87,.03-1.31,.08-.44,.05-.88,.15-1.33,.3-.54,.42-1.05,.89-1.51,1.4-.46,.52-.86,1.11-1.2,1.78s-.6,1.43-.8,2.27c-.2,.84-.3,1.79-.3,2.85,0,1.4,.21,2.68,.63,3.84,.42,1.16,1,2.16,1.74,2.98s1.62,1.46,2.64,1.91c1.02,.45,2.12,.67,3.3,.67,.83,0,1.69-.12,2.56-.35Z"/><path class="cls-1" d="M354.13,69.02v6.4c0,.42,.05,.77,.16,1.05,.11,.28,.29,.51,.54,.68s.59,.3,1.01,.37c.42,.07,.94,.11,1.58,.11v.49c-.8-.07-1.56-.13-2.29-.18-.73-.05-1.47-.07-2.23-.07-.45,0-.99,.02-1.62,.07-.63,.05-1.33,.1-2.11,.18v-.49c.83-.02,1.47-.18,1.89-.48,.43-.3,.64-.89,.64-1.76v-14.95c0-.87-.2-1.46-.6-1.76-.4-.3-1.02-.46-1.85-.48v-.52c.33,.04,.71,.07,1.14,.11,.44,.04,.88,.07,1.32,.1s.87,.05,1.27,.05c.4,0,.71,0,.93-.01l3.62-.25c.83,.05,1.61,.19,2.33,.4,.72,.21,1.34,.52,1.87,.93,.53,.41,.94,.92,1.25,1.53,.31,.61,.46,1.35,.46,2.22,0,1.25-.26,2.27-.78,3.06-.52,.79-1.19,1.42-2,1.88s-1.73,.79-2.74,.97-2,.28-2.98,.3l-.82,.05Zm0-.79l.65-.03c1.91-.05,3.4-.51,4.49-1.38,1.09-.86,1.63-2.19,1.63-3.99,0-1.14-.26-2.09-.78-2.85-.52-.75-1.39-1.27-2.63-1.54l-3.38,.35v9.42Z"/><path class="cls-1" d="M370.2,67.06h3.05c.87,0,1.5-.23,1.89-.68,.39-.45,.61-1.21,.67-2.26h.54c-.04,.33-.07,.61-.1,.86-.03,.24-.05,.49-.07,.74-.02,.25-.03,.5-.04,.78,0,.27-.01,.6-.01,.98s0,.7,.01,1.01c0,.31,.02,.61,.04,.9,.02,.29,.04,.58,.07,.86,.03,.28,.06,.59,.1,.91h-.54c-.05-1.11-.28-1.92-.67-2.45-.39-.53-1.01-.79-1.87-.79h-3.08v9.1h4.39c.71,0,1.3-.07,1.77-.2,.47-.14,.88-.39,1.21-.76,.34-.37,.63-.89,.87-1.57s.49-1.55,.75-2.64h.63c-.29,1.11-.49,2.03-.59,2.77-.1,.74-.15,1.38-.15,1.95,0,.42,0,.78,.03,1.09s.09,.72,.22,1.23h-.54c-.05-.22-.17-.39-.35-.52-.18-.13-.4-.23-.64-.3-.24-.07-.52-.12-.82-.14-.3-.02-.59-.03-.89-.03h-7.11c-.45,0-.99,.02-1.62,.07-.63,.05-1.33,.1-2.11,.18v-.49c.83-.02,1.47-.18,1.89-.48,.43-.3,.64-.89,.64-1.76v-14.95c0-.87-.2-1.46-.6-1.76-.4-.3-1.02-.46-1.85-.48v-.52c.64,.09,1.29,.16,1.96,.19,.67,.04,1.23,.05,1.69,.05h6.4c.29,0,.59,0,.89-.03,.3-.02,.57-.06,.82-.12,.25-.06,.45-.16,.61-.3,.16-.14,.27-.31,.33-.53h.57c-.09,.42-.15,.78-.16,1.09-.02,.31-.03,.64-.03,.98,0,.53,.02,1.08,.07,1.66,.05,.58,.2,1.29,.45,2.13h-.63c-.2-.78-.4-1.43-.6-1.95-.2-.52-.45-.93-.75-1.23-.3-.3-.67-.51-1.12-.63-.44-.12-1.02-.18-1.73-.18h-3.89v8.23Z"/><path class="cls-1" d="M389.24,68.7c-.27,.04-.55,.06-.82,.08-.27,.02-.55,.03-.82,.03l-.82,.03v6.59c0,.42,.05,.77,.16,1.05,.11,.28,.29,.51,.54,.68s.59,.3,1.01,.37c.42,.07,.94,.11,1.58,.11v.49c-.8-.07-1.56-.13-2.29-.18-.73-.05-1.47-.07-2.23-.07-.45,0-.99,.02-1.62,.07-.63,.05-1.33,.1-2.11,.18v-.49c.83-.02,1.47-.18,1.89-.48,.43-.3,.64-.89,.64-1.76v-14.95c0-.87-.2-1.46-.6-1.76-.4-.3-1.02-.46-1.85-.48v-.52c.33,.04,.71,.07,1.14,.11,.44,.04,.88,.07,1.32,.1s.87,.05,1.27,.05c.4,0,.71,0,.93-.01l3.62-.25c.83,.05,1.61,.19,2.33,.41,.72,.22,1.34,.52,1.87,.91,.53,.39,.94,.88,1.25,1.47,.31,.59,.46,1.28,.46,2.08s-.12,1.54-.37,2.17c-.25,.63-.58,1.17-.99,1.63-.42,.46-.91,.85-1.47,1.16-.56,.31-1.16,.55-1.8,.74l4.52,6.92c.45,.73,.98,1.31,1.58,1.76s1.36,.68,2.29,.69v.49c-.64-.07-1.23-.13-1.8-.18s-1.13-.07-1.72-.07-1.19,.02-1.77,.07c-.58,.05-1.27,.1-2.07,.18v-.49c.62-.02,1.04-.1,1.28-.25,.24-.14,.35-.34,.35-.57,0-.22-.07-.45-.2-.71-.14-.25-.29-.51-.45-.76l-4.25-6.65Zm-2.45-.63l.65-.03c1.91-.07,3.4-.54,4.49-1.4,1.09-.86,1.63-2.19,1.63-3.99,0-1.07-.26-1.97-.78-2.7-.52-.73-1.39-1.23-2.63-1.5l-3.38,.35v9.26Z"/><path class="cls-1" d="M413.59,71.04h-7.41l-1.74,4.74c-.09,.31-.14,.53-.14,.65,0,.38,.2,.67,.61,.86s1.16,.3,2.25,.34v.49c-.67-.05-1.34-.11-1.99-.16-.65-.05-1.24-.08-1.77-.08-.47,0-1.02,.03-1.65,.08-.63,.05-1.26,.11-1.89,.16v-.49c.87-.04,1.58-.19,2.12-.45,.55-.26,.94-.71,1.2-1.35l7.22-18.58,7.82,18.36c.13,.29,.27,.56,.42,.8,.15,.25,.36,.46,.61,.64s.58,.32,.98,.42c.4,.1,.9,.15,1.5,.15v.49c-.8-.07-1.53-.13-2.21-.18-.67-.05-1.43-.07-2.29-.07-.64,0-1.35,.03-2.15,.08-.8,.05-1.52,.11-2.15,.16v-.49c1.8,0,2.7-.39,2.7-1.17,0-.25-.08-.56-.25-.93l-1.8-4.49Zm-7.05-1.01h6.65l-3.46-8.66-3.19,8.66Z"/><path class="cls-1" d="M425.76,74.31c.18,.53,.5,1.02,.95,1.47,.45,.45,1,.76,1.63,.93-.47,.15-.85,.45-1.13,.91-.28,.46-.6,1.04-.95,1.73s-.8,1.45-1.35,2.29c-.54,.83-1.31,1.69-2.29,2.56,.6-.8,1.07-1.6,1.42-2.41,.35-.81,.55-1.56,.61-2.26,.06-.7-.02-1.3-.25-1.8s-.61-.84-1.16-1.02c.64-.16,1.17-.47,1.59-.93,.43-.45,.73-.94,.91-1.47Z"/></g><g><path class="cls-1" d="M272.04,361.3c-.45,0-.99,.02-1.62,.07-.63,.05-1.33,.1-2.11,.18v-.49c.83-.02,1.47-.18,1.89-.48,.43-.3,.64-.89,.64-1.76v-14.95c0-.87-.2-1.46-.6-1.76-.4-.3-1.02-.46-1.85-.48v-.52c1.58,.16,2.8,.25,3.65,.25,.76,0,1.49-.02,2.19-.05,.7-.04,1.44-.1,2.22-.19v.52c-.62,0-1.13,.04-1.54,.11-.41,.07-.74,.19-.98,.35-.25,.16-.42,.39-.52,.67-.1,.28-.15,.63-.15,1.05v16.56h4.11c.87,0,1.58-.08,2.11-.24,.54-.16,.97-.45,1.31-.87,.34-.42,.62-.99,.84-1.72,.23-.73,.48-1.66,.75-2.81h.63c-.16,.6-.3,1.13-.39,1.59-.1,.46-.18,.89-.23,1.27s-.1,.75-.12,1.12c-.03,.36-.04,.74-.04,1.14s.02,.77,.07,1.17c.05,.4,.13,.82,.26,1.25h-.57c-.05-.22-.17-.39-.34-.52-.17-.13-.38-.23-.63-.3-.25-.07-.52-.12-.82-.14-.3-.02-.6-.03-.89-.03h-7.27Z"/><path class="cls-1" d="M287.82,343.86c0-.44-.05-.79-.16-1.08-.11-.28-.29-.51-.54-.68-.25-.17-.59-.29-.99-.37-.41-.07-.91-.11-1.51-.11v-.52c.8,.09,1.54,.16,2.23,.19,.69,.04,1.41,.05,2.15,.05s1.49-.02,2.19-.05c.7-.04,1.45-.1,2.25-.19v.52c-.64,0-1.16,.04-1.57,.11-.41,.07-.74,.19-.98,.35-.25,.16-.42,.39-.52,.67-.1,.28-.15,.63-.15,1.05v15.04c0,.42,.05,.77,.16,1.05,.11,.28,.29,.51,.55,.68,.25,.17,.59,.3,1.01,.37,.42,.07,.94,.11,1.58,.11v.49c-.8-.07-1.56-.13-2.29-.18s-1.47-.07-2.23-.07-1.48,.02-2.21,.07-1.48,.1-2.26,.18v-.49c1.2-.02,2.05-.18,2.55-.49,.5-.31,.75-.89,.75-1.74v-14.95Z"/><path class="cls-1" d="M300.26,350.48h3.05c.87,0,1.5-.23,1.89-.68,.39-.45,.61-1.21,.67-2.26h.54c-.04,.33-.07,.61-.1,.86-.03,.24-.05,.49-.07,.74-.02,.25-.03,.5-.04,.78,0,.27-.01,.6-.01,.98s0,.7,.01,1.01c0,.31,.02,.61,.04,.9,.02,.29,.04,.58,.07,.86,.03,.28,.06,.59,.1,.91h-.54c-.05-1.11-.28-1.92-.67-2.45-.39-.53-1.01-.79-1.87-.79h-3.08v9.1h4.39c.71,0,1.3-.07,1.77-.2,.47-.14,.88-.39,1.21-.76,.34-.37,.63-.89,.87-1.57s.49-1.55,.75-2.64h.63c-.29,1.11-.49,2.03-.59,2.77-.1,.74-.15,1.38-.15,1.95,0,.42,0,.78,.03,1.09s.09,.72,.22,1.23h-.54c-.05-.22-.17-.39-.35-.52-.18-.13-.4-.23-.64-.3-.24-.07-.52-.12-.82-.14-.3-.02-.59-.03-.89-.03h-7.11c-.45,0-.99,.02-1.62,.07-.63,.05-1.33,.1-2.11,.18v-.49c.83-.02,1.47-.18,1.89-.48,.43-.3,.64-.89,.64-1.76v-14.95c0-.87-.2-1.46-.6-1.76-.4-.3-1.02-.46-1.85-.48v-.52c.64,.09,1.29,.16,1.96,.19,.67,.04,1.23,.05,1.69,.05h6.4c.29,0,.59,0,.89-.03,.3-.02,.57-.06,.82-.12,.25-.06,.45-.16,.61-.3,.16-.14,.27-.31,.33-.53h.57c-.09,.42-.15,.78-.16,1.09-.02,.31-.03,.64-.03,.98,0,.53,.02,1.08,.07,1.66,.05,.58,.2,1.29,.45,2.13h-.63c-.2-.78-.4-1.43-.6-1.95-.2-.52-.45-.93-.75-1.23-.3-.3-.67-.51-1.12-.63-.44-.12-1.02-.18-1.73-.18h-3.89v8.23Z"/><path class="cls-1" d="M331.83,361.11c-.53,.2-1.06,.35-1.61,.45s-1.05,.15-1.53,.15c-1.09,0-2.18-.22-3.27-.65s-2.07-1.08-2.94-1.92c-.87-.84-1.58-1.88-2.14-3.12-.55-1.23-.83-2.64-.83-4.22,0-1.45,.19-2.73,.57-3.83s.86-2.04,1.44-2.82c.58-.78,1.21-1.42,1.88-1.91,.67-.49,1.3-.85,1.88-1.09l1.53-.57c.53-.22,1.06-.37,1.59-.46,.53-.09,1.04-.14,1.51-.14,1.09,0,2.18,.22,3.28,.67,1.1,.45,2.08,1.09,2.95,1.93,.87,.84,1.58,1.88,2.14,3.1s.83,2.63,.83,4.21c0,1.45-.19,2.72-.57,3.81-.38,1.09-.86,2.02-1.44,2.81-.58,.78-1.21,1.42-1.88,1.91-.67,.49-1.31,.85-1.91,1.09l-1.5,.6Zm1.04-1.09c.53-.42,1.02-.89,1.47-1.42,.45-.53,.85-1.13,1.2-1.8,.34-.67,.61-1.43,.8-2.26,.19-.83,.29-1.79,.29-2.86,0-1.4-.2-2.67-.61-3.83-.41-1.15-.97-2.14-1.69-2.97-.72-.83-1.58-1.47-2.57-1.92-1-.45-2.1-.68-3.3-.68-.44,0-.87,.03-1.31,.08-.44,.05-.88,.15-1.33,.3-.54,.42-1.05,.89-1.51,1.4-.46,.52-.86,1.11-1.2,1.78s-.6,1.43-.8,2.27c-.2,.84-.3,1.79-.3,2.85,0,1.4,.21,2.68,.63,3.84,.42,1.16,1,2.16,1.74,2.98s1.62,1.46,2.64,1.91c1.02,.45,2.12,.67,3.3,.67,.83,0,1.69-.12,2.56-.35Z"/><path class="cls-1" d="M359.64,361.73l-13.56-17.6v14.71c0,.42,.08,.77,.23,1.05s.38,.51,.67,.68,.63,.3,1.02,.37c.39,.07,.82,.11,1.29,.11v.49c-.64-.07-1.3-.13-1.99-.18-.69-.05-1.34-.07-1.93-.07s-1.21,.02-1.89,.07c-.68,.05-1.34,.1-1.97,.18v-.49c.45,0,.88-.04,1.27-.11,.39-.07,.73-.19,1.02-.37s.52-.4,.69-.68c.17-.28,.26-.64,.26-1.08v-14.95c0-.87-.24-1.46-.74-1.76-.49-.3-1.27-.46-2.34-.48v-.52c.67,.09,1.34,.16,2,.19,.66,.04,1.31,.05,1.95,.05h1.36l11.77,15.23v-12.78c0-.42-.08-.77-.24-1.05-.16-.28-.39-.5-.67-.67-.28-.16-.62-.28-1.02-.35-.4-.07-.84-.11-1.31-.11v-.52c.64,.09,1.3,.16,1.99,.19,.69,.04,1.33,.05,1.93,.05s1.24-.02,1.92-.05c.68-.04,1.34-.1,1.98-.19v.52c-.45,0-.88,.04-1.28,.11-.4,.07-.74,.2-1.04,.37-.29,.17-.52,.4-.68,.68-.16,.28-.25,.64-.25,1.08v17.87h-.44Z"/><path class="cls-1" d="M376.7,342.31c-.65,0-1.21,.07-1.66,.2-.45,.14-.84,.37-1.17,.71-.33,.34-.6,.8-.82,1.39-.22,.59-.41,1.34-.57,2.25h-.71c.25-.93,.44-1.76,.57-2.49,.13-.74,.2-1.48,.22-2.25,0-.29,0-.58-.01-.86,0-.28-.03-.58-.07-.89h.46c.13,.35,.33,.59,.6,.75,.27,.15,.78,.23,1.53,.23h11.79c.73,0,1.23-.08,1.5-.23,.27-.15,.47-.4,.6-.75h.46c-.04,.31-.06,.6-.07,.89,0,.28-.01,.57-.01,.86,.02,.76,.1,1.51,.23,2.25,.14,.74,.33,1.57,.59,2.49h-.74c-.16-.91-.35-1.66-.57-2.25-.22-.59-.49-1.05-.8-1.39-.32-.34-.7-.57-1.16-.71-.45-.14-1.01-.2-1.66-.2h-3.05v16.53c0,.42,.05,.77,.16,1.05,.11,.28,.29,.51,.55,.68,.25,.17,.59,.3,1.01,.37,.42,.07,.94,.11,1.55,.11v.49c-.78-.07-1.54-.13-2.27-.18-.74-.05-1.48-.07-2.22-.07s-1.5,.02-2.22,.07c-.72,.05-1.48,.1-2.27,.18v-.49c1.2-.02,2.04-.18,2.53-.49,.49-.31,.74-.89,.74-1.74v-16.51h-3.02Z"/><path class="cls-1" d="M407.88,351.35h-10.57v7.46c0,.85,.25,1.43,.75,1.74,.5,.31,1.35,.47,2.55,.49v.49c-.8-.07-1.56-.13-2.28-.18s-1.46-.07-2.22-.07-1.48,.02-2.22,.07c-.74,.05-1.49,.1-2.27,.18v-.49c.62,0,1.13-.04,1.55-.11,.42-.07,.76-.19,1.02-.37s.45-.4,.56-.68c.11-.28,.16-.63,.16-1.05v-15.04c0-.42-.05-.77-.15-1.05s-.27-.5-.52-.67c-.25-.16-.58-.28-.99-.35-.42-.07-.94-.11-1.55-.11v-.52c.8,.09,1.55,.16,2.25,.19,.7,.04,1.42,.05,2.17,.05s1.49-.02,2.18-.05c.69-.04,1.43-.1,2.23-.19v.52c-.6,0-1.11,.04-1.53,.11-.42,.07-.75,.2-.99,.37-.25,.17-.42,.4-.53,.68-.11,.28-.16,.64-.16,1.08v6.54h10.57v-6.54c0-.44-.05-.79-.16-1.08-.11-.28-.29-.51-.53-.68-.24-.17-.58-.29-.99-.37-.42-.07-.93-.11-1.53-.11v-.52c.8,.09,1.54,.16,2.23,.19,.69,.04,1.42,.05,2.18,.05s1.47-.02,2.17-.05c.7-.04,1.45-.1,2.25-.19v.52c-.64,0-1.16,.04-1.57,.11-.41,.07-.74,.19-.98,.35-.25,.16-.42,.39-.52,.67s-.15,.63-.15,1.05v15.04c0,.42,.05,.77,.16,1.05,.11,.28,.29,.51,.56,.68s.6,.3,1.02,.37c.42,.07,.93,.11,1.55,.11v.49c-.78-.07-1.54-.13-2.27-.18-.74-.05-1.48-.07-2.22-.07s-1.5,.02-2.22,.07c-.72,.05-1.48,.1-2.27,.18v-.49c1.2-.02,2.05-.18,2.55-.49,.5-.31,.75-.89,.75-1.74v-7.46Z"/><path class="cls-1" d="M435.23,354.46h-7.41l-1.74,4.74c-.09,.31-.14,.53-.14,.65,0,.38,.2,.67,.61,.86s1.16,.3,2.25,.34v.49c-.67-.05-1.34-.11-1.99-.16-.65-.05-1.24-.08-1.77-.08-.47,0-1.02,.03-1.65,.08-.63,.05-1.26,.11-1.89,.16v-.49c.87-.04,1.58-.19,2.12-.45,.55-.26,.94-.71,1.2-1.35l7.22-18.58,7.82,18.36c.13,.29,.27,.56,.42,.8,.15,.25,.36,.46,.61,.64s.58,.32,.98,.42c.4,.1,.9,.15,1.5,.15v.49c-.8-.07-1.53-.13-2.21-.18-.67-.05-1.43-.07-2.29-.07-.64,0-1.35,.03-2.15,.08-.8,.05-1.52,.11-2.15,.16v-.49c1.8,0,2.7-.39,2.7-1.17,0-.25-.08-.56-.25-.93l-1.8-4.49Zm-7.05-1.01h6.65l-3.46-8.66-3.19,8.66Z"/><path class="cls-1" d="M451.69,352.12c-.27,.04-.55,.06-.82,.08-.27,.02-.55,.03-.82,.03l-.82,.03v6.59c0,.42,.05,.77,.16,1.05,.11,.28,.29,.51,.54,.68s.59,.3,1.01,.37c.42,.07,.94,.11,1.58,.11v.49c-.8-.07-1.56-.13-2.29-.18-.73-.05-1.47-.07-2.23-.07-.45,0-.99,.02-1.62,.07-.63,.05-1.33,.1-2.11,.18v-.49c.83-.02,1.47-.18,1.89-.48,.43-.3,.64-.89,.64-1.76v-14.95c0-.87-.2-1.46-.6-1.76-.4-.3-1.02-.46-1.85-.48v-.52c.33,.04,.71,.07,1.14,.11,.44,.04,.88,.07,1.32,.1s.87,.05,1.27,.05c.4,0,.71,0,.93-.01l3.62-.25c.83,.05,1.61,.19,2.33,.41,.72,.22,1.34,.52,1.87,.91,.53,.39,.94,.88,1.25,1.47,.31,.59,.46,1.28,.46,2.08s-.12,1.54-.37,2.17c-.25,.63-.58,1.17-.99,1.63-.42,.46-.91,.85-1.47,1.16-.56,.31-1.16,.55-1.8,.74l4.52,6.92c.45,.73,.98,1.31,1.58,1.76s1.36,.68,2.29,.69v.49c-.64-.07-1.23-.13-1.8-.18s-1.13-.07-1.72-.07-1.19,.02-1.77,.07c-.58,.05-1.27,.1-2.07,.18v-.49c.62-.02,1.04-.1,1.28-.25,.24-.14,.35-.34,.35-.57,0-.22-.07-.45-.2-.71-.14-.25-.29-.51-.45-.76l-4.25-6.65Zm-2.45-.63l.65-.03c1.91-.07,3.4-.54,4.49-1.4,1.09-.86,1.63-2.19,1.63-3.99,0-1.07-.26-1.97-.78-2.7-.52-.73-1.39-1.23-2.63-1.5l-3.38,.35v9.26Z"/><path class="cls-1" d="M471.19,350.54l7.63,8.55c.29,.33,.58,.61,.87,.86s.59,.44,.91,.6,.67,.27,1.06,.35c.39,.08,.85,.13,1.38,.15v.49c-.24-.02-.51-.04-.83-.07s-.65-.05-1.01-.08-.71-.05-1.08-.07c-.36-.02-.71-.03-1.04-.03-.71,0-1.44,.03-2.21,.1s-1.41,.11-1.93,.15v-.49c.6,0,1.03-.05,1.28-.14,.25-.09,.38-.24,.38-.44,0-.25-.25-.65-.74-1.2l-6.97-7.9v7.46c0,.42,.05,.77,.16,1.05,.11,.28,.29,.51,.55,.68,.25,.17,.59,.3,1.01,.37,.42,.07,.94,.11,1.58,.11v.49c-.8-.07-1.56-.13-2.29-.18s-1.47-.07-2.23-.07-1.48,.02-2.21,.07-1.48,.1-2.26,.18v-.49c1.2-.02,2.05-.18,2.55-.49,.5-.31,.75-.89,.75-1.74v-14.95c0-.44-.05-.79-.16-1.08-.11-.28-.29-.51-.54-.68-.25-.17-.59-.29-.99-.37-.41-.07-.91-.11-1.51-.11v-.52c.8,.09,1.54,.16,2.23,.19,.69,.04,1.41,.05,2.15,.05s1.49-.02,2.19-.05c.7-.04,1.45-.1,2.25-.19v.52c-.64,0-1.16,.04-1.57,.11-.41,.07-.74,.19-.98,.35-.25,.16-.42,.39-.52,.67-.1,.28-.15,.63-.15,1.05v7.14l7.71-7.19c.29-.25,.51-.5,.65-.74,.15-.24,.22-.44,.22-.63,0-.51-.56-.76-1.69-.76v-.52c1.25,.16,2.38,.25,3.38,.25,.47,0,.97-.01,1.5-.04s1.12-.1,1.77-.2v.52c-.58,.11-1.06,.23-1.44,.37-.38,.14-.73,.31-1.05,.52-.32,.21-.64,.47-.98,.78s-.75,.69-1.24,1.14l-6.54,6.1Z"/></g><g><path class="cls-1" d="M638.49,222.7c-10.54,0-21.08-.02-31.62,.02-1.39,0-2.24-.5-2.85-1.76-1.68-3.48-3.44-6.91-5.17-10.37-1-1.99-.08-3.48,2.15-3.48,20.16,0,40.33,0,60.49-.02,.59,0,1.27-.11,1.75-.42,3.14-2.03,6.54-2.66,10.26-2.44,3.85,.22,7.73,.05,11.6,.05,1.4,0,2.18,.47,2.5,1.52,.31,.97-.07,1.8-1.16,2.61-4.18,3.09-8.27,6.3-11.73,10.21-.74,.83-1.39,1.76-1.97,2.71-.58,.96-1.34,1.38-2.46,1.38-10.6-.02-21.2-.01-31.8-.01Z"/><path class="cls-1" d="M605.64,204.99c.68-1.7,1.31-3.28,1.94-4.86,.74-1.86,1.49-3.72,2.22-5.58,.43-1.09,1.18-1.61,2.37-1.61,18.71,0,37.42,0,56.13,0,.94,0,1.67,.32,2.15,1.13,1.55,2.58,3.1,5.16,4.64,7.74,.04,.07,.05,.16,.1,.35-1.69,0-3.32,.07-4.96-.02-1.8-.09-3.46,.2-4.98,1.19-2.15,1.39-4.49,1.72-7.05,1.71-17.12-.08-34.23-.04-51.35-.04h-1.23Zm34.68-4.26h0c.59,0,1.18,.03,1.77,0,1.18-.07,2.05-1,2.04-2.13,0-1.13-.89-2.05-2.07-2.09-1.15-.04-2.3-.04-3.44,0-1.19,.04-2.07,.95-2.09,2.08-.02,1.17,.88,2.09,2.12,2.15,.56,.03,1.12,0,1.68,0Zm22.86,0h0c.56,0,1.12,.02,1.68,0,1.24-.06,2.14-.98,2.12-2.14-.01-1.13-.89-2.05-2.08-2.09-1.15-.04-2.3-.04-3.44,0-1.19,.04-2.07,.96-2.08,2.09-.01,1.13,.86,2.06,2.04,2.13,.59,.04,1.18,0,1.77,0Zm-34.48,0h0c.53,0,1.06,.03,1.59-.01,1.13-.09,1.97-1.02,1.96-2.12,0-1.1-.85-2.04-1.98-2.1-1.03-.05-2.06-.05-3.09,0-1.14,.05-1.99,.97-2.01,2.07-.02,1.13,.85,2.07,2.02,2.15,.5,.03,1,0,1.5,0Zm22.89,0h0c.53,0,1.06,.04,1.59-.01,1.12-.1,1.95-1.06,1.93-2.15-.02-1.06-.84-1.99-1.93-2.05-1.06-.06-2.12-.06-3.18,0-1.13,.06-1.97,1-1.97,2.1,0,1.1,.84,2.02,1.97,2.11,.53,.04,1.06,0,1.59,0Zm-33.89,0h0c.47,0,.94,.04,1.41,0,1.13-.09,1.97-1,1.98-2.1,0-1.1-.83-2.05-1.96-2.11-.94-.06-1.88-.06-2.82,0-1.09,.07-1.91,.98-1.94,2.05-.03,1.09,.8,2.05,1.92,2.16,.47,.05,.94,0,1.41,0Z"/><path class="cls-1" d="M638.77,190.75c.82-2.23,1.59-4.42,2.44-6.57,.3-.76,1.01-1.15,1.85-1.15,3.8,0,7.61-.01,11.41,0,1.3,0,1.8,1.07,2.56,2.12-.51,0-.87,0-1.23,0-1.09,0-2.18,0-3.27,0-1.4,.01-2.34,.87-2.36,2.1-.01,1.27,.95,2.14,2.4,2.15,2.09,.01,4.19,.07,6.28-.03,1.11-.05,1.77,.33,2.17,1.38h-22.24Z"/><path class="cls-1" d="M618.28,185.08c0-.49-.02-.93,0-1.37,.06-1.2,.88-2.07,2.08-2.1,1.91-.04,3.83-.04,5.75,0,1.2,.02,2.02,.89,2.08,2.09,.02,.44,0,.88,0,1.38h-9.91Z"/><path class="cls-1" d="M628.15,188.04v2.73h-9.81v-2.73h9.81Z"/></g><path class="cls-1" d="M736.8,215.56c0,10.25-5.49,20.86-20.01,20.86h-1.71v-8.66c8.78-.61,9.51-4.51,9.51-10.98h-7.68v-18.18h19.88v16.96Z"/><line class="cls-2" x1="259.01" y1="351.7" x2="75.45" y2="351.7"/></g></g></svg>