<svg id="레이어_1" data-name="레이어 1" xmlns="http://www.w3.org/2000/svg" xmlns:xlink="http://www.w3.org/1999/xlink" viewBox="0 0 150 150"><defs><style>.cls-1{fill:none;}.cls-2{fill:#050b25;}.cls-3{clip-path:url(#clip-path);}.cls-4{fill:#1083b4;}.cls-5{fill:#f5f5f5;}</style><clipPath id="clip-path"><rect class="cls-1" width="150" height="150" rx="8"/></clipPath></defs><rect class="cls-2" width="150" height="150" rx="8"/><g class="cls-3"><path class="cls-4" d="M3,148.21A8,8,0,0,0,8,150H142a8,8,0,0,0,8-8V8a8,8,0,0,0-1.79-5Z"/><path class="cls-5" d="M60.56,57.32a4.13,4.13,0,0,1-2.11.4h-21A2.22,2.22,0,0,1,35,56a12.09,12.09,0,0,1,0-3.18,2.12,2.12,0,0,1,2-1.72,5.72,5.72,0,0,1,.59,0l12,0,.53,0-.41-.41L-.88,0a2.43,2.43,0,0,1,0-3.85l1-1a2.33,2.33,0,0,1,3.64,0l41,40.94,9.7,9.7.4.39c0-.23,0-.37,0-.52q0-6,0-12.11a2.26,2.26,0,0,1,1.79-2.46,11.6,11.6,0,0,1,3.17,0,2.14,2.14,0,0,1,1.75,2c0,.19,0,.39,0,.59q0,10.41,0,20.82a4.18,4.18,0,0,1-.4,2.15Z"/><path class="cls-5" d="M49.94,102.47a4.07,4.07,0,0,1-1.36,1.66q-8.07,6.75-16.12,13.52a2.22,2.22,0,0,1-3,.23,11.65,11.65,0,0,1-2.05-2.43,2.11,2.11,0,0,1,.44-2.62,4.21,4.21,0,0,1,.44-.39l9.22-7.72c.12-.09.22-.19.4-.35l-.57-.05-71.27-6.23a2.44,2.44,0,0,1-2.48-3l.12-1.42a2.34,2.34,0,0,1,2.79-2.36l57.69,5L37.83,97.6l.56.05-.33-.4L30.28,88a2.26,2.26,0,0,1-.21-3,11.91,11.91,0,0,1,2.43-2,2.16,2.16,0,0,1,2.66.45c.14.14.26.29.39.44q6.69,8,13.39,16A4,4,0,0,1,50,101.63Z"/><path class="cls-5" d="M97.72,29.56a4,4,0,0,1-1.87-1L79.74,15A2.23,2.23,0,0,1,79,12.05a11.87,11.87,0,0,1,2-2.44,2.13,2.13,0,0,1,2.66,0,5.19,5.19,0,0,1,.46.36l9.21,7.75.41.32,0-.57L87.47-53.81a2.43,2.43,0,0,1,2.46-3l1.43-.13a2.34,2.34,0,0,1,2.8,2.34c.42,4.75,4.63,52.94,5,57.69l1.2,13.66,0,.56.35-.39c2.6-3.09,5.19-6.19,7.8-9.27a2.24,2.24,0,0,1,3-.74A11.81,11.81,0,0,1,114,9a2.15,2.15,0,0,1,0,2.69c-.12.16-.24.31-.37.46l-13.38,16a4.16,4.16,0,0,1-1.69,1.39Z"/><path class="cls-5" d="M137.08,73.86a7.82,7.82,0,0,1-2.33,3.28c-3,3-6.07,6-9,9a4.47,4.47,0,0,1-6.77,0c-1.64-1.78-3.41-3.45-5.08-5.13l-8.06,8.08c.09.1.25.28.43.46q4.65,4.65,9.33,9.31a1.79,1.79,0,0,1,.57,1.79c-1.25,6.56-2.44,13.13-3.68,19.69a4.74,4.74,0,0,1-3.66,4,4.63,4.63,0,0,1-5-1.66,4.94,4.94,0,0,1-1-4c.73-4.68,1.47-9.36,2.18-14a1,1,0,0,0-.17-.74c-2.32-2.45-4.66-4.89-7-7.33a1.6,1.6,0,0,0-.27-.13,2.81,2.81,0,0,1-.32.47c-2.67,2.86-5.35,5.7-8,8.56a2.08,2.08,0,0,1-1.64.74H71.25A4.94,4.94,0,0,1,66,101.53c-.14-2.9,2.13-5.14,5.3-5.16,3.54,0,7.08,0,10.61,0a1.33,1.33,0,0,0,1.13-.5Q91.89,86,100.74,76.11c.13-.15.24-.31.45-.57-1,0-1.77,0-2.59,0-.21,0-.43.23-.6.4l-7.44,7.86A4.18,4.18,0,0,1,84.1,78.5a8.51,8.51,0,0,1,.71-.76c3.53-3.36,7.08-6.72,10.61-10.09a2.35,2.35,0,0,1,1.73-.7q6.18,0,12.35,0a5.6,5.6,0,0,1,4,1.58c2.71,2.55,5.46,5.06,8.2,7.58.89.82,1.18.82,2,0,1.88-1.89,3.8-3.72,5.61-5.68A4.36,4.36,0,0,1,137,72.17c0,.06.07.11.11.17Z"/><path class="cls-5" d="M122.35,56A7.35,7.35,0,1,1,115,63.26,7.42,7.42,0,0,1,122.35,56Z"/></g></svg>