<svg id="레이어_1" data-name="레이어 1" xmlns="http://www.w3.org/2000/svg" xmlns:xlink="http://www.w3.org/1999/xlink" viewBox="0 0 150 150"><defs><style>.cls-1{fill:none;}.cls-2{fill:#050b25;}.cls-3{fill:#033d83;}.cls-4{clip-path:url(#clip-path);}.cls-5{fill:#1083b4;}.cls-6{fill:#f5f5f5;}.cls-7{clip-path:url(#clip-path-2);}</style><clipPath id="clip-path"><path class="cls-1" d="M8,0H150a0,0,0,0,1,0,0V142a8,8,0,0,1-8,8H0a0,0,0,0,1,0,0V8A8,8,0,0,1,8,0Z"/></clipPath><clipPath id="clip-path-2"><rect class="cls-1" x="170" width="150" height="150" rx="8"/></clipPath></defs><rect class="cls-2" width="150" height="150" rx="8"/><path class="cls-3" d="M14.93,72.55a3.15,3.15,0,0,1-.55.19c-.23.05-.46.1-.72.14L12.9,73l-.72,0a5.34,5.34,0,0,1-1.86-.32,4.08,4.08,0,0,1-1.48-.92,4.23,4.23,0,0,1-1-1.5,5.77,5.77,0,0,1,0-3.93,4.39,4.39,0,0,1,.94-1.51,4,4,0,0,1,1.47-1,5,5,0,0,1,1.94-.36,8.79,8.79,0,0,1,1.31.09,7.36,7.36,0,0,1,1.12.25.46.46,0,0,1,.21.11.22.22,0,0,1,0,.16l-.18,1.07c0,.12-.05.18-.1.19a1,1,0,0,1-.26-.06A6,6,0,0,0,13.23,65,7.41,7.41,0,0,0,12.18,65a2.92,2.92,0,0,0-1.2.24,2.81,2.81,0,0,0-1,.68,3.07,3.07,0,0,0-.61,1,3.73,3.73,0,0,0-.23,1.32,4,4,0,0,0,.23,1.39,2.85,2.85,0,0,0,.62,1,2.58,2.58,0,0,0,1,.64,3.08,3.08,0,0,0,1.19.23q.45,0,.81,0a2.71,2.71,0,0,0,.56-.09V69.19H11.71a.21.21,0,0,1-.24-.24v-1c0-.16.09-.24.26-.24H14.8c.18,0,.29,0,.33.07a.66.66,0,0,1,0,.31v4a.6.6,0,0,1-.06.32A.66.66,0,0,1,14.93,72.55Z"/><path class="cls-3" d="M19.63,72.85a.35.35,0,0,1-.16,0s-.06-.08-.06-.19V63.87a1,1,0,0,1,0-.2s.09-.06.2-.06h2.14a4.63,4.63,0,0,1,1.22.15,2.69,2.69,0,0,1,.93.45,2,2,0,0,1,.59.76A2.55,2.55,0,0,1,24.72,66a2.08,2.08,0,0,1-.09.6,2,2,0,0,1-.26.55,2.22,2.22,0,0,1-.4.47,2.5,2.5,0,0,1-.54.35,2.33,2.33,0,0,1,.64.35,2.18,2.18,0,0,1,.48.48,2.23,2.23,0,0,1,.3.57,1.8,1.8,0,0,1,.1.6,2.59,2.59,0,0,1-.86,2.1,4,4,0,0,1-2.62.74ZM21,68.72v2.67h.48a3.16,3.16,0,0,0,.89-.1,1.72,1.72,0,0,0,.56-.27.91.91,0,0,0,.29-.42,1.61,1.61,0,0,0,.09-.54,1.51,1.51,0,0,0-.09-.53,1,1,0,0,0-.31-.43,1.67,1.67,0,0,0-.6-.28,3.69,3.69,0,0,0-.95-.1Zm0-3.66v2.32h.53a2.5,2.5,0,0,0,.72-.1,1.22,1.22,0,0,0,.46-.27.88.88,0,0,0,.24-.39,1.49,1.49,0,0,0,0-.9.92.92,0,0,0-.21-.34,1.22,1.22,0,0,0-.41-.23,1.85,1.85,0,0,0-.62-.09Z"/><path class="cls-3" d="M33.69,72.85a.38.38,0,0,1-.19,0,.46.46,0,0,1-.1-.17l-1.71-3.42h-1.1v3.36c0,.12,0,.19-.05.21a.26.26,0,0,1-.18,0H29.2a.3.3,0,0,1-.18,0s-.06-.09-.06-.21V63.85a.27.27,0,0,1,.06-.2.31.31,0,0,1,.17,0H31.6a4.24,4.24,0,0,1,1.22.16,2.64,2.64,0,0,1,.93.52,2.35,2.35,0,0,1,.59.87,3.32,3.32,0,0,1,.21,1.24,2.72,2.72,0,0,1-.37,1.47,2.76,2.76,0,0,1-1,1l2,3.7c.06.12.09.21.07.25s-.08.07-.2.07Zm-3.1-7.77v2.69h.8a1.7,1.7,0,0,0,1.12-.33,1.31,1.31,0,0,0,.4-1,1.38,1.38,0,0,0-.32-1,1.09,1.09,0,0,0-.82-.33Z"/><g class="cls-4"><path class="cls-5" d="M159.89,163.45H50.37c-1.68,0-2.82-.3-3.43-.89a4.56,4.56,0,0,1-.92-3.28V46l-14,11.64q-3.66,3-5.72.6L12.83,44.88c-.91-.92-1.18-1.75-.8-2.48a9.64,9.64,0,0,1,2.63-2.68l35.25-28.6a9.31,9.31,0,0,1,5.5-1.79H159.89"/><path class="cls-6" d="M136.13,113.72q0-10.65-6.15-16.35t-17.17-5.69a31.92,31.92,0,0,0-14.6,3.12,43.92,43.92,0,0,0-10.56,7.35H71.86l4.22-76.58h75.11V45h-54L95.73,79.56a55.07,55.07,0,0,1,10.47-4.78,43.92,43.92,0,0,1,14.14-2,40.87,40.87,0,0,1,16.9,3.3A37,37,0,0,1,149.63,85a37.61,37.61,0,0,1,7.62,12.94,45.74,45.74,0,0,1,2.58,15.25v2.75a49,49,0,0,1-2.67,15.8,38.79,38.79,0,0,1-8.45,14.14A43.92,43.92,0,0,1,134,156.05Q125.11,160,112.63,160a94.91,94.91,0,0,1-25.72-3.21,57.63,57.63,0,0,1-21.3-11.48L77,126.76a60.74,60.74,0,0,0,9,6.06,45.38,45.38,0,0,0,8.72,3.67,48.06,48.06,0,0,0,8.73,1.75,88.25,88.25,0,0,0,9,.46q12.12,0,17.91-6.52t5.78-16.44Z"/></g><g class="cls-7"><path class="cls-5" d="M149.2,81.31c-2.14,0-4,0-5.8,0-2.65,0-4.85-1-6.16-3.39s-.83-4.78.68-7c7.44-10.83,14.85-21.67,22.34-32.46,2.88-4.16,7.9-4.23,10.77-.1,7.54,10.84,15,21.75,22.46,32.63a6.25,6.25,0,0,1,.69,6.79c-1.27,2.47-3.44,3.43-6.09,3.49-1.75,0-3.5,0-5.27,0,1.79,24.37,20.31,46.68,44.55,53.78a62.92,62.92,0,0,0,72.32-29.25c1.26,1.8,2.46,3.51,3.64,5.22,1.81,2.62,3.56,5.27,5.41,7.85a18.67,18.67,0,0,0,15.44,8.25c.34,0,.67,0,1.06.07-15.08,24.82-48,47-88.61,43.4a93.23,93.23,0,0,1-60.13-28.45C160,125.34,151,105,149.2,81.31Z"/></g></svg>