<?xml version="1.0" encoding="UTF-8"?><svg id="Layer_2" xmlns="http://www.w3.org/2000/svg" xmlns:xlink="http://www.w3.org/1999/xlink" viewBox="0 0 150 150"><defs><style>.cls-1{fill:#f4f4f4;}.cls-2{fill:#184186;}.cls-3{fill:#111224;}.cls-4{clip-path:url(#clippath);}.cls-5{fill:none;}.cls-6{fill:#0089bf;}</style><clipPath id="clippath"><path class="cls-5" d="M8,0H150V142c0,4.42-3.58,8-8,8H0V8C0,3.58,3.58,0,8,0Z"/></clipPath></defs><g id="Layer_1-2"><g><rect class="cls-3" width="150" height="150" rx="8" ry="8"/><g><path class="cls-2" d="M14.93,72.55c-.14,.07-.33,.14-.55,.19-.22,.06-.46,.1-.71,.14-.25,.04-.51,.06-.77,.08-.26,.02-.5,.03-.71,.03-.67,0-1.29-.11-1.87-.32s-1.06-.52-1.48-.92c-.41-.4-.74-.9-.97-1.49-.24-.59-.35-1.27-.35-2.03,0-.69,.11-1.32,.33-1.91,.22-.58,.53-1.09,.94-1.51s.89-.75,1.47-.99c.58-.24,1.22-.35,1.94-.35,.47,0,.91,.03,1.31,.09,.4,.06,.77,.14,1.12,.25,.12,.04,.19,.08,.21,.11,.02,.04,.02,.09,0,.16l-.18,1.07c-.02,.12-.05,.18-.1,.19-.05,0-.14-.01-.26-.05-.36-.12-.71-.2-1.06-.25s-.7-.07-1.05-.07c-.44,0-.84,.08-1.21,.24-.36,.16-.68,.39-.94,.68-.26,.29-.47,.64-.62,1.04-.15,.4-.22,.84-.22,1.32,0,.52,.07,.98,.22,1.39,.15,.41,.36,.75,.62,1.04,.27,.28,.58,.5,.95,.65s.76,.22,1.19,.22c.3,0,.57,0,.81-.03,.24-.02,.43-.05,.56-.09v-2.22h-1.84c-.16,0-.24-.08-.24-.24v-1.02c0-.16,.08-.24,.25-.24h3.07c.18,0,.29,.02,.33,.07,.04,.05,.05,.15,.05,.31v3.98c0,.15-.02,.26-.06,.32-.04,.06-.1,.12-.19,.17Z"/><path class="cls-2" d="M19.63,72.85c-.07,0-.13,0-.17-.02-.04-.02-.06-.08-.06-.19v-8.76c0-.09,0-.15,.03-.2,.02-.04,.09-.07,.2-.07h2.14c.45,0,.85,.05,1.22,.15,.36,.1,.67,.25,.93,.45,.26,.2,.45,.46,.59,.76,.14,.31,.21,.67,.21,1.07,0,.2-.03,.4-.09,.59-.06,.2-.15,.38-.26,.55s-.25,.33-.41,.47c-.16,.14-.34,.26-.54,.35,.24,.09,.45,.2,.64,.35,.19,.14,.35,.31,.48,.49,.13,.18,.23,.37,.3,.57,.07,.2,.1,.4,.1,.6,0,.91-.29,1.61-.86,2.1-.58,.49-1.45,.73-2.62,.73h-1.84Zm1.38-4.13v2.68h.48c.36,0,.66-.03,.89-.1,.23-.07,.42-.16,.56-.28,.14-.12,.24-.26,.29-.42,.06-.16,.08-.34,.08-.53s-.03-.37-.09-.53c-.06-.16-.16-.31-.31-.43-.15-.12-.35-.21-.6-.28-.25-.07-.57-.1-.94-.1h-.36Zm.02-3.66v2.32h.53c.29,0,.53-.03,.72-.1,.19-.06,.35-.15,.46-.26s.2-.24,.25-.39c.05-.15,.07-.31,.07-.49,0-.14-.02-.28-.06-.41s-.11-.25-.21-.34c-.1-.1-.23-.17-.4-.23-.17-.06-.38-.09-.62-.09h-.73Z"/><path class="cls-2" d="M33.69,72.85c-.1,0-.16-.01-.19-.03-.03-.02-.06-.07-.1-.16l-1.7-3.42h-1.1v3.36c0,.11-.02,.18-.05,.21-.03,.03-.09,.04-.18,.04h-1.16c-.08,0-.14-.01-.18-.04-.04-.03-.06-.1-.06-.21v-8.75c0-.1,.02-.16,.07-.19,.04-.03,.1-.05,.16-.05h2.41c.45,0,.85,.06,1.22,.17s.67,.28,.93,.52c.26,.23,.45,.52,.59,.87,.14,.35,.21,.76,.21,1.24,0,.58-.12,1.07-.37,1.47-.25,.4-.58,.72-.98,.95l1.94,3.71c.06,.12,.09,.2,.07,.25-.02,.04-.08,.07-.2,.07h-1.32Zm-3.1-7.76v2.69h.8c.48,0,.85-.11,1.12-.33,.26-.22,.4-.57,.4-1.05,0-.43-.11-.76-.32-.98-.21-.22-.49-.33-.82-.33h-1.18Z"/></g><g class="cls-4"><path class="cls-6" d="M159.89,163.45H50.37c-1.68,0-2.83-.3-3.43-.89-.61-.6-.92-1.69-.92-3.28V45.95l-13.96,11.64c-2.44,1.99-4.35,2.18-5.72,.6l-13.5-13.31c-.91-.92-1.18-1.75-.8-2.48,.38-.73,1.26-1.62,2.63-2.68L49.91,11.12c1.68-1.19,3.51-1.79,5.49-1.79h104.49"/><path class="cls-1" d="M136.13,113.72c0-7.1-2.05-12.55-6.15-16.35-4.1-3.79-9.82-5.69-17.17-5.69-5.63,0-10.5,1.04-14.6,3.12-4.1,2.08-7.62,4.53-10.56,7.35h-18.23l4.22-76.58h77.54v19.47h-53.99l-1.47,34.53c3.06-1.84,6.55-3.43,10.47-4.78,3.92-1.35,8.63-2.02,14.14-2.02,6.37,0,12,1.1,16.9,3.31,4.9,2.2,9.03,5.17,12.4,8.91,3.37,3.74,5.91,8.05,7.62,12.95,1.71,4.9,2.57,9.98,2.57,15.24v2.75c0,5.27-.89,10.53-2.66,15.79-1.78,5.27-4.59,9.98-8.45,14.14s-8.76,7.56-14.69,10.19c-5.94,2.63-13.07,3.95-21.4,3.95-9.55,0-18.12-1.07-25.71-3.21-7.59-2.14-14.69-5.97-21.3-11.48l11.39-18.55c3.06,2.45,6.06,4.47,9,6.06,2.94,1.59,5.85,2.82,8.72,3.67,2.88,.86,5.79,1.44,8.72,1.74,2.94,.31,5.94,.46,9,.46,8.08,0,14.05-2.17,17.91-6.52,3.86-4.34,5.79-9.82,5.79-16.44v-2.02Z"/></g></g></g></svg>