<svg id="레이어_1" data-name="레이어 1" xmlns="http://www.w3.org/2000/svg" xmlns:xlink="http://www.w3.org/1999/xlink" viewBox="0 0 150 150"><defs><style>.cls-1{fill:none;}.cls-2{clip-path:url(#clip-path);}.cls-3{fill:#1083b4;}.cls-4{fill:#050b25;}.cls-5{clip-path:url(#clip-path-2);}.cls-6{fill:#f5f5f5;}.cls-7{clip-path:url(#clip-path-3);}</style><clipPath id="clip-path"><rect class="cls-1" x="-170" width="150" height="150" rx="8"/></clipPath><clipPath id="clip-path-2"><rect class="cls-1" width="150" height="150" rx="8"/></clipPath><clipPath id="clip-path-3"><rect class="cls-1" x="170" width="150" height="150" rx="8"/></clipPath></defs><g class="cls-2"><path class="cls-3" d="M13.52,76.28c-.84,1.46-1.6,3-2.55,4.37Q.62,95.79-9.79,110.85c-3.51,5.1-8.29,5.13-11.78.06q-10.75-15.6-21.49-31.23c-1.63-2.35-2.55-4.76-1.11-7.5s4-3.54,7-3.48c1.47,0,2.93,0,4.42,0a62.91,62.91,0,0,0-44.61-53.8c-25-7.31-56.38,1.43-72.33,29.28l-5.18-7.53c-1.4-2-2.76-4.1-4.24-6.08A18.55,18.55,0,0,0-174,22.86c-.35,0-.7,0-1-.07-.05,0-.08-.09-.13-.14,15.65-25.49,48.82-46.48,88.81-43.35C-47.07-17.63-2.82,15.34,1,68.68c4.64.22,10-1.2,12.56,4.64Z"/></g><rect class="cls-4" width="150" height="150" rx="8"/><g class="cls-5"><path class="cls-3" d="M150,8a8,8,0,0,0-8-8H8A8,8,0,0,0,0,8V142a8,8,0,0,0,8,8H48.69L150,48.69Z"/><path class="cls-6" d="M-68.63,213.66c-.48-.17-1-.38-1.44-.51a18.35,18.35,0,0,1-8.82-30.84c8.23-8.46,16.67-16.72,25-25.07q23.67-23.67,47.36-47.32A10.88,10.88,0,0,1-4,108.51l-.73-1c-4.25-.58-8.5-1.19-12.75-1.75-8.53-1.12-17.08-2.15-25.6-3.38-1.89-.28-2.67.17-3.43,1.91-6.25,14.35-12.52,28.7-19,43a18.3,18.3,0,0,1-28.17,7.22,18.15,18.15,0,0,1-5.71-21.38c7.86-18.15,15.7-36.33,24-54.26,4.84-10.41,13.7-15.55,25.2-15.21,14,.41,28.05,1.24,42.07,2a5.8,5.8,0,0,0,5-1.86c8.58-8.72,17.27-17.33,26.23-26.28-1.93-1.85-3.81-3.57-5.61-5.38C-1.06,13.43-1-14.41,17.55-33.09c4.32-4.33,8.57-8.74,13-12.94,5-4.75,11-6.32,17.66-4.07s10.5,7,11.58,13.91c.89,5.77-1,10.71-5,14.83C50.54-17,46.23-12.83,42-8.55c-5,5.09-5,11.08,0,16.17,4.18,4.22,8.39,8.41,12.83,12.86,2.47-6.6,7.36-11,12.24-15.33A25.1,25.1,0,0,1,102.3,40.78c-4.27,4.69-8.48,9.57-15,11.91.75.84,1.27,1.48,1.85,2.06,6,6,12,11.87,17.89,17.93,13.47,13.89,17,30,10.52,48.28-2.5,7-5.53,13.92-7.83,21-3.86,12-15.82,16.86-26.26,11-2.7,2.76-5.11,5.71-8,8.06a23.59,23.59,0,0,1-14.9,5,2.83,2.83,0,0,0-3,1.75c-6.25,12.39-18.67,19.38-33,17.83-14-1.51-23.8-9.19-28.92-22.5-.27-.69-.49-1.4-.91-2.66-2.66,2.77-5,5.29-7.41,7.72-2.66,2.67-5.76,2.94-8,.8s-2-5.39.73-8.16q42.95-43,85.91-85.91c3.24-3.24,5.77-3.2,9.08.09q7.52,7.47,15,15,9.62,9.72,4.8,22.54c-2.84,7.57-5.78,15.11-8.55,22.7-2,5.43,1.68,10.53,7.12,9.62,1.87-.32,4.44-1.76,5.06-3.33,4-10.22,8.43-20.42,11.14-31,2.81-10.94-.81-21-8.65-29.2-9-9.38-18.35-18.45-27.52-27.68a9.48,9.48,0,0,1-2.16-2.84,5,5,0,0,1,4.91-6.89c10.44.89,15.91-6.07,20.61-13.43,3.8-5.93,1.45-13.89-4.21-18.22a14.75,14.75,0,0,0-18.6.6,88.66,88.66,0,0,0-6.58,6.57,13.83,13.83,0,0,0-3.62,10.7c.2,2.72-.34,5-3.06,6.22s-4.75-.1-6.64-2c-6.43-6.49-12.94-12.9-19.36-19.39-9.08-9.19-9.07-21.65,0-30.83C38.75-20,42.87-24,46.92-28.15c3.44-3.48,3.68-7.52.7-10.51s-7.15-2.68-10.56.68c-4.49,4.41-9,8.82-13.33,13.36a34.69,34.69,0,0,0-.3,48c3.18,3.39,6.57,6.59,9.82,9.91,3,3,3,5.71,0,8.74C22.61,52.67,11.92,63.3,1.29,74a7.34,7.34,0,0,1-6.08,2.12Q-27,75-49.19,74c-8.63-.41-14.24,3.07-17.74,11-7.41,16.75-14.86,33.5-22.12,50.32A13.59,13.59,0,0,0-90,142.2c.44,3.2,3.64,5.52,6.79,5.79a8.06,8.06,0,0,0,8.29-5c3.35-7.46,6.61-14.95,9.91-22.43Q-59.42,108-53.83,95.35c1.54-3.48,3.13-4.33,6.9-3.84,14.51,1.92,29,3.88,43.53,5.73,4.42.56,7.68,2.56,9.18,6.81s.14,8-3.08,11.24q-29.19,29.11-58.32,58.3c-5.24,5.24-10.53,10.43-15.7,15.74-4.61,4.73-2.68,12.1,3.53,13.72A7.69,7.69,0,0,0-60.18,201c2.06-2,4-4,6.06-6,2.62-2.5,5.59-2.59,7.77-.33s2,5.12-.45,7.58a91.07,91.07,0,0,1-9.11,8.37c-2,1.5-4.67,2.08-7,3.07ZM53.51,102.2a12.08,12.08,0,0,0-1,.8Q28.92,126.55,5.4,150.15a4.65,4.65,0,0,0-1.09,2.95c-.14,10.75,8.6,20.38,20,22.19,11,1.74,21.59-4.49,25-14.64,1.76-5.22,3-6,8.35-5.08,8.53,1.39,16.6-4.5,17.55-12.79,1-8.49-5.43-15.76-14.82-16.86-5.65-.66-7.22-3.44-4.93-8.68S57,107,53.51,102.2Zm26.06,21.41c2-5.3,4.22-11,6.16-16.72a7.14,7.14,0,0,0-1.28-7.34c-4.69-4.74-9.72-9.16-14.21-13.33l-9,9a25.68,25.68,0,0,1,5.66,19.93A2.48,2.48,0,0,0,68,117C71.76,119.21,75.55,121.32,79.57,123.61Z"/><path class="cls-6" d="M49.28,99-.84,149.1,2.51,160l20.83.35,45.53-4.06S77,143.27,77.16,143.8,75,129.15,75,129.15L62.34,118.74l-6-17.47Z"/></g><g class="cls-7"><path class="cls-6" d="M219.94,102.47a4.07,4.07,0,0,1-1.36,1.66q-8.07,6.75-16.12,13.52a2.22,2.22,0,0,1-3,.23,11.65,11.65,0,0,1-2.05-2.43,2.11,2.11,0,0,1,.44-2.62,4.21,4.21,0,0,1,.44-.39l9.22-7.72c.12-.09.22-.19.4-.35l-.57-.05-71.27-6.23a2.44,2.44,0,0,1-2.48-3l.12-1.42a2.34,2.34,0,0,1,2.79-2.36l57.69,5,13.66,1.19.56.05-.33-.4L200.28,88a2.26,2.26,0,0,1-.21-3,11.91,11.91,0,0,1,2.43-2,2.16,2.16,0,0,1,2.66.45c.14.14.26.29.39.44q6.69,8,13.39,16a4,4,0,0,1,1.07,1.91Z"/></g></svg>