<svg id="레이어_1" data-name="레이어 1" xmlns="http://www.w3.org/2000/svg" xmlns:xlink="http://www.w3.org/1999/xlink" viewBox="0 0 150 150"><defs><style>.cls-1{fill:none;}.cls-2{fill:#050b25;}.cls-3{clip-path:url(#clip-path);}.cls-4{fill:#f5f5f5;}.cls-5{fill:#1083b4;}.cls-6{clip-path:url(#clip-path-2);}</style><clipPath id="clip-path"><rect class="cls-1" width="150" height="150" rx="8"/></clipPath><clipPath id="clip-path-2"><rect class="cls-1" x="170" width="150" height="150" rx="8"/></clipPath></defs><rect class="cls-2" width="150" height="150" rx="8"/><g class="cls-3"><path class="cls-4" d="M110.31,119a10,10,0,0,1-5.22-3.23c-7.51-7.51-15.07-15-22.59-22.49A1.09,1.09,0,0,0,80.92,93a31.87,31.87,0,0,1-19.71,3.92A32.29,32.29,0,0,1,37.94,83.1,32,32,0,0,1,32.14,60,32.15,32.15,0,0,1,43.25,39.12a31.23,31.23,0,0,1,16.49-7.69C72.57,29.66,83.17,33.88,91.23,44A31.55,31.55,0,0,1,98,64.8a32.51,32.51,0,0,1-5.69,17.82c-.11.17-.21.34-.51.75a4.62,4.62,0,0,1,.87.56q11.58,11.46,23.13,22.93a6.88,6.88,0,0,1,1.26,8.77,6.52,6.52,0,0,1-3.92,3c-.32.09-.64.21-1,.32ZM65,85.44A21.33,21.33,0,1,0,43.6,64.25,21.37,21.37,0,0,0,65,85.44Z"/><path class="cls-5" d="M183.52,76.28c-.84,1.46-1.6,3-2.55,4.37q-10.35,15.13-20.76,30.2c-3.51,5.1-8.29,5.13-11.78.06q-10.76-15.6-21.49-31.23c-1.63-2.35-2.55-4.76-1.11-7.5s4-3.54,7-3.48c1.47,0,2.93,0,4.42,0a62.91,62.91,0,0,0-44.61-53.8c-25-7.31-56.38,1.43-72.33,29.28l-5.18-7.53c-1.4-2-2.76-4.1-4.24-6.08A18.55,18.55,0,0,0-4,22.86c-.35,0-.7,0-1.05-.07,0,0-.08-.09-.13-.14C10.45-2.84,43.62-23.83,83.61-20.7c39.32,3.07,83.57,36,87.35,89.38,4.64.22,10-1.2,12.56,4.64Z"/><path class="cls-5" d="M-20.8,81.31c-2.14,0-4,0-5.8,0-2.65,0-4.85-1-6.16-3.39s-.83-4.78.68-7c7.44-10.83,14.85-21.67,22.34-32.46,2.88-4.16,7.9-4.23,10.77-.1C8.57,49.23,16,60.14,23.49,71a6.25,6.25,0,0,1,.69,6.79c-1.27,2.47-3.44,3.43-6.09,3.49-1.75,0-3.5,0-5.27,0,1.79,24.37,20.31,46.68,44.55,53.78a62.92,62.92,0,0,0,72.32-29.25c1.26,1.8,2.46,3.51,3.64,5.22,1.81,2.62,3.56,5.27,5.41,7.85a18.67,18.67,0,0,0,15.44,8.25c.34,0,.67,0,1.06.07-15.08,24.82-48,47-88.61,43.4A93.23,93.23,0,0,1,6.5,142.18C-10,125.34-19,105-20.8,81.31Z"/></g><g class="cls-6"><path class="cls-4" d="M101.37,213.66c-.48-.17-1-.38-1.44-.51a18.35,18.35,0,0,1-8.82-30.84c8.23-8.46,16.67-16.72,25-25.07q23.67-23.67,47.36-47.32a10.88,10.88,0,0,1,2.48-1.41l-.73-1c-4.25-.58-8.5-1.19-12.75-1.75-8.53-1.12-17.08-2.15-25.6-3.38-1.89-.28-2.67.17-3.43,1.91-6.25,14.35-12.52,28.7-19,43A18.36,18.36,0,0,1,70.59,133.1c7.86-18.15,15.7-36.33,24-54.26,4.84-10.41,13.7-15.55,25.2-15.21,14,.41,28,1.24,42.07,2a5.8,5.8,0,0,0,5-1.86c8.58-8.72,17.27-17.33,26.23-26.28-1.93-1.85-3.81-3.57-5.61-5.38-18.57-18.7-18.55-46.54,0-65.22,4.32-4.33,8.57-8.74,13-12.94,5-4.75,11-6.32,17.66-4.07s10.5,7,11.58,13.91c.89,5.77-1,10.71-5,14.83C220.54-17,216.23-12.83,212-8.55c-5,5.09-5,11.08,0,16.17,4.18,4.22,8.39,8.41,12.83,12.86,2.47-6.6,7.36-11,12.24-15.33A25.1,25.1,0,0,1,272.3,40.78c-4.27,4.69-8.48,9.57-15,11.91.75.84,1.27,1.48,1.85,2.06,6,6,12,11.87,17.89,17.93,13.47,13.89,17,30,10.52,48.28-2.5,7-5.53,13.92-7.83,21-3.86,12-15.82,16.86-26.26,11-2.7,2.76-5.11,5.71-8,8.06a23.59,23.59,0,0,1-14.9,5,2.83,2.83,0,0,0-3,1.75c-6.25,12.39-18.67,19.38-33.05,17.83-14.05-1.51-23.8-9.19-28.92-22.5-.27-.69-.49-1.4-.91-2.66-2.66,2.77-5,5.29-7.41,7.72-2.66,2.67-5.76,2.94-8,.8s-2-5.39.73-8.16q42.94-43,85.91-85.91c3.24-3.24,5.77-3.2,9.08.09q7.51,7.47,15,15,9.61,9.72,4.8,22.54c-2.84,7.57-5.78,15.11-8.55,22.7-2,5.43,1.68,10.53,7.12,9.62,1.87-.32,4.44-1.76,5.06-3.33,4-10.22,8.43-20.42,11.14-31,2.81-10.94-.81-21-8.65-29.2-9-9.38-18.35-18.45-27.52-27.68a9.48,9.48,0,0,1-2.16-2.84,5,5,0,0,1,4.91-6.89c10.44.89,15.91-6.07,20.61-13.43,3.8-5.93,1.45-13.89-4.21-18.22a14.75,14.75,0,0,0-18.6.6,88.66,88.66,0,0,0-6.58,6.57,13.83,13.83,0,0,0-3.62,10.7c.2,2.72-.34,5-3.06,6.22s-4.75-.1-6.64-2c-6.43-6.49-12.94-12.9-19.36-19.39-9.08-9.19-9.07-21.65,0-30.83,4.06-4.1,8.18-8.14,12.23-12.25,3.44-3.48,3.68-7.52.7-10.51s-7.15-2.68-10.56.68c-4.49,4.41-9,8.82-13.33,13.36a34.69,34.69,0,0,0-.3,48c3.18,3.39,6.57,6.59,9.82,9.91,3,3,3,5.71,0,8.74-10.64,10.68-21.33,21.31-32,32a7.34,7.34,0,0,1-6.08,2.12Q143,75,120.81,74c-8.63-.41-14.24,3.07-17.74,11C95.66,101.7,88.21,118.45,81,135.27A13.59,13.59,0,0,0,80,142.2c.44,3.2,3.64,5.52,6.79,5.79a8.06,8.06,0,0,0,8.29-5c3.35-7.46,6.61-14.95,9.91-22.43q5.58-12.63,11.17-25.25c1.54-3.48,3.13-4.33,6.9-3.84,14.51,1.92,29,3.88,43.53,5.73,4.42.56,7.68,2.56,9.18,6.81s.14,8-3.08,11.24q-29.19,29.11-58.32,58.3c-5.24,5.24-10.53,10.43-15.7,15.74-4.61,4.73-2.68,12.1,3.53,13.72a7.69,7.69,0,0,0,7.61-2.08c2.06-2,4-4,6.06-6,2.62-2.5,5.59-2.59,7.77-.33s2,5.12-.45,7.58a91.07,91.07,0,0,1-9.11,8.37c-2,1.5-4.67,2.08-7,3.07ZM223.51,102.2a12.08,12.08,0,0,0-1,.8q-23.56,23.55-47.08,47.15a4.65,4.65,0,0,0-1.09,2.95c-.14,10.75,8.6,20.38,20,22.19,11,1.74,21.59-4.49,25-14.64,1.76-5.22,3-6,8.35-5.08,8.53,1.39,16.6-4.5,17.55-12.79,1-8.49-5.43-15.76-14.82-16.86-5.65-.66-7.22-3.44-4.93-8.68S227,107,223.51,102.2Zm26.06,21.41c2-5.3,4.22-11,6.16-16.72a7.14,7.14,0,0,0-1.28-7.34c-4.69-4.74-9.72-9.16-14.21-13.33l-9,9a25.68,25.68,0,0,1,5.66,19.93A2.48,2.48,0,0,0,238,117C241.76,119.21,245.55,121.32,249.57,123.61Z"/></g></svg>