<?xml version="1.0" encoding="UTF-8"?><svg id="Layer_2" xmlns="http://www.w3.org/2000/svg" xmlns:xlink="http://www.w3.org/1999/xlink" viewBox="0 0 192 192"><defs><style>.cls-1{fill:#0f639d;}.cls-2{fill:url(#linear-gradient-2);}.cls-3{fill:#fff;}.cls-4,.cls-5,.cls-6{stroke:#fff;stroke-miterlimit:10;}.cls-4,.cls-6{stroke-width:2px;}.cls-4,.cls-7{fill:#1283b4;}.cls-5,.cls-6,.cls-8{fill:none;}.cls-9{clip-path:url(#clippath);}.cls-10{fill:#060c26;}.cls-11{fill:url(#linear-gradient);}</style><clipPath id="clippath"><rect class="cls-8" width="192" height="192"/></clipPath><linearGradient id="linear-gradient" x1="96" y1="0" x2="96" y2="192" gradientTransform="matrix(1, 0, 0, 1, 0, 0)" gradientUnits="userSpaceOnUse"><stop offset="0" stop-color="#1283b4"/><stop offset=".14" stop-color="#0e6490"/><stop offset=".32" stop-color="#0b456a"/><stop offset=".5" stop-color="#092c4c"/><stop offset=".67" stop-color="#071a37"/><stop offset=".84" stop-color="#060f2a"/><stop offset="1" stop-color="#060c26"/></linearGradient><linearGradient id="linear-gradient-2" x1="97.65" y1="20.45" x2="97.65" y2="212.45" gradientTransform="translate(-1.65 -20.45)" xlink:href="#linear-gradient"/></defs><g id="_이어_1"><g class="cls-9"><rect class="cls-8" y=".42" width="191.75" height="191.16"/><rect class="cls-11" width="192" height="192"/><rect class="cls-2" width="192" height="192" transform="translate(192 192) rotate(180)"/><g><path class="cls-8" d="M39.95,89.45c.98,.1,1.98,.02,2.97,.02h0c.99,.01,1.99,.08,2.97,0,2.38-.19,4.15-2.11,4.17-4.42,.01-2.31-1.75-4.31-4.12-4.45-1.97-.12-3.97-.12-5.94,0-2.29,.15-4.02,2.07-4.08,4.3-.06,2.3,1.68,4.31,4.03,4.54Z"/><path class="cls-8" d="M62.91,89.47c1.05,.07,2.1,.01,3.16,.01h0c1.11,0,2.23,.07,3.34-.02,2.37-.2,4.14-2.14,4.13-4.45,0-2.31-1.79-4.29-4.16-4.41-2.16-.11-4.34-.11-6.5,0-2.39,.11-4.18,2.04-4.23,4.35-.04,2.38,1.78,4.35,4.25,4.53Z"/><path class="cls-8" d="M86.97,89.48c1.17,.05,2.35,0,3.53,0h0c1.24,0,2.48,.05,3.71-.02,2.48-.15,4.32-2.1,4.3-4.48-.02-2.38-1.87-4.32-4.37-4.41-2.41-.08-4.83-.08-7.24,0-2.51,.08-4.36,2-4.39,4.39-.03,2.46,1.86,4.4,4.46,4.52Z"/><path class="cls-8" d="M110.89,89.46c1.11,.09,2.23,.02,3.34,.02h0c1.11,0,2.24,.08,3.34-.03,2.36-.22,4.1-2.22,4.05-4.52-.05-2.23-1.77-4.18-4.05-4.32-2.22-.13-4.46-.13-6.68,0-2.38,.12-4.15,2.11-4.15,4.43,0,2.31,1.77,4.25,4.15,4.44Z"/><path class="cls-8" d="M134.89,89.47c1.23,.08,2.48,.01,3.71,.01h0c1.18,0,2.35,.05,3.53,0,2.6-.12,4.49-2.06,4.47-4.51-.03-2.38-1.88-4.31-4.38-4.39-2.41-.08-4.83-.08-7.24,0-2.5,.09-4.35,2.02-4.37,4.4-.02,2.38,1.81,4.34,4.29,4.49Z"/><path class="cls-6" d="M98.73,102.9c-3.51,0-7.03,0-10.54,0,.65,.59,1.25,1.22,1.79,1.92,1.33,1.74,2.32,3.75,2.97,6.01,.65,2.26,.96,4.62,.93,7.07-.03,2.77-.36,5.27-1,7.52-.63,2.25-1.63,4.24-2.99,5.96-1.49,1.85-3.25,3.22-5.27,4.1-.2,.09-.42,.15-.63,.23,.89,0,1.78,0,2.66,0,4.11,0,8.21,0,12.32,0-.15-.17-.23-.42-.23-.75v-32.07Z"/><path class="cls-6" d="M86.53,122.67c.36-1.57,.55-3.16,.55-4.76s-.18-3.13-.55-4.69c-.36-1.56-.93-2.95-1.69-4.17-.76-1.23-1.73-2.22-2.9-2.99-1.17-.77-2.58-1.15-4.23-1.15s-3.06,.37-4.25,1.11c-1.19,.74-2.17,1.72-2.94,2.95-.78,1.23-1.35,2.62-1.71,4.17-.36,1.56-.55,3.15-.55,4.78s.18,3.23,.55,4.78c.36,1.56,.93,2.95,1.71,4.17,.78,1.23,1.76,2.22,2.94,2.97,1.19,.75,2.6,1.13,4.25,1.13s3.02-.38,4.2-1.13c1.19-.75,2.16-1.74,2.92-2.97,.76-1.23,1.32-2.62,1.69-4.2Z"/><path class="cls-6" d="M65.35,131.13c-1.31-1.74-2.28-3.76-2.9-6.03-.62-2.28-.93-4.67-.93-7.19s.32-4.82,.95-7.09c.63-2.28,1.61-4.29,2.94-6.03,.52-.68,1.11-1.29,1.73-1.86-3.5,0-7,0-10.5,0l-.06,2.64c0,.54-.13,.83-.38,.9-.25,.06-.66,.02-1.23-.14-1.42-.41-2.7-.68-3.82-.82-1.12-.14-2.29-.21-3.49-.21-1.77,0-3.36,.31-4.77,.92-1.41,.61-2.6,1.48-3.59,2.59-.98,1.12-1.73,2.44-2.26,3.98-.52,1.54-.78,3.24-.78,5.09s.29,3.5,.86,5.02c.57,1.53,1.36,2.84,2.37,3.96,1.01,1.12,2.21,2.01,3.59,2.69,1.38,.68,2.89,1.09,4.54,1.25,1.52,.16,2.98,.1,4.37-.16,1.39-.27,2.53-.56,3.42-.87,.41-.16,.68-.2,.81-.12,.13,.08,.21,.28,.24,.59l.24,4.24c.03,.35-.02,.58-.14,.71-.13,.13-.36,.25-.71,.38-.18,.06-.37,.12-.56,.18,5.39,0,10.78,0,16.17,0-.36-.14-.72-.27-1.06-.44-2.04-1.02-3.72-2.4-5.03-4.15Z"/><polygon class="cls-6" points="131.58 121.63 141.89 121.63 136.76 108.29 131.58 121.63"/><path class="cls-6" d="M34.83,131.51c-1.61-1.65-2.87-3.63-3.78-5.94-.9-2.31-1.35-4.88-1.35-7.71s.45-5.3,1.35-7.61c.9-2.31,2.16-4.29,3.78-5.94,.49-.5,1.02-.96,1.57-1.39-9.54,0-19.08,0-28.62,0-4.68,0-6.61,3.13-4.52,7.33,3.63,7.27,7.34,14.5,10.87,21.82,1.27,2.64,3.06,3.71,5.99,3.7,7.24-.02,14.49-.02,21.73-.03-.4-.13-.81-.25-1.2-.41-2.26-.9-4.2-2.17-5.82-3.82Z"/><path class="cls-6" d="M190.01,100.15c-.69-2.19-2.32-3.19-5.27-3.19-8.14,0-16.3,.36-24.41-.1-7.15-.41-13.73,.66-19.86,4.1l13.57,33.88c.17,.43,.2,.72,.1,.89,2.03-.14,3.46-1.03,4.58-2.88,1.22-2.01,2.59-3.96,4.14-5.71,7.29-8.23,15.89-14.97,24.69-21.48,2.3-1.7,3.09-3.45,2.45-5.5Z"/><path class="cls-6" d="M119.52,134.83l12.87-31.95c-9.06,0-18.13,0-27.19,.01v27.17h11.45c.35,0,.59,.07,.71,.21,.13,.14,.19,.39,.19,.73v4.05c0,.3-.06,.51-.15,.65,.69,0,1.38,0,2.06,0-.13-.18-.12-.47,.07-.89Z"/><path class="cls-5" d="M144.12,127.43h-14.77l-2.99,7.78c-.1,.23-.2,.4-.3,.52,7.13,0,14.25,0,21.38,.02-.11-.12-.22-.29-.32-.53l-2.99-7.78Z"/><g><path class="cls-4" d="M189.17,128.15c-3.25-.31-13.73-2.11-23.7-3.94-.88,.92-1.75,1.85-2.6,2.81-1.12,1.26-2.14,2.62-3.07,4.03-.36,.54-.71,1.09-1.05,1.64l-.02,.04c-1.12,1.85-2.55,2.74-4.58,2.88,.1-.17,.07-.46-.1-.89l-.57-1.43-1.38-3.44-3.24-8.1c-2.29-.25-4.67-.48-7.13-.66l.16,.42h-10.31l.37-.94c-2.18-.07-4.41-.1-6.7-.09l-1.67,4.14-4.07,10.1c-.05,.12-.09,.23-.11,.32-.06,.25-.05,.44,.05,.56-.69,0-1.38,0-2.06,0,.09-.13,.14-.33,.14-.59,0-.02,0-.04,0-.07v-4.05c0-.35-.06-.59-.19-.73-.13-.14-.36-.21-.71-.21h-11.45v-8.92c-2.18-.42-4.34-.83-6.46-1.24v15.06c0,.33,.08,.58,.23,.75-4.11,0-8.21,0-12.32,0-.89,0-1.78,0-2.66,0,.21-.08,.42-.14,.63-.23,1.45-.63,2.76-1.52,3.94-2.66,.46-.45,.91-.92,1.33-1.44,1.36-1.73,2.36-3.72,2.99-5.96,.22-.78,.39-1.6,.54-2.44,.22-1.26,.36-2.59,.42-3.99-2.3-.42-4.56-.83-6.75-1.21,0,.04,0,.08,0,.12,0,1.6-.18,3.19-.55,4.76-.09,.41-.2,.8-.33,1.19-.35,1.1-.8,2.1-1.36,3.01-.76,1.23-1.73,2.22-2.92,2.97-1.07,.68-2.31,1.03-3.72,1.1-.16,0-.32,.03-.48,.03-1.65,0-3.06-.38-4.25-1.13-1.19-.75-2.17-1.74-2.94-2.97-.24-.38-.46-.79-.66-1.2-.45-.91-.8-1.9-1.05-2.97-.36-1.56-.55-3.15-.55-4.78,0-.87,.06-1.73,.16-2.58-2.24-.12-4.49-.17-6.75-.16-.09,.9-.15,1.82-.15,2.74,0,2.52,.31,4.91,.93,7.19,.12,.44,.26,.85,.4,1.27,.15,.43,.31,.84,.49,1.24,.54,1.27,1.2,2.45,2.01,3.52,1.31,1.74,2.99,3.13,5.03,4.15,.34,.17,.7,.3,1.06,.44-5.39,0-10.78,0-16.17,0,.19-.06,.38-.12,.56-.18,.35-.13,.59-.25,.71-.38,.13-.13,.17-.36,.14-.71l-.24-4.24c-.03-.31-.11-.51-.24-.59-.13-.08-.4-.04-.81,.12-.89,.31-2.03,.61-3.42,.87-1.39,.27-2.85,.32-4.37,.16-1.65-.16-3.16-.57-4.54-1.25-.72-.35-1.38-.76-2-1.23-.57-.43-1.1-.92-1.59-1.45-.5-.55-.95-1.16-1.35-1.81-.4-.66-.74-1.38-1.03-2.15-.57-1.52-.86-3.2-.86-5.02,0-.15,.01-.3,.02-.45-2.23,.36-4.41,.75-6.54,1.16,.07,2.4,.46,4.61,1.2,6.62,.05,.12,.08,.26,.13,.38,.47,1.21,1.05,2.33,1.72,3.36,.61,.93,1.29,1.8,2.05,2.58,1.62,1.65,3.55,2.92,5.82,3.82,.39,.15,.8,.28,1.2,.41-7.26,0-14.53,0-21.79,.03-2.52,0-4.83-1.43-5.93-3.7-.3-.63-.61-1.25-.92-1.87-.35-.72-.71-1.45-1.06-2.17-.78-1.58-1.56-3.15-2.34-4.72-8.08,2.27-10.92,4.22-10.92,4.22v65.51l193.11-.17V127.67s-1.46,.18-2.83,.48Zm-63.11,7.46c.1-.12,.2-.29,.3-.52l.03-.09,2.96-7.69h14.77l.48,1.25,2.07,5.38,.44,1.15c.1,.24,.21,.41,.32,.53-7.13,0-14.25-.01-21.38-.02Z"/><g><path class="cls-10" d="M38.14,124.92c-.4-.66-.74-1.38-1.03-2.15-.57-1.52-.86-3.2-.86-5.02,0-.15,.01-.3,.02-.45-2.23,.36-4.41,.75-6.54,1.16,.07,2.4,.46,4.61,1.2,6.62,2.29-.12,4.69-.18,7.21-.16Z"/><path class="cls-10" d="M12.15,127.91c-.78-1.58-1.56-3.15-2.34-4.72-8.08,2.27-10.92,4.22-10.92,4.22v3.54s.4-.17,5.15-.39c2.2-.88,4.91-1.8,8.11-2.64Z"/><path class="cls-10" d="M62.45,124.99c.12,.44,.26,.85,.4,1.27,2.3-.22,4.64-.46,7.01-.7-.45-.91-.8-1.9-1.05-2.97-.36-1.56-.55-3.15-.55-4.78,0-.87,.06-1.73,.16-2.58-2.24-.12-4.49-.17-6.75-.16-.09,.9-.15,1.82-.15,2.74,0,2.52,.31,4.91,.93,7.19Z"/><path class="cls-10" d="M86.53,122.56c-.09,.41-.2,.8-.33,1.19,2.38-.28,4.78-.57,7.2-.87,.22-1.26,.36-2.59,.42-3.99-2.3-.42-4.56-.83-6.75-1.21,0,.04,0,.08,0,.12,0,1.6-.18,3.19-.55,4.76Z"/><path class="cls-10" d="M105.19,121.48v-.44c-2.18-.42-4.34-.83-6.46-1.24v2.4c2.19-.28,4.33-.51,6.46-.72Z"/><path class="cls-1" d="M137.7,127.32h6.41l.48,1.25c2.55,.45,5.06,.88,7.5,1.28l-3.24-8.1c-2.29-.25-4.67-.48-7.13-.66l.16,.42h-10.31l.37-.94c-2.18-.07-4.41-.1-6.7-.09l-1.67,4.14c4.75,.92,9.49,1.84,14.12,2.7Z"/><path class="cls-1" d="M159.8,131.05c1.95,.28,3.83,.53,5.65,.75,9.64-1.38,20.37-2.92,23.72-3.65-3.25-.31-13.73-2.11-23.7-3.94-.88,.92-1.75,1.85-2.6,2.81-1.12,1.26-2.14,2.62-3.07,4.03Z"/><path class="cls-1" d="M146.67,133.95c2.34-.2,4.61-.42,6.8-.65l-1.38-3.44c-2.44-.4-4.94-.83-7.5-1.28l2.07,5.38Z"/><path class="cls-1" d="M-1.11,130.95v3.41s.2-1.83,5.15-3.8c-4.75,.22-5.15,.39-5.15,.39Z"/><path class="cls-1" d="M165.44,131.8c-1.81-.22-3.7-.47-5.65-.75-.36,.54-.71,1.09-1.05,1.64,2.34-.29,4.58-.59,6.69-.89Z"/><path class="cls-1" d="M70.52,126.76c-.24-.38-.46-.79-.66-1.2-2.37,.25-4.71,.48-7.01,.7,.15,.43,.31,.84,.49,1.24,3.26,.62,6.63,1.34,10.13,2.22-1.19-.75-2.17-1.74-2.94-2.97Z"/><path class="cls-1" d="M137.7,127.32c-4.63-.86-9.37-1.77-14.12-2.7l-4.07,10.1c-.05,.12-.09,.23-.11,.33,2.35,.02,4.68,0,6.98-.03l2.96-7.69h8.36Z"/><path class="cls-1" d="M117.54,130.91c0-.35-.06-.59-.19-.73-.13-.14-.36-.21-.71-.21h-11.45v-8.48c-2.13,.21-4.27,.44-6.46,.72v11.79c6.33,.62,12.63,.94,18.8,1.04,0-.02,0-.04,0-.07v-4.05Z"/><path class="cls-1" d="M89.88,131.28c1.36-1.73,2.36-3.72,2.99-5.96,.22-.78,.39-1.6,.54-2.44-2.42,.3-4.82,.59-7.2,.87-.35,1.1-.8,2.1-1.36,3.01-.76,1.23-1.73,2.22-2.92,2.97-1.07,.68-2.31,1.03-3.72,1.1,3.42,.74,6.88,1.37,10.35,1.9,.46-.45,.91-.92,1.33-1.44Z"/><path class="cls-7" d="M192,127.67s-1.46,.18-2.83,.48c1.3,.13,2.76,0,2.83-.48Z"/><path class="cls-7" d="M39.48,126.73c-.5-.55-.95-1.16-1.35-1.81-2.52-.02-4.93,.04-7.21,.16,.05,.12,.08,.26,.13,.38,.47,1.21,1.05,2.33,1.72,3.36,2.66-.19,5.43-.4,8.3-.63-.57-.43-1.1-.92-1.59-1.45Z"/><path class="cls-7" d="M4.04,130.56c2.5-.12,5.58-.27,9.17-.47-.35-.72-.71-1.45-1.06-2.17-3.2,.84-5.91,1.76-8.11,2.64Z"/><path class="cls-7" d="M192,131.4v-3.72c-.08,.49-1.53,.6-2.83,.48-3.36,.73-14.09,2.27-23.72,3.65,10.7,1.3,23.15,1.42,26.56-.4Z"/><path class="cls-7" d="M165.44,131.8c-2.12,.3-4.35,.6-6.69,.89h0c-1.12,1.87-2.56,2.77-4.6,2.92,.1-.17,.07-.46-.1-.89l-.57-1.43c-2.2,.23-4.47,.45-6.8,.65l.44,1.15c.1,.24,.21,.41,.32,.53-7.13,0-14.25-.01-21.38-.02,.1-.12,.2-.29,.3-.52l.03-.09c-2.3,.04-4.63,.05-6.98,.03-.06,.25-.05,.44,.05,.56-.69,0-1.38,0-2.06,0,.09-.13,.14-.33,.14-.59-6.17-.1-12.47-.42-18.8-1.04v.88c0,.33,.08,.58,.23,.75-4.11,0-8.21,0-12.32,0-.89,0-1.78,0-2.66,0,.21-.08,.42-.14,.63-.23,1.45-.63,2.76-1.52,3.94-2.66-3.47-.53-6.92-1.15-10.35-1.9-.16,0-.32,.03-.48,.03-1.65,0-3.06-.38-4.25-1.13-3.5-.88-6.87-1.61-10.13-2.22,.54,1.27,1.2,2.45,2.01,3.52,1.31,1.74,2.99,3.13,5.03,4.15,.34,.17,.7,.3,1.06,.44-5.39,0-10.78,0-16.17,0,.19-.06,.38-.12,.56-.18,.35-.13,.59-.25,.71-.38,.13-.13,.17-.36,.14-.71l-.24-4.24c-.03-.31-.11-.51-.24-.59-.13-.08-.4-.04-.81,.12-.89,.31-2.03,.61-3.42,.87-1.39,.27-2.85,.32-4.37,.16-1.65-.16-3.16-.57-4.54-1.25-.72-.35-1.38-.76-2-1.23-2.87,.23-5.64,.44-8.3,.63,.61,.93,1.29,1.8,2.05,2.58,1.62,1.65,3.55,2.92,5.82,3.82,.39,.15,.8,.28,1.2,.41-7.26,0-14.53,0-21.79,.03-2.52,0-4.83-1.43-5.93-3.7-.3-.63-.61-1.25-.92-1.87-3.59,.2-6.67,.36-9.17,.47-4.95,1.98-5.15,3.8-5.15,3.8v58.57l193.11-.17v-61.36c-3.41,1.82-15.85,1.71-26.56,.4Z"/></g></g><path class="cls-3" d="M128.15,98.54c5.38,.03,10.3-.67,14.83-3.6,3.2-2.07,6.7-2.69,10.48-2.5,3.43,.18,6.88,.04,10.43,.04-.12-.41-.13-.6-.22-.75-3.25-5.43-6.5-10.86-9.76-16.28-1.02-1.7-2.56-2.37-4.53-2.37-39.37,.02-78.73,.02-118.1,0-2.5,0-4.09,1.11-4.99,3.39-1.54,3.92-3.11,7.83-4.68,11.75-1.33,3.33-2.66,6.65-4.08,10.22h2.58c36.01,0,72.03-.08,108.04,.09Zm6.82-17.96c2.41-.08,4.83-.08,7.24,0,2.5,.08,4.35,2.01,4.38,4.39,.03,2.45-1.86,4.39-4.47,4.51-1.17,.05-2.35,0-3.53,0h0c-1.24,0-2.48,.05-3.71-.02-2.48-.15-4.31-2.11-4.29-4.49,.02-2.38,1.87-4.32,4.37-4.4Zm-24.09,.02c2.22-.12,4.46-.12,6.68,0,2.28,.14,4.01,2.09,4.05,4.32,.05,2.3-1.69,4.3-4.05,4.52-1.1,.1-2.23,.02-3.34,.02h0c-1.11,0-2.23,.08-3.34,0-2.38-.19-4.15-2.13-4.15-4.44,0-2.31,1.76-4.3,4.15-4.43Zm-23.98-.02c2.41-.08,4.83-.08,7.24,0,2.5,.09,4.35,2.02,4.37,4.41,.02,2.38-1.81,4.33-4.3,4.48-1.23,.07-2.48,.01-3.71,.01h0c-1.18,0-2.35,.05-3.53,0-2.6-.12-4.49-2.06-4.46-4.52,.03-2.38,1.88-4.3,4.39-4.39Zm-24.02,.01c2.16-.1,4.34-.11,6.5,0,2.37,.13,4.15,2.11,4.16,4.41,0,2.31-1.76,4.26-4.13,4.45-1.11,.09-2.23,.02-3.34,.02h0c-1.05,0-2.11,.07-3.16,0-2.47-.17-4.3-2.14-4.25-4.53,.04-2.31,1.83-4.24,4.23-4.35Zm-22.89,.01c1.97-.12,3.96-.12,5.94,0,2.37,.14,4.13,2.14,4.12,4.45-.01,2.31-1.79,4.23-4.17,4.42-.98,.08-1.98,.01-2.97,.01h0c-.99-.01-1.99,.07-2.97-.03-2.35-.24-4.09-2.24-4.03-4.54,.06-2.23,1.79-4.16,4.08-4.3Z"/><path class="cls-3" d="M129.46,65.58c-4.4,.21-8.81,.08-13.21,.05-3.04-.01-5.07-1.86-5.04-4.52,.03-2.59,2.02-4.38,4.96-4.41,2.3-.02,4.59,0,6.89,0,.76,0,1.51,0,2.6,0-1.62-2.21-2.65-4.44-5.39-4.45-8-.03-16.01-.02-24.01,0-1.76,0-3.25,.82-3.88,2.43-1.79,4.53-3.41,9.14-5.14,13.83h46.8c-.85-2.21-2.22-3.02-4.56-2.91Z"/><path class="cls-3" d="M64.97,56.57c0-1.05,.04-1.98,0-2.9-.13-2.53-1.87-4.35-4.38-4.4-4.03-.08-8.06-.08-12.09,0-2.51,.05-4.24,1.88-4.37,4.41-.05,.92,0,1.84,0,2.89h20.86Z"/><path class="cls-3" d="M64.89,68.53v-5.74h-20.64v5.74h20.64Z"/></g></g></g></svg>