<?xml version="1.0" encoding="utf-8"?>
<!-- Generator: Adobe Illustrator 26.2.1, SVG Export Plug-In . SVG Version: 6.00 Build 0)  -->
<svg version="1.1" id="Layer_2_00000140726386052061575830000014672794764162214528_"
	 xmlns="http://www.w3.org/2000/svg" xmlns:xlink="http://www.w3.org/1999/xlink" x="0px" y="0px" viewBox="0 0 192 192"
	 style="enable-background:new 0 0 192 192;" xml:space="preserve">
<style type="text/css">
	.st0{clip-path:url(#SVGID_00000088848873068571058970000002735542806264073632_);fill:none;}
	
		.st1{clip-path:url(#SVGID_00000011731266698192989980000000573998030626032828_);fill:url(#SVGID_00000173844613458272324950000015582546282844446343_);}
	
		.st2{clip-path:url(#SVGID_00000091735894138782190380000002724477731661743776_);fill:url(#SVGID_00000109713682740407368330000018024884281598756509_);}
	.st3{clip-path:url(#SVGID_00000057105720342679461750000004906081047012652982_);fill:none;}
	.st4{clip-path:url(#SVGID_00000054251416613856983800000007498965143118702981_);fill:none;}
	.st5{clip-path:url(#SVGID_00000151529138657742782140000016157380983051178931_);fill:none;}
	.st6{clip-path:url(#SVGID_00000171677773699139989100000018238829709623359920_);fill:none;}
	.st7{clip-path:url(#SVGID_00000005960486728909005250000014740420813940566943_);fill:none;}
	
		.st8{clip-path:url(#SVGID_00000116948536348835054220000006221928683130295711_);fill:none;stroke:#FFFFFF;stroke-width:2;stroke-miterlimit:10;}
	
		.st9{clip-path:url(#SVGID_00000160157350768092050730000002272747702107715768_);fill:none;stroke:#FFFFFF;stroke-width:2;stroke-miterlimit:10;}
	
		.st10{clip-path:url(#SVGID_00000123422539450740872620000001370347383881280191_);fill:none;stroke:#FFFFFF;stroke-width:2;stroke-miterlimit:10;}
	
		.st11{clip-path:url(#SVGID_00000145058763419496005240000003416617897609952916_);fill:none;stroke:#FFFFFF;stroke-width:2;stroke-miterlimit:10;}
	
		.st12{clip-path:url(#SVGID_00000118386047516643571970000007887990553708673415_);fill:none;stroke:#FFFFFF;stroke-width:2;stroke-miterlimit:10;}
	
		.st13{clip-path:url(#SVGID_00000124153391747744223080000016018873048529689752_);fill:none;stroke:#FFFFFF;stroke-width:2;stroke-miterlimit:10;}
	
		.st14{clip-path:url(#SVGID_00000119106725049835879830000014115796084267365545_);fill:none;stroke:#FFFFFF;stroke-width:2;stroke-miterlimit:10;}
	.st15{clip-path:url(#SVGID_00000034050608344065098760000002293219529573027996_);fill:none;stroke:#FFFFFF;stroke-miterlimit:10;}
	
		.st16{clip-path:url(#SVGID_00000026139171932730527950000000216374129501903262_);fill:#1283B4;stroke:#FFFFFF;stroke-width:2;stroke-miterlimit:10;}
	.st17{clip-path:url(#SVGID_00000026871718155089212880000006194347739458019229_);}
	.st18{fill:#060C26;}
	.st19{fill:#0F639D;}
	.st20{fill:#1283B4;}
	.st21{clip-path:url(#SVGID_00000066503532363636546950000017080629271027210919_);fill:#FFFFFF;}
	.st22{clip-path:url(#SVGID_00000000926585725166912740000011920323647721692545_);fill:#FFFFFF;}
	.st23{clip-path:url(#SVGID_00000065072748652253586640000011489361668530431893_);fill:#FFFFFF;}
	.st24{clip-path:url(#SVGID_00000023270478668228615250000003099608472597849749_);fill:#FFFFFF;}
</style>
<g>
	<g>
		<defs>
			<rect id="SVGID_1_" y="0.3" width="192" height="192"/>
		</defs>
		<clipPath id="SVGID_00000080885278339878700280000003774849047447855767_">
			<use xlink:href="#SVGID_1_"  style="overflow:visible;"/>
		</clipPath>
		
			<rect y="0.7" style="clip-path:url(#SVGID_00000080885278339878700280000003774849047447855767_);fill:none;" width="191.8" height="191.2"/>
	</g>
</g>
<g>
	<g>
		<defs>
			<rect id="SVGID_00000155131103193907116350000017692448704760954030_" y="0.3" width="192" height="192"/>
		</defs>
		<clipPath id="SVGID_00000122691710756223172810000000771021250521600939_">
			<use xlink:href="#SVGID_00000155131103193907116350000017692448704760954030_"  style="overflow:visible;"/>
		</clipPath>
		
			<linearGradient id="SVGID_00000030459050493436438620000011487224576027758250_" gradientUnits="userSpaceOnUse" x1="96" y1="-1578.3334" x2="96" y2="-1770.3334" gradientTransform="matrix(1 0 0 -1 0 -1578)">
			<stop  offset="0" style="stop-color:#1283B4"/>
			<stop  offset="0.14" style="stop-color:#0E6490"/>
			<stop  offset="0.32" style="stop-color:#0B456A"/>
			<stop  offset="0.5" style="stop-color:#092C4C"/>
			<stop  offset="0.67" style="stop-color:#071A37"/>
			<stop  offset="0.84" style="stop-color:#060F2A"/>
			<stop  offset="1" style="stop-color:#060C26"/>
		</linearGradient>
		
			<rect y="0.3" style="clip-path:url(#SVGID_00000122691710756223172810000000771021250521600939_);fill:url(#SVGID_00000030459050493436438620000011487224576027758250_);" width="192" height="192"/>
	</g>
</g>
<g>
	<g>
		<defs>
			<rect id="SVGID_00000016796415988098899250000005068909949505692596_" y="0.3" width="192" height="192"/>
		</defs>
		<clipPath id="SVGID_00000006671099345300890870000003284461488986986686_">
			<use xlink:href="#SVGID_00000016796415988098899250000005068909949505692596_"  style="overflow:visible;"/>
		</clipPath>
		
			<linearGradient id="SVGID_00000106853323611439756720000015323401810184288405_" gradientUnits="userSpaceOnUse" x1="-8532.3496" y1="2831.8833" x2="-8532.3496" y2="2639.8833" gradientTransform="matrix(-1 0 0 1 -8436.3496 -2639.55)">
			<stop  offset="0" style="stop-color:#1283B4"/>
			<stop  offset="0.14" style="stop-color:#0E6490"/>
			<stop  offset="0.32" style="stop-color:#0B456A"/>
			<stop  offset="0.5" style="stop-color:#092C4C"/>
			<stop  offset="0.67" style="stop-color:#071A37"/>
			<stop  offset="0.84" style="stop-color:#060F2A"/>
			<stop  offset="1" style="stop-color:#060C26"/>
		</linearGradient>
		
			<rect y="0.3" style="clip-path:url(#SVGID_00000006671099345300890870000003284461488986986686_);fill:url(#SVGID_00000106853323611439756720000015323401810184288405_);" width="192" height="192"/>
	</g>
</g>
<g>
	<g>
		<defs>
			<rect id="SVGID_00000060025919661888288620000003614423785031302802_" y="0.3" width="192" height="192"/>
		</defs>
		<clipPath id="SVGID_00000178194629519820616690000002602499339049737627_">
			<use xlink:href="#SVGID_00000060025919661888288620000003614423785031302802_"  style="overflow:visible;"/>
		</clipPath>
		<path style="clip-path:url(#SVGID_00000178194629519820616690000002602499339049737627_);fill:none;" d="M40,89.7c1,0.1,2,0,3,0
			l0,0c1,0,2,0.1,3,0c2.4-0.2,4.2-2.1,4.2-4.4s-1.8-4.3-4.1-4.4c-2-0.1-4-0.1-5.9,0c-2.3,0.2-4,2.1-4.1,4.3
			C35.9,87.5,37.6,89.5,40,89.7L40,89.7z"/>
	</g>
</g>
<g>
	<g>
		<defs>
			<rect id="SVGID_00000142886041151229667490000016485457564825348018_" y="0.3" width="192" height="192"/>
		</defs>
		<clipPath id="SVGID_00000157304814412284275100000000215086675936042664_">
			<use xlink:href="#SVGID_00000142886041151229667490000016485457564825348018_"  style="overflow:visible;"/>
		</clipPath>
		<path style="clip-path:url(#SVGID_00000157304814412284275100000000215086675936042664_);fill:none;" d="M62.9,89.8
			c1,0.1,2.1,0,3.2,0l0,0c1.1,0,2.2,0.1,3.3,0c2.4-0.2,4.1-2.1,4.1-4.4s-1.8-4.3-4.2-4.4c-2.2-0.1-4.3-0.1-6.5,0
			c-2.4,0.1-4.2,2-4.2,4.3C58.6,87.6,60.4,89.6,62.9,89.8L62.9,89.8z"/>
	</g>
</g>
<g>
	<g>
		<defs>
			<rect id="SVGID_00000072988272052730565150000003546440942870124422_" y="0.3" width="192" height="192"/>
		</defs>
		<clipPath id="SVGID_00000149342139204628185520000017147389059027911602_">
			<use xlink:href="#SVGID_00000072988272052730565150000003546440942870124422_"  style="overflow:visible;"/>
		</clipPath>
		<path style="clip-path:url(#SVGID_00000149342139204628185520000017147389059027911602_);fill:none;" d="M87,89.8
			c1.2,0.1,2.3,0,3.5,0l0,0c1.2,0,2.5,0.1,3.7,0c2.5-0.2,4.3-2.1,4.3-4.5s-1.9-4.3-4.4-4.4c-2.4-0.1-4.8-0.1-7.2,0
			c-2.5,0.1-4.4,2-4.4,4.4S84.4,89.7,87,89.8z"/>
	</g>
</g>
<g>
	<g>
		<defs>
			<rect id="SVGID_00000132069382895698199210000005579976136045659053_" y="0.3" width="192" height="192"/>
		</defs>
		<clipPath id="SVGID_00000123432212254252548740000001960805413508482749_">
			<use xlink:href="#SVGID_00000132069382895698199210000005579976136045659053_"  style="overflow:visible;"/>
		</clipPath>
		<path style="clip-path:url(#SVGID_00000123432212254252548740000001960805413508482749_);fill:none;" d="M110.9,89.8
			c1.1,0.1,2.2,0,3.3,0l0,0c1.1,0,2.2,0.1,3.3,0c2.4-0.2,4.1-2.2,4.1-4.5c-0.1-2.2-1.8-4.2-4.1-4.3c-2.2-0.1-4.5-0.1-6.7,0
			c-2.4,0.1-4.2,2.1-4.2,4.4C106.7,87.6,108.5,89.6,110.9,89.8L110.9,89.8z"/>
	</g>
</g>
<g>
	<g>
		<defs>
			<rect id="SVGID_00000173138364461284178620000015754079118106477981_" y="0.3" width="192" height="192"/>
		</defs>
		<clipPath id="SVGID_00000132802814801199553730000013082988140878240144_">
			<use xlink:href="#SVGID_00000173138364461284178620000015754079118106477981_"  style="overflow:visible;"/>
		</clipPath>
		<path style="clip-path:url(#SVGID_00000132802814801199553730000013082988140878240144_);fill:none;" d="M134.9,89.8
			c1.2,0.1,2.5,0,3.7,0l0,0c1.2,0,2.4,0.1,3.5,0c2.6-0.1,4.5-2.1,4.5-4.5s-1.9-4.3-4.4-4.4c-2.4-0.1-4.8-0.1-7.2,0
			c-2.5,0.1-4.4,2-4.4,4.4S132.4,89.6,134.9,89.8L134.9,89.8z"/>
	</g>
</g>
<g>
	<g>
		<defs>
			<rect id="SVGID_00000109713859295029942120000016509641158955115163_" y="0.3" width="192" height="192"/>
		</defs>
		<clipPath id="SVGID_00000119834689065559804510000014494891784678723205_">
			<use xlink:href="#SVGID_00000109713859295029942120000016509641158955115163_"  style="overflow:visible;"/>
		</clipPath>
		
			<path style="clip-path:url(#SVGID_00000119834689065559804510000014494891784678723205_);fill:none;stroke:#FFFFFF;stroke-width:2;stroke-miterlimit:10;" d="
			M98.7,103.2c-3.5,0-7,0-10.5,0c0.7,0.6,1.2,1.2,1.8,1.9c1.3,1.7,2.3,3.8,3,6s1,4.6,0.9,7.1c0,2.8-0.4,5.3-1,7.5s-1.6,4.2-3,6
			c-1.5,1.9-3.2,3.2-5.3,4.1c-0.2,0.1-0.4,0.1-0.6,0.2c0.9,0,1.8,0,2.7,0c4.1,0,8.2,0,12.3,0c-0.2-0.2-0.2-0.4-0.2-0.8L98.7,103.2
			L98.7,103.2z"/>
	</g>
</g>
<g>
	<g>
		<defs>
			<rect id="SVGID_00000003793411048738624300000012832900020867297961_" y="0.3" width="192" height="192"/>
		</defs>
		<clipPath id="SVGID_00000103250836499975171430000007052231616507584692_">
			<use xlink:href="#SVGID_00000003793411048738624300000012832900020867297961_"  style="overflow:visible;"/>
		</clipPath>
		
			<path style="clip-path:url(#SVGID_00000103250836499975171430000007052231616507584692_);fill:none;stroke:#FFFFFF;stroke-width:2;stroke-miterlimit:10;" d="
			M86.5,123c0.4-1.6,0.6-3.2,0.6-4.8s-0.2-3.1-0.6-4.7s-0.9-2.9-1.7-4.2c-0.8-1.2-1.7-2.2-2.9-3s-2.6-1.2-4.2-1.2s-3.1,0.4-4.2,1.1
			s-2.2,1.7-2.9,2.9c-0.8,1.2-1.3,2.6-1.7,4.2c-0.4,1.6-0.6,3.2-0.6,4.8s0.2,3.2,0.6,4.8c0.4,1.6,0.9,2.9,1.7,4.2
			c0.8,1.2,1.8,2.2,2.9,3c1.2,0.8,2.6,1.1,4.2,1.1s3-0.4,4.2-1.1c1.2-0.8,2.2-1.7,2.9-3C85.6,125.9,86.1,124.5,86.5,123L86.5,123z"
			/>
	</g>
</g>
<g>
	<g>
		<defs>
			<rect id="SVGID_00000134210716560534897610000006545028844225978541_" y="0.3" width="192" height="192"/>
		</defs>
		<clipPath id="SVGID_00000072275584668300909940000001410015984856269238_">
			<use xlink:href="#SVGID_00000134210716560534897610000006545028844225978541_"  style="overflow:visible;"/>
		</clipPath>
		
			<path style="clip-path:url(#SVGID_00000072275584668300909940000001410015984856269238_);fill:none;stroke:#FFFFFF;stroke-width:2;stroke-miterlimit:10;" d="
			M65.3,131.4c-1.3-1.7-2.3-3.8-2.9-6c-0.6-2.3-0.9-4.7-0.9-7.2s0.3-4.8,1-7.1c0.6-2.3,1.6-4.3,2.9-6c0.5-0.7,1.1-1.3,1.7-1.9
			c-3.5,0-7,0-10.5,0l-0.1,2.6c0,0.5-0.1,0.8-0.4,0.9c-0.2,0.1-0.7,0-1.2-0.1c-1.4-0.4-2.7-0.7-3.8-0.8s-2.3-0.2-3.5-0.2
			c-1.8,0-3.4,0.3-4.8,0.9s-2.6,1.5-3.6,2.6s-1.7,2.4-2.3,4c-0.5,1.5-0.8,3.2-0.8,5.1s0.3,3.5,0.9,5c0.6,1.5,1.4,2.8,2.4,4
			c1,1.2,2.2,2,3.6,2.7c1.4,0.7,2.9,1.1,4.5,1.2c1.5,0.2,3,0.1,4.4-0.2s2.5-0.6,3.4-0.9c0.4-0.2,0.7-0.2,0.8-0.1s0.2,0.3,0.2,0.6
			l0.2,4.2c0,0.4,0,0.6-0.1,0.7c-0.1,0.1-0.4,0.2-0.7,0.4c-0.2,0.1-0.4,0.1-0.6,0.2c5.4,0,10.8,0,16.2,0c-0.4-0.1-0.7-0.3-1.1-0.4
			C68.4,134.6,66.7,133.2,65.3,131.4L65.3,131.4z"/>
	</g>
</g>
<g>
	<g>
		<defs>
			<rect id="SVGID_00000030459865856194769020000000821380405436140949_" y="0.3" width="192" height="192"/>
		</defs>
		<clipPath id="SVGID_00000157268844856974459920000004969823245783157917_">
			<use xlink:href="#SVGID_00000030459865856194769020000000821380405436140949_"  style="overflow:visible;"/>
		</clipPath>
		
			<polygon style="clip-path:url(#SVGID_00000157268844856974459920000004969823245783157917_);fill:none;stroke:#FFFFFF;stroke-width:2;stroke-miterlimit:10;" points="
			131.6,121.9 141.9,121.9 136.8,108.6 		"/>
	</g>
</g>
<g>
	<g>
		<defs>
			<rect id="SVGID_00000172434852328423569090000002130380850289570444_" y="0.3" width="192" height="192"/>
		</defs>
		<clipPath id="SVGID_00000150804296651811830120000000847639515509350299_">
			<use xlink:href="#SVGID_00000172434852328423569090000002130380850289570444_"  style="overflow:visible;"/>
		</clipPath>
		
			<path style="clip-path:url(#SVGID_00000150804296651811830120000000847639515509350299_);fill:none;stroke:#FFFFFF;stroke-width:2;stroke-miterlimit:10;" d="
			M34.8,131.8c-1.6-1.6-2.9-3.6-3.8-5.9s-1.4-4.9-1.4-7.7s0.5-5.3,1.4-7.6s2.2-4.3,3.8-5.9c0.5-0.5,1-1,1.6-1.4
			c-9.5,0-19.1,0-28.6,0c-4.7,0-6.6,3.1-4.5,7.3c3.6,7.3,7.3,14.5,10.9,21.8c1.3,2.6,3.1,3.7,6,3.7c7.2,0,14.5,0,21.7,0
			c-0.4-0.1-0.8-0.2-1.2-0.4C38.4,134.7,36.4,133.5,34.8,131.8L34.8,131.8z"/>
	</g>
</g>
<g>
	<g>
		<defs>
			<rect id="SVGID_00000039849906633600702650000001625400056584302479_" y="0.3" width="192" height="192"/>
		</defs>
		<clipPath id="SVGID_00000180333124325435533010000010643314367043475602_">
			<use xlink:href="#SVGID_00000039849906633600702650000001625400056584302479_"  style="overflow:visible;"/>
		</clipPath>
		
			<path style="clip-path:url(#SVGID_00000180333124325435533010000010643314367043475602_);fill:none;stroke:#FFFFFF;stroke-width:2;stroke-miterlimit:10;" d="
			M190,100.5c-0.7-2.2-2.3-3.2-5.3-3.2c-8.1,0-16.3,0.4-24.4-0.1c-7.1-0.4-13.7,0.7-19.9,4.1l13.6,33.9c0.2,0.4,0.2,0.7,0.1,0.9
			c2-0.1,3.5-1,4.6-2.9c1.2-2,2.6-4,4.1-5.7c7.3-8.2,15.9-15,24.7-21.5C189.8,104.3,190.6,102.5,190,100.5L190,100.5z"/>
	</g>
</g>
<g>
	<g>
		<defs>
			<rect id="SVGID_00000130612502061372068580000007533246938356303542_" y="0.3" width="192" height="192"/>
		</defs>
		<clipPath id="SVGID_00000022521072176118496080000015348869965394277277_">
			<use xlink:href="#SVGID_00000130612502061372068580000007533246938356303542_"  style="overflow:visible;"/>
		</clipPath>
		
			<path style="clip-path:url(#SVGID_00000022521072176118496080000015348869965394277277_);fill:none;stroke:#FFFFFF;stroke-width:2;stroke-miterlimit:10;" d="
			M119.5,135.1l12.9-31.9c-9.1,0-18.1,0-27.2,0v27.2h11.4c0.3,0,0.6,0.1,0.7,0.2c0.1,0.1,0.2,0.4,0.2,0.7v4.1c0,0.3-0.1,0.5-0.2,0.6
			c0.7,0,1.4,0,2.1,0C119.3,135.8,119.3,135.5,119.5,135.1L119.5,135.1z"/>
	</g>
</g>
<g>
	<g>
		<defs>
			<rect id="SVGID_00000164476582194067054260000000568085550984937661_" y="0.3" width="192" height="192"/>
		</defs>
		<clipPath id="SVGID_00000143610304277767356500000015986226433965840259_">
			<use xlink:href="#SVGID_00000164476582194067054260000000568085550984937661_"  style="overflow:visible;"/>
		</clipPath>
		
			<path style="clip-path:url(#SVGID_00000143610304277767356500000015986226433965840259_);fill:none;stroke:#FFFFFF;stroke-miterlimit:10;" d="
			M144.1,127.7h-14.8l-3,7.8c-0.1,0.2-0.2,0.4-0.3,0.5c7.1,0,14.3,0,21.4,0c-0.1-0.1-0.2-0.3-0.3-0.5L144.1,127.7L144.1,127.7z"/>
	</g>
</g>
<g>
	<g>
		<defs>
			<rect id="SVGID_00000050627635614359613420000002770284128733363646_" y="0.3" width="192" height="192"/>
		</defs>
		<clipPath id="SVGID_00000152239186950609549350000007654167696559419796_">
			<use xlink:href="#SVGID_00000050627635614359613420000002770284128733363646_"  style="overflow:visible;"/>
		</clipPath>
		
			<path style="clip-path:url(#SVGID_00000152239186950609549350000007654167696559419796_);fill:#1283B4;stroke:#FFFFFF;stroke-width:2;stroke-miterlimit:10;" d="
			M189.2,128.4c-3.2-0.3-13.7-2.1-23.7-3.9c-0.9,0.9-1.8,1.8-2.6,2.8c-1.1,1.3-2.1,2.6-3.1,4c-0.4,0.5-0.7,1.1-1.1,1.6l0,0
			c-1.1,1.9-2.6,2.7-4.6,2.9c0.1-0.2,0.1-0.5-0.1-0.9l-0.6-1.4l-1.4-3.4l-3.6-8.1c-2.3-0.2-4.1-0.4-6.5-0.6v0.4h-10.3l0.2-0.9
			c-2.2-0.1-4.2-0.1-6.5-0.1l-1.7,4.1l-4.1,10.1c-0.1,0.1-0.1,0.2-0.1,0.3c-0.1,0.2-0.1,0.4,0.1,0.6c-0.7,0-1.4,0-2.1,0
			c0.1-0.1,0.1-0.3,0.1-0.6c0,0,0,0,0-0.1v-4.1c0-0.4-0.1-0.6-0.2-0.7c-0.1-0.1-0.4-0.2-0.7-0.2h-11.4v-8.9
			c-2.2-0.4-4.3-0.8-6.5-1.2v15.1c0,0.3,0.1,0.6,0.2,0.8c-4.1,0-8.2,0-12.3,0c-0.9,0-1.8,0-2.7,0c0.2-0.1,0.4-0.1,0.6-0.2
			c1.4-0.6,2.8-1.5,3.9-2.7c0.5-0.4,0.9-0.9,1.3-1.4c1.4-1.7,2.4-3.7,3-6c0.2-0.8,0.4-1.6,0.5-2.4c0.2-1.3,0.4-2.6,0.4-4
			c-2.3-0.4-4.6-0.8-6.8-1.2v0.1c0,1.6-0.2,3.2-0.6,4.8c-0.1,0.4-0.2,0.8-0.3,1.2c-0.3,1.1-0.8,2.1-1.4,3c-0.8,1.2-1.7,2.2-2.9,3
			c-1.1,0.7-2.3,1-3.7,1.1c-0.2,0-0.3,0-0.5,0c-1.7,0-3.1-0.4-4.2-1.1s-2.2-1.7-2.9-3c-0.2-0.4-0.5-0.8-0.7-1.2
			c-0.4-0.9-0.8-1.9-1.1-3c-0.4-1.6-0.6-3.2-0.6-4.8c0-0.9,0.1-1.7,0.2-2.6c-2.2-0.1-4.1-0.2-6.4-0.2c-0.1,0.9-0.2,1.8-0.2,2.7
			c0,2.5,6.4,16.3,8.4,17.3c0.3,0.2,0.7,0.3,1.1,0.4c-5.4,0-10.8,0-16.2,0c0.2-0.1,0.4-0.1,0.6-0.2c0.3-0.1,0.6-0.2,0.7-0.4
			c0.1-0.1,0.2-0.4,0.1-0.7l-0.2-4.2c0-0.3,0.2-0.3,0.1-0.4s-0.7-0.2-1.1-0.1c-0.9,0.3-2,0.6-3.4,0.9c-1.4,0.3-2.8,0.3-4.4,0.2
			c-1.7-0.2-3.2-0.6-4.5-1.2c-0.7-0.4-1.4-0.8-2-1.2s-1.1-0.9-1.6-1.4c-0.5-0.6-1-1.2-1.3-1.8c-0.4-0.7-0.7-1.4-1-2.2
			c-0.6-1.5-0.9-3.2-0.9-5c0-0.2,0-0.3,0-0.4c-2.2,0.4-4.4,0.8-6.5,1.2c0.1,2.4,0.5,4.6,1.2,6.6c0,0.1,0.1,0.3,0.1,0.4
			c0.5,1.2,1.1,2.3,1.7,3.4c0.6,0.9,1.3,1.8,2,2.6c1.6,1.6,3.5,2.9,5.8,3.8c0.4,0.1,0.8,0.3,1.2,0.4c-7.3,0-14.5,0-21.8,0
			c-2.5,0-4.8-1.4-5.9-3.7c-0.3-0.6-0.6-1.2-0.9-1.9c-0.4-0.7-0.7-1.4-1.1-2.2c-0.8-1.6-1.6-3.2-2.3-4.7c-8.1,2.3-10.9,4.2-10.9,4.2
			v65.5l193.1-0.2l0.1-64.9C192.1,128.2,190.5,128.1,189.2,128.4L189.2,128.4z M126.1,135.9c0.1-0.1,0.2-0.3,0.3-0.5v-0.1l3-7.7
			h14.8l0.5,1.2l2.1,5.4l0.4,1.1c0.1,0.2,0.2,0.4,0.3,0.5C140.3,135.9,133.2,135.9,126.1,135.9L126.1,135.9z"/>
	</g>
</g>
<g>
	<g>
		<defs>
			<rect id="SVGID_00000053522366146249565350000007207544590935563924_" y="0.3" width="192" height="192"/>
		</defs>
		<clipPath id="SVGID_00000103978425731872677820000017519117304651545478_">
			<use xlink:href="#SVGID_00000053522366146249565350000007207544590935563924_"  style="overflow:visible;"/>
		</clipPath>
		<g style="clip-path:url(#SVGID_00000103978425731872677820000017519117304651545478_);">
			<path class="st18" d="M38.1,125.2c-0.4-0.7-0.7-1.4-1-2.2c-0.6-1.5-0.9-3.2-0.9-5c0-0.2,0-0.3,0-0.4c-2.2,0.4-4.4,0.8-6.5,1.2
				c0.1,2.4,0.5,4.6,1.2,6.6C33.2,125.3,35.6,125.2,38.1,125.2z"/>
			<path class="st18" d="M12.1,128.2c-0.8-1.6-1.6-3.2-2.3-4.7c-8.1,2.3-10.9,4.2-10.9,4.2v3.5c0,0,0.4-0.2,5.2-0.4
				C6.2,130,8.9,129.1,12.1,128.2L12.1,128.2z"/>
			<path class="st18" d="M62.2,124.4c0.1,0.8,0.4,1.7,0.7,2.4c0.1,0.1,2.4-0.2,3.6-0.2c0.6,0,1.2-0.1,1.9-0.1c0.3,0,0.6,0,0.9-0.1
				c0.1,0,0.8-0.1,0.8-0.1c-0.5-0.9-1-2.3-1.3-3.4c-0.4-1.6-0.6-3.2-0.6-4.8c0-0.9,0.1-1.7,0.2-2.6c-2.2-0.1-4.5-0.2-6.8-0.2
				c-0.1,0.9-0.2,1.8-0.2,2.7C61.5,120.6,62.2,124.4,62.2,124.4z"/>
			<path class="st18" d="M86.5,122.9c-0.1,0.4-0.2,1-0.4,1.4c2.4-0.3,4.8-0.4,7.2-0.7c0.2-1.3,0.5-3,0.5-4.4
				c-2.3-0.4-4.6-0.8-6.8-1.2v0.1C87.1,119.7,86.9,121.3,86.5,122.9z"/>
			<path class="st18" d="M105.2,122.1l0-0.7c-2.2-0.4-4.3-0.8-6.5-1.2l0,2.7C100.9,122.5,103.1,122.3,105.2,122.1z"/>
			<path class="st19" d="M159.8,131.4c1.9,0.3,3.8,0.5,5.6,0.8c9.6-1.4,20.4-2.9,23.7-3.6c-3.2-0.3-13.7-2.1-23.7-3.9
				c-0.9,0.9-1.8,1.8-2.6,2.8C161.8,128.6,160.7,129.9,159.8,131.4L159.8,131.4z"/>
			<path class="st19" d="M-1.1,131.1v3.5c0,0,0.2-1.8,5.2-3.8C-0.7,130.9-1.1,131.1-1.1,131.1z"/>
			<path class="st19" d="M165.4,132.1c-1.8-0.2-3.7-0.5-5.6-0.8c-0.4,0.5-0.6,1.2-1,1.7C161.2,132.8,163.3,132.4,165.4,132.1
				L165.4,132.1z"/>
			<path class="st19" d="M70.6,127.1c-0.3-0.5-0.5-0.8-0.7-1.2c-1.2,0.1-2.4,0.2-3.6,0.3c-0.6,0.1-1.2,0.1-1.8,0.2
				c-0.6,0.1-1.2,0.1-1.8,0.2c0.1,0.2,0.5,1.3,0.6,1.5c0.2,0.4,0.3,0.7,0.6,0.9c0.5,0.4,1.1,0.6,1.7,0.7c1.5,0.3,3.1,0.1,4.6,0.1
				c1,0,2.1,0,3.1,0.3C72,129.4,70.6,127.1,70.6,127.1z"/>
			<path class="st19" d="M117.5,131.2c0-0.4-0.1-0.6-0.2-0.7c-0.1-0.1-0.4-0.2-0.7-0.2h-11.4v-8.5c-2.1,0.2-4.3,0.4-6.5,0.7l0,12.1
				c6.3,0.6,12.6,0.6,18.8,0.7c0,0,0,0,0-0.1V131.2L117.5,131.2z"/>
			<path class="st19" d="M89.9,131.6c1.4-1.7,2.4-3.7,3-6c0.2-0.8,0.4-1.6,0.5-2.4c-2.4,0.3-4.8,0.6-7.2,0.9c0,0.1,0,0.1-0.1,0.2
				c0,0,0,0,0,0.1c-0.2,0.8-0.8,1.9-1.3,2.8c-0.8,1.2-1.7,2.2-2.9,3c-1.1,0.7-2.5,1-3.9,1.1c3.4,0.7,6.9,1.6,10.3,2.1
				C88.8,132.8,89.5,132.1,89.9,131.6L89.9,131.6z"/>
			<path class="st20" d="M192,128c0,0-1.5,0.2-2.8,0.5C191.9,129.1,191.9,128.4,192,128z"/>
			<path class="st20" d="M192,131.7L192,131.7V128c-0.1,0.5-1.5,0.6-2.8,0.5c-3.3,0.7-14,2.3-23.5,3.6c-0.1,0-0.1,0-0.2,0l0,0
				c-2.1,0.3-4.3,0.6-6.7,0.9c-1.1,1.9-3.7,3-5.7,3.1c0.1-0.2,0.1-0.5-0.1-0.9l-0.6-1.4c-2.2,0.2-3.4,0.3-5.7,0.5l0.4,1.1
				c0.1,0.2,0.2,0.4,0.3,0.5c-7.1,0-14.2,0-21.4,0c0.1-0.1,0.2-0.3,0.3-0.5v-0.1c-2.3,0-4.6,0-7,0c-0.1,0.2,0,0.4,0.1,0.6
				c-0.7,0-1.3,0-2,0c0.1-0.1,0.1-0.3,0.1-0.6c-6.2-0.1-12.5-0.4-18.8-1v0.9c0,0.3,0,0.6,0.1,0.8c-4.1,0-8.2,0-12.3,0
				c-0.9,0-1.8,0-2.7,0c0.2-0.1,0.4-0.1,0.6-0.2c1.5-0.6,3-1.5,4.1-2.7c-3.5-0.5-6.7-1.3-10.3-1.9c-0.2,0-0.5,0-0.7,0
				c-1.6,0-3.1-0.5-4.2-1.2c-3.5-0.9-6.9-1.6-10.1-2.2c0.5,1.3,1.2,2.6,2,3.6c1.3,1.7,3,3.1,5,4.2c0.3,0.2,0.7,0.3,1.1,0.4
				c-5.4,0-10.8,0-16.2,0c0.2-0.1,0.4-0.1,0.6-0.2c0.4-0.1,0.6-0.2,0.7-0.4c0.1-0.1,0.2-0.4,0.1-0.7l-0.2-4.2c0-0.3-0.1-0.5-0.2-0.6
				s-0.4,0-0.8,0.1c-0.9,0.3-2,0.6-3.4,0.9c-1.4,0.3-2.8,0.3-4.4,0.2c-1.7-0.2-3.2-0.6-4.5-1.2c-0.7-0.4-1.4-0.8-2-1.2l0,0
				c-0.6-0.4-1.1-0.9-1.5-1.4l0,0c-0.5-0.5-1-1.5-1.4-2.1c-2.5,0-4.9,0-7.2,0.2c0,0.1,0.2,0.6,0.2,0.7c0.5,1.2,1,2.3,1.7,3.4l0,0
				c0.6,0.9,1.3,1.8,2,2.5c1.6,1.7,3.5,2.9,5.8,3.8c0.4,0.2,0.8,0.3,1.2,0.4c-7.3,0-14.5,0-21.8,0c-2.5,0-4.8-1.4-5.9-3.7
				c-0.3-0.6-0.6-1.2-0.9-1.9l0,0c-0.3-0.7-0.8-1.7-1.1-2.4c-0.5,0.1-0.9,0.3-1.4,0.4c-2.5,0.7-4.8,1.4-6.6,2.2l-0.2,0.1
				c-4.9,2-4.9,3.7-4.9,3.7v58.9l193.1-0.2L192,131.7L192,131.7z"/>
		</g>
	</g>
</g>
<g>
	<g>
		<defs>
			<rect id="SVGID_00000016771090391686675660000004148803131449759394_" y="0.3" width="192" height="192"/>
		</defs>
		<clipPath id="SVGID_00000124140735096885366100000017736658219399798943_">
			<use xlink:href="#SVGID_00000016771090391686675660000004148803131449759394_"  style="overflow:visible;"/>
		</clipPath>
		<path style="clip-path:url(#SVGID_00000124140735096885366100000017736658219399798943_);fill:#FFFFFF;" d="M128.1,98.8
			c5.4,0,10.3-0.7,14.8-3.6c3.2-2.1,6.7-2.7,10.5-2.5c3.4,0.2,6.9,0,10.4,0c-0.1-0.4-0.1-0.6-0.2-0.8c-3.2-5.4-6.5-10.9-9.8-16.3
			c-1-1.7-2.6-2.4-4.5-2.4c-39.4,0-78.7,0-118.1,0c-2.5,0-4.1,1.1-5,3.4c-1.5,3.9-3.1,7.8-4.7,11.8c-1.3,3.3-2.7,6.7-4.1,10.2H20
			C56.1,98.7,92.1,98.7,128.1,98.8L128.1,98.8z M135,80.9c2.4-0.1,4.8-0.1,7.2,0c2.5,0.1,4.4,2,4.4,4.4s-1.9,4.4-4.5,4.5
			c-1.2,0.1-2.4,0-3.5,0l0,0c-1.2,0-2.5,0.1-3.7,0c-2.5-0.2-4.3-2.1-4.3-4.5S132.5,81,135,80.9L135,80.9z M110.9,80.9
			c2.2-0.1,4.5-0.1,6.7,0c2.3,0.1,4,2.1,4.1,4.3c0.1,2.3-1.7,4.3-4.1,4.5c-1.1,0.1-2.2,0-3.3,0l0,0c-1.1,0-2.2,0.1-3.3,0
			c-2.4-0.2-4.2-2.1-4.2-4.4C106.7,83,108.5,81,110.9,80.9L110.9,80.9z M86.9,80.9c2.4-0.1,4.8-0.1,7.2,0c2.5,0.1,4.3,2,4.4,4.4
			c0,2.4-1.8,4.3-4.3,4.5c-1.2,0.1-2.5,0-3.7,0l0,0c-1.2,0-2.3,0.1-3.5,0c-2.6-0.1-4.5-2.1-4.5-4.5S84.4,81,86.9,80.9L86.9,80.9z
			 M62.9,80.9c2.2-0.1,4.3-0.1,6.5,0c2.4,0.1,4.2,2.1,4.2,4.4s-1.8,4.3-4.1,4.4c-1.1,0.1-2.2,0-3.3,0l0,0c-1.1,0-2.1,0.1-3.2,0
			c-2.5-0.2-4.3-2.1-4.2-4.5C58.7,82.9,60.5,81,62.9,80.9L62.9,80.9z M40,80.9c2-0.1,4-0.1,5.9,0C48.3,81,50,83,50,85.3
			s-1.8,4.2-4.2,4.4c-1,0.1-2,0-3,0l0,0c-1,0-2,0.1-3,0c-2.3-0.2-4.1-2.2-4-4.5C36,83,37.7,81.1,40,80.9L40,80.9z"/>
	</g>
</g>
<g>
	<g>
		<defs>
			<rect id="SVGID_00000023238953727918309970000014026181071215403686_" y="0.3" width="192" height="192"/>
		</defs>
		<clipPath id="SVGID_00000165947617325393114810000009609390916951717764_">
			<use xlink:href="#SVGID_00000023238953727918309970000014026181071215403686_"  style="overflow:visible;"/>
		</clipPath>
		<path style="clip-path:url(#SVGID_00000165947617325393114810000009609390916951717764_);fill:#FFFFFF;" d="M129.5,65.9
			c-4.4,0.2-8.8,0.1-13.2,0.1c-3,0-5.1-1.9-5-4.5c0-2.6,2-4.4,5-4.4c2.3,0,4.6,0,6.9,0c0.8,0,1.5,0,2.6,0c-1.6-2.2-2.7-4.4-5.4-4.5
			c-8,0-16,0-24,0c-1.8,0-3.2,0.8-3.9,2.4c-1.8,4.5-3.4,9.1-5.1,13.8H134C133.2,66.6,131.8,65.8,129.5,65.9L129.5,65.9z"/>
	</g>
</g>
<g>
	<g>
		<defs>
			<rect id="SVGID_00000115498598354048475640000009147223361467403687_" y="0.3" width="192" height="192"/>
		</defs>
		<clipPath id="SVGID_00000150060926276907929080000004189335842068612762_">
			<use xlink:href="#SVGID_00000115498598354048475640000009147223361467403687_"  style="overflow:visible;"/>
		</clipPath>
		<path style="clip-path:url(#SVGID_00000150060926276907929080000004189335842068612762_);fill:#FFFFFF;" d="M65,56.9
			c0-1,0-2,0-2.9c-0.1-2.5-1.9-4.3-4.4-4.4c-4-0.1-8.1-0.1-12.1,0c-2.5,0-4.2,1.9-4.4,4.4c0,0.9,0,1.8,0,2.9H65L65,56.9z"/>
	</g>
</g>
<g>
	<g>
		<defs>
			<rect id="SVGID_00000113312650574256225760000013290072849832030137_" y="0.3" width="192" height="192"/>
		</defs>
		<clipPath id="SVGID_00000045581952733644933290000010836486191218360490_">
			<use xlink:href="#SVGID_00000113312650574256225760000013290072849832030137_"  style="overflow:visible;"/>
		</clipPath>
		<path style="clip-path:url(#SVGID_00000045581952733644933290000010836486191218360490_);fill:#FFFFFF;" d="M64.9,68.8v-5.7H44.2
			v5.7H64.9z"/>
	</g>
</g>
<path class="st19" d="M151.3,131l-0.3-0.6l0,0l-3.5-8.4c-2.3-0.3-3.4-0.4-5.8-0.6l0.2,0.4h-10.3l0.4-0.9c-2.2-0.1-4.4-0.1-6.7-0.1
	l-1.7,4.1l0,0l-4.2,10.1c0,0.1-0.1,0.2-0.1,0.3c2.3,0,4.8,0,7.1,0l3-7.7h8.4l0,0h6.4l0.3,0.8l0.2,0.5l0,0l2.1,5.4l0,0
	c2.3-0.2,3.4-0.1,5.6-0.4L151.3,131z"/>
<polygon class="st20" points="12,128.6 12.1,128.9 10.8,129.3 10.8,129.3 10.7,129.1 10.7,129 "/>
</svg>
