<?xml version="1.0" encoding="UTF-8"?><svg xmlns="http://www.w3.org/2000/svg" viewBox="0 0 60 49.21"><defs><style>.d{fill:#fff;}.e{fill:#1d1d1b;}</style></defs><g id="a"/><g id="b"><g id="c"><g><g><path class="e" d="M50.84,27.18c1.35,0,2.15-.56,2.15-2.13s-.79-2.13-2.15-2.13h-2.37v4.26h2.37Z"/><path class="e" d="M45.33,43.7v5.52h5.22c-3.39-.04-4.84-2.42-5.22-5.52Z"/><path class="e" d="M42.33,44.07h-2.84c-3.02,0-4.76-1.68-4.76-4.67s1.74-4.67,4.76-4.67h-.89v-5.91h-7.36v14.88c0,3.04,2.46,5.51,5.51,5.51h5.59v-5.14Z"/><path class="e" d="M54.49,20.45h-3.06c2.99,.02,4.56,1.66,4.56,4.37,0,1.9-.87,3.14-2.55,3.59,1.55,.22,2.19,1.17,2.29,3.05v1.85h-2.94v-1.66c-.09-1.44-.67-1.99-2.19-1.99h-2.13v5.08h-2.96v-14.28h-8.78c-1.54,0-2.93,.63-3.93,1.65l12.55,4.25v2.47h-3.79v5.91h3.76v5.22c.16-1.34,.53-2.55,1.25-3.51,.91-1.22,2.28-1.92,4.36-1.92,3.37,0,5.38,1.97,5.56,5.09h-2.94c-.11-1.63-1-2.62-2.62-2.62-.93,0-1.61,.34-2.04,.99-.5,.74-.72,1.79-.72,3.87,0,3.84,.91,4.88,2.8,4.88s2.56-1.24,2.69-3.1h-2.65v-2.19h5.47v7.38c2.06-.8,3.52-2.79,3.52-5.13V25.95c0-3.04-2.46-5.51-5.51-5.51Z"/><path class="e" d="M37.75,39.4c0,1.43,.71,2.16,2.14,2.16h2.44v-4.32h-2.44c-1.43,0-2.14,.73-2.14,2.16Z"/><path class="e" d="M50.72,49.21h3.31v-1.91c-.49,1.13-1.63,1.89-3.31,1.91Z"/></g><path class="e" d="M29.86,25.95v16.71l-2.55,2.55c-2.16,2.15-5.64,2.15-7.79,0L1.62,27.31c-2.16-2.16-2.16-5.64,0-7.79L19.52,1.62c2.15-2.16,5.63-2.16,7.79,0l17.45,17.45h-8.02c-3.8,0-6.88,3.08-6.88,6.88Z"/><circle class="d" cx="23.04" cy="23.41" r="4.89"/></g></g></g></svg>