<?xml version="1.0" encoding="UTF-8"?><svg xmlns="http://www.w3.org/2000/svg" viewBox="0 0 60 60"><defs><style>.d{fill:#1d1d1b;}</style></defs><g id="a"/><g id="b"><g id="c"><g><path class="d" d="M40.9,14.04c2.83,0,4.48-1.17,4.48-4.45s-1.66-4.45-4.48-4.45h-4.94V14.04h4.94Z"/><path class="d" d="M29.4,48.49v11.51h10.89c-7.07-.09-10.1-5.06-10.89-11.51Z"/><path class="d" d="M23.14,49.27h-5.92c-6.3,0-9.93-3.51-9.93-9.74s3.63-9.74,9.93-9.74h-1.87v-12.32H0v31.05c0,6.34,5.14,11.48,11.48,11.48h11.66v-10.73Z"/><path class="d" d="M48.52,0h-6.39c6.24,.05,9.51,3.46,9.51,9.11,0,3.96-1.81,6.56-5.31,7.5,3.24,.45,4.56,2.44,4.78,6.35v3.85h-6.14v-3.46c-.19-3.01-1.39-4.14-4.56-4.14h-4.45v10.59h-6.18V0H11.48C8.28,0,5.38,1.32,3.29,3.44L29.48,12.31v5.16h-7.91v12.32h7.84v10.9c.34-2.79,1.1-5.31,2.61-7.31,1.91-2.54,4.75-4,9.09-4,7.03,0,11.22,4.11,11.6,10.62h-6.14c-.22-3.4-2.09-5.46-5.46-5.46-1.95,0-3.37,.71-4.26,2.06-1.05,1.53-1.5,3.74-1.5,8.08,0,8.01,1.91,10.17,5.84,10.17s5.35-2.58,5.61-6.47h-5.54v-4.56h11.41v15.4c4.29-1.67,7.33-5.82,7.33-10.7V11.48c0-6.34-5.14-11.48-11.48-11.48Z"/><path class="d" d="M13.59,39.53c0,2.98,1.49,4.51,4.47,4.51h5.08v-9.02h-5.08c-2.98,0-4.47,1.53-4.47,4.51Z"/><path class="d" d="M40.64,60h6.9v-3.99c-1.03,2.36-3.41,3.94-6.9,3.99Z"/></g></g></g></svg>